SplineFontDB: 3.2
FontName: TengwarGondolin
FullName: Tengwar Gondolin
FamilyName: Tengwar Gondolin
Weight: Book
Copyright: Shankar Sivarajan\nBased on glyphs from Libertinus Serif.
Version: 
ItalicAngle: 0
UnderlinePosition: -46
UnderlineWidth: 19
Ascent: 800
Descent: 200
InvalidEm: 0
sfntRevision: 0x00010000
LayerCount: 2
Layer: 0 1 "Back" 1
Layer: 1 1 "Fore" 0
XUID: [1021 146 -1796264217 17470]
StyleMap: 0x0040
FSType: 0
OS2Version: 4
OS2_WeightWidthSlopeOnly: 0
OS2_UseTypoMetrics: 0
CreationTime: 1107308838
ModificationTime: 1685819810
PfmFamily: 17
TTFWeight: 400
TTFWidth: 5
LineGap: 0
VLineGap: 0
Panose: 2 0 5 3 0 0 0 0 0 0
OS2TypoAscent: 800
OS2TypoAOffset: 0
OS2TypoDescent: -200
OS2TypoDOffset: 0
OS2TypoLinegap: 0
OS2WinAscent: 488
OS2WinAOffset: 0
OS2WinDescent: 572
OS2WinDOffset: 0
HheadAscent: 956
HheadAOffset: 0
HheadDescent: -572
HheadDOffset: 0
OS2SubXSize: 650
OS2SubYSize: 700
OS2SubXOff: 0
OS2SubYOff: 140
OS2SupXSize: 650
OS2SupYSize: 700
OS2SupXOff: 0
OS2SupYOff: 480
OS2StrikeYSize: 50
OS2StrikeYPos: 259
OS2Vendor: 'PfEd'
OS2CodePages: 00000001.c0d40000
OS2UnicodeRanges: 8000002f.00000008.00000000.00000000
Lookup: 4 0 1 "'liga' Standard Ligatures lookup 0" { "'liga' Standard Ligatures lookup 0 subtable"  } ['liga' ('DFLT' <'dflt' > ) ]
Lookup: 260 0 0 "'mark' Mark Positioning lookup 0" { "'mark' Mark Positioning lookup 0 subtable"  } ['mark' ('DFLT' <'dflt' > ) ]
Lookup: 262 0 0 "'mkmk' Mark to Mark lookup 1" { "'mkmk' Mark to Mark lookup 1 subtable"  } ['mkmk' ('DFLT' <'dflt' > ) ]
Lookup: 258 8 0 "'kern' Horizontal Kerning lookup 2" { "'kern' Horizontal Kerning lookup 2 subtable" [150,15,0] } ['kern' ('DFLT' <'dflt' > ) ]
MarkAttachClasses: 1
DEI: 91125
TtTable: prep
PUSHW_1
 511
SCANCTRL
PUSHB_1
 1
SCANTYPE
SVTCA[y-axis]
MPPEM
PUSHB_1
 8
LT
IF
PUSHB_2
 1
 1
INSTCTRL
EIF
PUSHB_2
 70
 6
CALL
IF
POP
PUSHB_1
 16
EIF
MPPEM
PUSHB_1
 20
GT
IF
POP
PUSHB_1
 128
EIF
SCVTCI
PUSHB_1
 6
CALL
NOT
IF
EIF
PUSHB_1
 20
CALL
EndTTInstrs
TtTable: fpgm
PUSHB_1
 0

StartChar: .notdef
Encoding: 65536 -1 0
Width: 400
GlyphClass: 1
Flags: W
LayerCount: 2
Fore
SplineSet
59 0 m 1,0,-1
 59 667 l 1,1,-1
 325 667 l 1,2,-1
 325 0 l 1,3,-1
 59 0 l 1,0,-1
92 33 m 1,4,-1
 292 33 l 1,5,-1
 292 633 l 1,6,-1
 92 633 l 1,7,-1
 92 33 l 1,4,-1
EndSplineSet
Validated: 1
EndChar

StartChar: colon
Encoding: 58 58 4
Width: 224
GlyphClass: 2
Flags: W
LayerCount: 2
Fore
SplineSet
51 619 m 128,-1,1
 51 641 51 641 66.5 656.5 c 128,-1,2
 82 672 82 672 104 672 c 128,-1,3
 126 672 126 672 141.5 656.5 c 128,-1,4
 157 641 157 641 157 619 c 128,-1,5
 157 597 157 597 141.5 581.5 c 128,-1,6
 126 566 126 566 104 566 c 128,-1,7
 82 566 82 566 66.5 581.5 c 128,-1,0
 51 597 51 597 51 619 c 128,-1,1
51 90 m 128,-1,9
 51 112 51 112 66.5 127.5 c 128,-1,10
 82 143 82 143 104 143 c 128,-1,11
 126 143 126 143 141.5 127.5 c 128,-1,12
 157 112 157 112 157 90 c 128,-1,13
 157 68 157 68 141.5 52.5 c 128,-1,14
 126 37 126 37 104 37 c 128,-1,15
 82 37 82 37 66.5 52.5 c 128,-1,8
 51 68 51 68 51 90 c 128,-1,9
EndSplineSet
Validated: 1
EndChar

StartChar: uni2058
Encoding: 8280 8280 6
Width: 538
GlyphClass: 2
Flags: W
LayerCount: 2
Fore
SplineSet
211 619 m 128,-1,1
 211 641 211 641 226.5 656.5 c 128,-1,2
 242 672 242 672 264 672 c 128,-1,3
 286 672 286 672 301.5 656.5 c 128,-1,4
 317 641 317 641 317 619 c 128,-1,5
 317 597 317 597 301.5 581.5 c 128,-1,6
 286 566 286 566 264 566 c 128,-1,7
 242 566 242 566 226.5 581.5 c 128,-1,0
 211 597 211 597 211 619 c 128,-1,1
211 90 m 128,-1,9
 211 112 211 112 226.5 127.5 c 128,-1,10
 242 143 242 143 264 143 c 128,-1,11
 286 143 286 143 301.5 127.5 c 128,-1,12
 317 112 317 112 317 90 c 128,-1,13
 317 68 317 68 301.5 52.5 c 128,-1,14
 286 37 286 37 264 37 c 128,-1,15
 242 37 242 37 226.5 52.5 c 128,-1,8
 211 68 211 68 211 90 c 128,-1,9
59 300 m 128,-1,17
 38 300 38 300 21.5 316.5 c 128,-1,18
 5 333 5 333 5 354 c 128,-1,19
 5 375 5 375 21.5 391.5 c 128,-1,20
 38 408 38 408 59 408 c 128,-1,21
 80 408 80 408 96.5 391.5 c 128,-1,22
 113 375 113 375 113 354 c 128,-1,23
 113 333 113 333 96.5 316.5 c 128,-1,16
 80 300 80 300 59 300 c 128,-1,17
467 300 m 128,-1,25
 446 300 446 300 429.5 316.5 c 128,-1,26
 413 333 413 333 413 354 c 128,-1,27
 413 375 413 375 429.5 391.5 c 128,-1,28
 446 408 446 408 467 408 c 128,-1,29
 488 408 488 408 504.5 391.5 c 128,-1,30
 521 375 521 375 521 354 c 128,-1,31
 521 333 521 333 504.5 316.5 c 128,-1,24
 488 300 488 300 467 300 c 128,-1,25
EndSplineSet
Validated: 1
EndChar

StartChar: uni205D
Encoding: 8285 8285 7
Width: 224
GlyphClass: 2
Flags: W
LayerCount: 2
Fore
SplineSet
51 619 m 128,-1,1
 51 641 51 641 66.5 656.5 c 128,-1,2
 82 672 82 672 104 672 c 128,-1,3
 126 672 126 672 141.5 656.5 c 128,-1,4
 157 641 157 641 157 619 c 128,-1,5
 157 597 157 597 141.5 581.5 c 128,-1,6
 126 566 126 566 104 566 c 128,-1,7
 82 566 82 566 66.5 581.5 c 128,-1,0
 51 597 51 597 51 619 c 128,-1,1
51 90 m 128,-1,9
 51 112 51 112 66.5 127.5 c 128,-1,10
 82 143 82 143 104 143 c 128,-1,11
 126 143 126 143 141.5 127.5 c 128,-1,12
 157 112 157 112 157 90 c 128,-1,13
 157 68 157 68 141.5 52.5 c 128,-1,14
 126 37 126 37 104 37 c 128,-1,15
 82 37 82 37 66.5 52.5 c 128,-1,8
 51 68 51 68 51 90 c 128,-1,9
51 354 m 128,-1,17
 51 376 51 376 66.5 391.5 c 128,-1,18
 82 407 82 407 104 407 c 128,-1,19
 126 407 126 407 141.5 391.5 c 128,-1,20
 157 376 157 376 157 354 c 128,-1,21
 157 332 157 332 141.5 316.5 c 128,-1,22
 126 301 126 301 104 301 c 128,-1,23
 82 301 82 301 66.5 316.5 c 128,-1,16
 51 332 51 332 51 354 c 128,-1,17
EndSplineSet
Validated: 1
EndChar

StartChar: uni2E2D
Encoding: 11821 11821 8
Width: 538
GlyphClass: 2
Flags: W
LayerCount: 2
Fore
SplineSet
211 619 m 128,-1,1
 211 641 211 641 226.5 656.5 c 128,-1,2
 242 672 242 672 264 672 c 128,-1,3
 286 672 286 672 301.5 656.5 c 128,-1,4
 317 641 317 641 317 619 c 128,-1,5
 317 597 317 597 301.5 581.5 c 128,-1,6
 286 566 286 566 264 566 c 128,-1,7
 242 566 242 566 226.5 581.5 c 128,-1,0
 211 597 211 597 211 619 c 128,-1,1
211 90 m 128,-1,9
 211 112 211 112 226.5 127.5 c 128,-1,10
 242 143 242 143 264 143 c 128,-1,11
 286 143 286 143 301.5 127.5 c 128,-1,12
 317 112 317 112 317 90 c 128,-1,13
 317 68 317 68 301.5 52.5 c 128,-1,14
 286 37 286 37 264 37 c 128,-1,15
 242 37 242 37 226.5 52.5 c 128,-1,8
 211 68 211 68 211 90 c 128,-1,9
211 354 m 128,-1,17
 211 376 211 376 226.5 391.5 c 128,-1,18
 242 407 242 407 264 407 c 128,-1,19
 286 407 286 407 301.5 391.5 c 128,-1,20
 317 376 317 376 317 354 c 128,-1,21
 317 332 317 332 301.5 316.5 c 128,-1,22
 286 301 286 301 264 301 c 128,-1,23
 242 301 242 301 226.5 316.5 c 128,-1,16
 211 332 211 332 211 354 c 128,-1,17
59 300 m 128,-1,25
 38 300 38 300 21.5 316.5 c 128,-1,26
 5 333 5 333 5 354 c 128,-1,27
 5 375 5 375 21.5 391.5 c 128,-1,28
 38 408 38 408 59 408 c 128,-1,29
 80 408 80 408 96.5 391.5 c 128,-1,30
 113 375 113 375 113 354 c 128,-1,31
 113 333 113 333 96.5 316.5 c 128,-1,24
 80 300 80 300 59 300 c 128,-1,25
467 300 m 128,-1,33
 446 300 446 300 429.5 316.5 c 128,-1,34
 413 333 413 333 413 354 c 128,-1,35
 413 375 413 375 429.5 391.5 c 128,-1,36
 446 408 446 408 467 408 c 128,-1,37
 488 408 488 408 504.5 391.5 c 128,-1,38
 521 375 521 375 521 354 c 128,-1,39
 521 333 521 333 504.5 316.5 c 128,-1,32
 488 300 488 300 467 300 c 128,-1,33
EndSplineSet
Validated: 1
EndChar

StartChar: uni2E31
Encoding: 11825 11825 9
Width: 538
GlyphClass: 2
Flags: W
LayerCount: 2
Fore
SplineSet
211 354 m 128,-1,1
 211 376 211 376 226.5 391.5 c 128,-1,2
 242 407 242 407 264 407 c 128,-1,3
 286 407 286 407 301.5 391.5 c 128,-1,4
 317 376 317 376 317 354 c 128,-1,5
 317 332 317 332 301.5 316.5 c 128,-1,6
 286 301 286 301 264 301 c 128,-1,7
 242 301 242 301 226.5 316.5 c 128,-1,0
 211 332 211 332 211 354 c 128,-1,1
EndSplineSet
Validated: 1
EndChar

StartChar: tinco
Encoding: 57344 57344 10
Width: 574
GlyphClass: 2
Flags: W
AnchorPoint: "Anchor-1" 284 750 basechar 0
AnchorPoint: "Anchor-0" 184 -100 basechar 0
LayerCount: 2
Fore
SplineSet
181 645 m 1,0,-1
 386 645 l 2,1,2
 467 646 467 646 506 647 c 1,3,4
 516 589 516 589 521 490 c 1,5,6
 507 484 507 484 492 486 c 1,7,8
 482 519 482 519 475.5 535 c 128,-1,9
 469 551 469 551 456.5 570.5 c 128,-1,10
 444 590 444 590 425.5 597.5 c 128,-1,11
 407 605 407 605 380 605 c 2,12,-1
 260 605 l 2,13,14
 224 605 224 605 224 571 c 2,15,-1
 224 122 l 2,16,17
 224 62 224 62 239.5 47.5 c 128,-1,18
 255 33 255 33 311 31 c 1,19,20
 316 26 316 26 316 14 c 128,-1,21
 316 2 316 2 311 -2 c 1,22,23
 231 0 231 0 182 0 c 0,24,25
 130 0 130 0 52 -2 c 1,26,27
 48 2 48 2 48 14 c 128,-1,28
 48 26 48 26 52 31 c 1,29,30
 108 33 108 33 123.5 47.5 c 128,-1,31
 139 62 139 62 139 122 c 2,32,-1
 139 523 l 2,33,34
 139 583 139 583 123.5 597.5 c 128,-1,35
 108 612 108 612 52 614 c 0,36,37
 48 618 48 618 48 630 c 128,-1,38
 48 642 48 642 52 647 c 1,39,-1
 181 645 l 1,0,-1
EndSplineSet
Validated: 1
EndChar

StartChar: parma
Encoding: 57345 57345 11
Width: 588
GlyphClass: 2
Flags: W
AnchorPoint: "Anchor-1" 288 750 basechar 0
AnchorPoint: "Anchor-0" 288 -100 basechar 0
LayerCount: 2
Fore
SplineSet
142 523 m 2,0,1
 142 583 142 583 126.5 597.5 c 128,-1,2
 111 612 111 612 55 614 c 0,3,4
 50 618 50 618 50 630 c 128,-1,5
 50 642 50 642 55 647 c 1,6,7
 135 645 135 645 184 645 c 0,8,9
 204 645 204 645 253 648.5 c 128,-1,10
 302 652 302 652 321 652 c 0,11,12
 386 652 386 652 433 635 c 128,-1,13
 480 618 480 618 503 590.5 c 128,-1,14
 526 563 526 563 535.5 537.5 c 128,-1,15
 545 512 545 512 545 486 c 0,16,17
 545 451 545 451 533 417.5 c 128,-1,18
 521 384 521 384 495.5 352.5 c 128,-1,19
 470 321 470 321 421.5 301.5 c 128,-1,20
 373 282 373 282 308 282 c 0,21,22
 258 282 258 282 227 292 c 1,23,-1
 227 122 l 2,24,25
 227 63 227 63 246 48.5 c 128,-1,26
 265 34 265 34 329 31 c 1,27,28
 334 26 334 26 334 14 c 128,-1,29
 334 2 334 2 329 -2 c 1,30,31
 229 0 229 0 185 0 c 0,32,33
 145 0 145 0 55 -2 c 1,34,35
 50 2 50 2 50 14 c 128,-1,36
 50 26 50 26 55 31 c 1,37,38
 111 33 111 33 126.5 47.5 c 128,-1,39
 142 62 142 62 142 122 c 2,40,-1
 142 523 l 2,0,1
227 554 m 2,41,-1
 227 321 l 1,42,43
 245 316 245 316 303 316 c 0,44,45
 377 316 377 316 414.5 352.5 c 128,-1,46
 452 389 452 389 452 468 c 0,47,48
 452 555 452 555 414 586.5 c 128,-1,49
 376 618 376 618 314 618 c 0,50,51
 227 618 227 618 227 554 c 2,41,-1
EndSplineSet
Validated: 1
EndChar

StartChar: calma
Encoding: 57346 57346 12
Width: 558
GlyphClass: 2
Flags: W
AnchorPoint: "Anchor-1" 272 750 basechar 0
AnchorPoint: "Anchor-0" 372 -100 basechar 0
LayerCount: 2
Fore
SplineSet
376 645 m 2,0,1
 455 646 455 646 504 647 c 1,2,3
 509 642 509 642 509 630 c 128,-1,4
 509 618 509 618 504 614 c 0,5,6
 475 613 475 613 461 610.5 c 128,-1,7
 447 608 447 608 435.5 598.5 c 128,-1,8
 424 589 424 589 421 572 c 128,-1,9
 418 555 418 555 418 523 c 2,10,-1
 418 122 l 2,11,12
 418 90 418 90 421 73 c 128,-1,13
 424 56 424 56 435.5 46.5 c 128,-1,14
 447 37 447 37 461 34.5 c 128,-1,15
 475 32 475 32 504 31 c 1,16,17
 509 26 509 26 509 14 c 128,-1,18
 509 2 509 2 504 -2 c 1,19,20
 426 0 426 0 374 0 c 0,21,22
 326 0 326 0 246 -2 c 1,23,24
 241 2 241 2 241 14 c 128,-1,25
 241 26 241 26 246 31 c 1,26,27
 275 32 275 32 289 34.5 c 128,-1,28
 303 37 303 37 314.5 46.5 c 128,-1,29
 326 56 326 56 329 73 c 128,-1,30
 332 90 332 90 332 122 c 2,31,-1
 332 571 l 2,32,33
 332 605 332 605 296 605 c 2,34,-1
 176 605 l 2,35,36
 155 605 155 605 138 598.5 c 128,-1,37
 121 592 121 592 111 583.5 c 128,-1,38
 101 575 101 575 91.5 557 c 128,-1,39
 82 539 82 539 77 525.5 c 128,-1,40
 72 512 72 512 64 486 c 1,41,42
 49 484 49 484 36 490 c 1,43,44
 40 589 40 589 50 647 c 1,45,-1
 170 645 l 1,46,-1
 376 645 l 2,0,1
EndSplineSet
Validated: 1
EndChar

StartChar: quesse
Encoding: 57347 57347 13
Width: 604
GlyphClass: 2
Flags: W
AnchorPoint: "Anchor-1" 280 750 basechar 0
AnchorPoint: "Anchor-0" 280 -100 basechar 0
LayerCount: 2
Fore
SplineSet
446 523 m 2,0,-1
 446 122 l 2,1,2
 446 90 446 90 449 73 c 128,-1,3
 452 56 452 56 463.5 46.5 c 128,-1,4
 475 37 475 37 489 34.5 c 128,-1,5
 503 32 503 32 532 31 c 1,6,7
 537 26 537 26 537 14 c 128,-1,8
 537 2 537 2 532 -2 c 1,9,10
 442 0 442 0 402 0 c 0,11,12
 358 0 358 0 258 -2 c 1,13,14
 254 2 254 2 254 14 c 128,-1,15
 254 26 254 26 258 31 c 1,16,17
 293 33 293 33 308.5 35.5 c 128,-1,18
 324 38 324 38 338 47 c 128,-1,19
 352 56 352 56 356 73.5 c 128,-1,20
 360 91 360 91 360 122 c 2,21,-1
 360 292 l 1,22,23
 329 282 329 282 280 282 c 0,24,25
 227 282 227 282 185 295 c 128,-1,26
 143 308 143 308 117 329 c 128,-1,27
 91 350 91 350 73.5 377.5 c 128,-1,28
 56 405 56 405 49 432 c 128,-1,29
 42 459 42 459 42 486 c 0,30,31
 42 506 42 506 47.5 526 c 128,-1,32
 53 546 53 546 68.5 569.5 c 128,-1,33
 84 593 84 593 107.5 610.5 c 128,-1,34
 131 628 131 628 172.5 640 c 128,-1,35
 214 652 214 652 266 652 c 0,36,37
 285 652 285 652 334 648.5 c 128,-1,38
 383 645 383 645 404 645 c 0,39,40
 452 645 452 645 532 647 c 1,41,42
 537 642 537 642 537 630 c 128,-1,43
 537 618 537 618 532 614 c 0,44,45
 503 613 503 613 489 610.5 c 128,-1,46
 475 608 475 608 463.5 598.5 c 128,-1,47
 452 589 452 589 449 572 c 128,-1,48
 446 555 446 555 446 523 c 2,0,-1
360 554 m 2,49,50
 360 618 360 618 274 618 c 0,51,52
 245 618 245 618 222.5 612 c 128,-1,53
 200 606 200 606 179 591 c 128,-1,54
 158 576 158 576 147 545 c 128,-1,55
 136 514 136 514 136 468 c 0,56,57
 136 389 136 389 173 352.5 c 128,-1,58
 210 316 210 316 284 316 c 0,59,60
 342 316 342 316 360 321 c 1,61,-1
 360 554 l 2,49,50
EndSplineSet
Validated: 1
EndChar

StartChar: ando
Encoding: 57348 57348 14
Width: 707
GlyphClass: 2
Flags: W
AnchorPoint: "Anchor-1" 344 750 basechar 0
AnchorPoint: "Anchor-0" 344 -100 basechar 0
LayerCount: 2
Fore
SplineSet
190 645 m 1,0,-1
 395 645 l 2,1,2
 476 646 476 646 515 647 c 1,3,4
 525 589 525 589 530 490 c 1,5,6
 516 484 516 484 501 486 c 1,7,8
 493 512 493 512 488.5 525.5 c 128,-1,9
 484 539 484 539 474.5 557 c 128,-1,10
 465 575 465 575 455 583.5 c 128,-1,11
 445 592 445 592 428 598.5 c 128,-1,12
 411 605 411 605 389 605 c 2,13,-1
 269 605 l 2,14,15
 233 605 233 605 233 571 c 2,16,-1
 233 122 l 2,17,18
 233 90 233 90 236 73 c 128,-1,19
 239 56 239 56 251 46.5 c 128,-1,20
 263 37 263 37 276.5 34.5 c 128,-1,21
 290 32 290 32 320 31 c 1,22,23
 325 26 325 26 325 14 c 128,-1,24
 325 2 325 2 320 -2 c 1,25,26
 240 0 240 0 191 0 c 0,27,28
 139 0 139 0 61 -2 c 1,29,30
 57 2 57 2 57 14 c 128,-1,31
 57 26 57 26 61 31 c 1,32,33
 91 32 91 32 105 34.5 c 128,-1,34
 119 37 119 37 130.5 46.5 c 128,-1,35
 142 56 142 56 145 73 c 128,-1,36
 148 90 148 90 148 122 c 2,37,-1
 148 523 l 2,38,39
 148 555 148 555 145 572 c 128,-1,40
 142 589 142 589 130.5 598.5 c 128,-1,41
 119 608 119 608 105 610.5 c 128,-1,42
 91 613 91 613 61 614 c 0,43,44
 57 618 57 618 57 630 c 128,-1,45
 57 642 57 642 61 647 c 1,46,-1
 190 645 l 1,0,-1
230 384 m 2,47,48
 230 387 230 387 254 382.5 c 128,-1,49
 278 378 278 378 310 363.5 c 128,-1,50
 342 349 342 349 360 330 c 0,51,52
 393 292 393 292 448 227 c 128,-1,53
 503 162 503 162 541 116 c 2,54,-1
 578 70 l 2,55,56
 593 53 593 53 609.5 43.5 c 128,-1,57
 626 34 626 34 636.5 32 c 128,-1,58
 647 30 647 30 666 28 c 1,59,60
 671 23 671 23 671 11 c 128,-1,61
 671 -1 671 -1 666 -5 c 1,62,63
 600 -3 600 -3 566 -3 c 0,64,65
 552 -3 552 -3 512 -5 c 0,66,67
 506 -5 506 -5 506 1 c 0,68,69
 503 27 503 27 470 70 c 2,70,-1
 314 268 l 2,71,72
 286 304 286 304 230 306 c 1,73,-1
 230 384 l 2,47,48
EndSplineSet
Validated: 5
EndChar

StartChar: umbar
Encoding: 57349 57349 15
Width: 662
GlyphClass: 2
Flags: W
AnchorPoint: "Anchor-1" 318 750 basechar 0
AnchorPoint: "Anchor-0" 318 -100 basechar 0
LayerCount: 2
Fore
SplineSet
217 122 m 2,0,1
 217 62 217 62 232.5 47.5 c 128,-1,2
 248 33 248 33 304 31 c 1,3,4
 308 26 308 26 308 14 c 128,-1,5
 308 2 308 2 304 -2 c 1,6,7
 216 0 216 0 175 0 c 0,8,9
 135 0 135 0 45 -2 c 1,10,11
 40 2 40 2 40 14 c 128,-1,12
 40 26 40 26 45 31 c 1,13,14
 101 33 101 33 116.5 47.5 c 128,-1,15
 132 62 132 62 132 122 c 2,16,-1
 132 523 l 2,17,18
 132 583 132 583 116.5 597.5 c 128,-1,19
 101 612 101 612 45 614 c 0,20,21
 40 618 40 618 40 630 c 128,-1,22
 40 642 40 642 45 647 c 1,23,24
 139 645 139 645 174 645 c 0,25,26
 191 645 191 645 232.5 648.5 c 128,-1,27
 274 652 274 652 299 652 c 0,28,29
 358 652 358 652 399 643 c 128,-1,30
 440 634 440 634 472 604 c 0,31,32
 525 554 525 554 525 479 c 0,33,34
 525 410 525 410 481.5 366.5 c 128,-1,35
 438 323 438 323 392 308 c 1,36,-1
 518 98 l 2,37,38
 541 60 541 60 562 40.5 c 128,-1,39
 583 21 583 21 614 21 c 1,40,41
 621 7 621 7 615 -3 c 1,42,43
 601 -10 601 -10 573 -10 c 0,44,45
 496 -10 496 -10 441 79 c 2,46,-1
 334 253 l 2,47,48
 322 273 322 273 298.5 282 c 128,-1,49
 275 291 275 291 217 291 c 1,50,-1
 217 122 l 2,0,1
300 618 m 0,51,52
 217 618 217 618 217 554 c 2,53,-1
 217 325 l 1,54,-1
 265 325 l 2,55,56
 346 325 346 325 389.5 358 c 128,-1,57
 433 391 433 391 433 478 c 0,58,59
 433 618 433 618 300 618 c 0,51,52
EndSplineSet
Validated: 1
EndChar

StartChar: anga
Encoding: 57350 57350 16
Width: 692
GlyphClass: 2
Flags: W
AnchorPoint: "Anchor-1" 386 750 basechar 0
AnchorPoint: "Anchor-0" 306 -100 basechar 0
LayerCount: 2
Fore
SplineSet
510 645 m 2,0,1
 589 646 589 646 638 647 c 1,2,3
 643 642 643 642 643 630 c 128,-1,4
 643 618 643 618 638 614 c 0,5,6
 609 613 609 613 595 610.5 c 128,-1,7
 581 608 581 608 569.5 598.5 c 128,-1,8
 558 589 558 589 555 572 c 128,-1,9
 552 555 552 555 552 523 c 2,10,-1
 552 122 l 2,11,12
 552 90 552 90 555 73 c 128,-1,13
 558 56 558 56 569.5 46.5 c 128,-1,14
 581 37 581 37 595 34.5 c 128,-1,15
 609 32 609 32 638 31 c 1,16,17
 643 26 643 26 643 14 c 128,-1,18
 643 2 643 2 638 -2 c 1,19,20
 560 0 560 0 508 0 c 0,21,22
 460 0 460 0 380 -2 c 1,23,24
 375 2 375 2 375 14 c 128,-1,25
 375 26 375 26 380 31 c 1,26,27
 409 32 409 32 423 34.5 c 128,-1,28
 437 37 437 37 448.5 46.5 c 128,-1,29
 460 56 460 56 463 73 c 128,-1,30
 466 90 466 90 466 122 c 2,31,-1
 466 571 l 2,32,33
 466 605 466 605 430 605 c 2,34,-1
 310 605 l 2,35,36
 289 605 289 605 272 598.5 c 128,-1,37
 255 592 255 592 245 583.5 c 128,-1,38
 235 575 235 575 225.5 557 c 128,-1,39
 216 539 216 539 211 525.5 c 128,-1,40
 206 512 206 512 198 486 c 1,41,42
 183 484 183 484 170 490 c 1,43,44
 174 589 174 589 184 647 c 1,45,-1
 304 645 l 1,46,-1
 510 645 l 2,0,1
469 384 m 2,47,-1
 469 306 l 1,48,49
 414 304 414 304 386 268 c 2,50,-1
 229 70 l 2,51,52
 197 27 197 27 193 1 c 0,53,54
 193 -5 193 -5 188 -5 c 0,55,56
 148 -3 148 -3 134 -3 c 0,57,58
 99 -3 99 -3 33 -5 c 1,59,60
 29 -1 29 -1 29 11 c 128,-1,61
 29 23 29 23 33 28 c 1,62,63
 52 30 52 30 63 32 c 128,-1,64
 74 34 74 34 90.5 43.5 c 128,-1,65
 107 53 107 53 121 70 c 0,66,67
 265 245 265 245 340 330 c 0,68,69
 358 349 358 349 390 363.5 c 128,-1,70
 422 378 422 378 445.5 382.5 c 128,-1,71
 469 387 469 387 469 384 c 2,47,-1
EndSplineSet
Validated: 5
EndChar

StartChar: ungwe
Encoding: 57351 57351 17
Width: 690
GlyphClass: 2
Flags: W
AnchorPoint: "Anchor-1" 374 750 basechar 0
AnchorPoint: "Anchor-0" 314 -100 basechar 0
LayerCount: 2
Fore
SplineSet
457 122 m 2,0,-1
 457 291 l 1,1,2
 399 291 399 291 375.5 282 c 128,-1,3
 352 273 352 273 340 253 c 2,4,-1
 233 79 l 2,5,6
 178 -10 178 -10 101 -10 c 0,7,8
 73 -10 73 -10 59 -3 c 1,9,10
 53 7 53 7 60 21 c 1,11,12
 91 21 91 21 112 40.5 c 128,-1,13
 133 60 133 60 156 98 c 2,14,-1
 282 308 l 1,15,16
 263 314 263 314 242.5 326.5 c 128,-1,17
 222 339 222 339 200 359 c 128,-1,18
 178 379 178 379 163.5 410.5 c 128,-1,19
 149 442 149 442 149 479 c 0,20,21
 149 554 149 554 202 604 c 0,22,23
 234 634 234 634 275 643 c 128,-1,24
 316 652 316 652 375 652 c 0,25,26
 400 652 400 652 441.5 648.5 c 128,-1,27
 483 645 483 645 500 645 c 0,28,29
 535 645 535 645 629 647 c 1,30,31
 634 642 634 642 634 630 c 128,-1,32
 634 618 634 618 629 614 c 0,33,34
 599 613 599 613 585 610.5 c 128,-1,35
 571 608 571 608 559.5 598.5 c 128,-1,36
 548 589 548 589 545 572 c 128,-1,37
 542 555 542 555 542 523 c 2,38,-1
 542 122 l 2,39,40
 542 90 542 90 545 73 c 128,-1,41
 548 56 548 56 559.5 46.5 c 128,-1,42
 571 37 571 37 585 34.5 c 128,-1,43
 599 32 599 32 629 31 c 1,44,45
 634 26 634 26 634 14 c 128,-1,46
 634 2 634 2 629 -2 c 1,47,48
 539 0 539 0 499 0 c 0,49,50
 458 0 458 0 370 -2 c 1,51,52
 366 2 366 2 366 14 c 128,-1,53
 366 26 366 26 370 31 c 1,54,55
 400 32 400 32 414 34.5 c 128,-1,56
 428 37 428 37 439.5 46.5 c 128,-1,57
 451 56 451 56 454 73 c 128,-1,58
 457 90 457 90 457 122 c 2,0,-1
374 618 m 0,59,60
 241 618 241 618 241 478 c 0,61,62
 241 391 241 391 284.5 358 c 128,-1,63
 328 325 328 325 409 325 c 2,64,-1
 457 325 l 1,65,-1
 457 554 l 2,66,67
 457 618 457 618 374 618 c 0,59,60
EndSplineSet
Validated: 1
EndChar

StartChar: thuule
Encoding: 57352 57352 18
Width: 590
GlyphClass: 2
Flags: W
AnchorPoint: "Anchor-1" 186 750 basechar 0
AnchorPoint: "Anchor-0" 306 -100 basechar 0
LayerCount: 2
Fore
SplineSet
185 0 m 2,0,1
 133 0 133 0 55 -2 c 1,2,3
 50 2 50 2 50 14 c 128,-1,4
 50 26 50 26 55 31 c 1,5,6
 111 33 111 33 126.5 47.5 c 128,-1,7
 142 62 142 62 142 122 c 2,8,-1
 142 523 l 2,9,10
 142 583 142 583 126.5 597.5 c 128,-1,11
 111 612 111 612 55 614 c 0,12,13
 50 618 50 618 50 630 c 128,-1,14
 50 642 50 642 55 647 c 1,15,16
 147 645 147 645 184 645 c 0,17,18
 224 645 224 645 314 647 c 1,19,20
 318 642 318 642 318 630 c 128,-1,21
 318 618 318 618 314 614 c 0,22,23
 258 612 258 612 242.5 597.5 c 128,-1,24
 227 583 227 583 227 523 c 2,25,-1
 227 109 l 2,26,27
 227 71 227 71 240.5 55 c 128,-1,28
 254 39 254 39 284 39 c 2,29,-1
 347 39 l 2,30,31
 420 39 420 39 456.5 73.5 c 128,-1,32
 493 108 493 108 510 170 c 1,33,34
 527 173 527 173 543 165 c 1,35,36
 533 78 533 78 517 -2 c 1,37,38
 425 0 425 0 398 0 c 2,39,-1
 185 0 l 2,0,1
EndSplineSet
Validated: 33
EndChar

StartChar: formen
Encoding: 57353 57353 19
Width: 604
GlyphClass: 2
Flags: W
AnchorPoint: "Anchor-1" 304 750 basechar 0
AnchorPoint: "Anchor-0" 304 -100 basechar 0
LayerCount: 2
Fore
SplineSet
139 122 m 2,0,-1
 139 523 l 2,1,2
 139 583 139 583 123.5 597.5 c 128,-1,3
 108 612 108 612 52 614 c 0,4,5
 48 618 48 618 48 630 c 128,-1,6
 48 642 48 642 52 647 c 1,7,8
 132 645 132 645 181 645 c 0,9,10
 233 645 233 645 311 647 c 1,11,12
 316 642 316 642 316 630 c 128,-1,13
 316 618 316 618 311 614 c 0,14,15
 255 612 255 612 239.5 597.5 c 128,-1,16
 224 583 224 583 224 523 c 2,17,-1
 224 383 l 1,18,19
 264 387 264 387 306 387 c 0,20,21
 440 387 440 387 498.5 339 c 128,-1,22
 557 291 557 291 557 193 c 0,23,24
 557 98 557 98 492 48 c 128,-1,25
 427 -2 427 -2 299 -2 c 0,26,27
 280 -2 280 -2 238 -1 c 128,-1,28
 196 0 196 0 182 0 c 0,29,30
 130 0 130 0 52 -2 c 1,31,32
 48 2 48 2 48 14 c 128,-1,33
 48 26 48 26 52 31 c 1,34,35
 108 33 108 33 123.5 47.5 c 128,-1,36
 139 62 139 62 139 122 c 2,0,-1
301 31 m 0,37,38
 464 31 464 31 464 193 c 0,39,40
 464 272 464 272 421.5 309 c 128,-1,41
 379 346 379 346 284 346 c 0,42,43
 257 346 257 346 224 343 c 1,44,-1
 224 98 l 2,45,46
 224 67 224 67 239.5 49 c 128,-1,47
 255 31 255 31 301 31 c 0,37,38
EndSplineSet
Validated: 1
EndChar

StartChar: harma
Encoding: 57354 57354 20
Width: 596
GlyphClass: 2
Flags: W
AnchorPoint: "Anchor-1" 410 750 basechar 0
AnchorPoint: "Anchor-0" 280 -100 basechar 0
LayerCount: 2
Fore
SplineSet
402 0 m 2,0,-1
 190 0 l 2,1,2
 178 0 178 0 148 -0.5 c 128,-1,3
 118 -1 118 -1 94 -2 c 2,4,-1
 70 -2 l 1,5,6
 55 78 55 78 44 165 c 1,7,8
 60 173 60 173 78 170 c 1,9,10
 95 108 95 108 131 73.5 c 128,-1,11
 167 39 167 39 240 39 c 2,12,-1
 304 39 l 2,13,14
 333 39 333 39 346.5 55 c 128,-1,15
 360 71 360 71 360 109 c 2,16,-1
 360 523 l 2,17,18
 360 555 360 555 357 572 c 128,-1,19
 354 589 354 589 342.5 598.5 c 128,-1,20
 331 608 331 608 317 610.5 c 128,-1,21
 303 613 303 613 274 614 c 0,22,23
 269 618 269 618 269 630 c 128,-1,24
 269 642 269 642 274 647 c 1,25,26
 364 645 364 645 404 645 c 0,27,28
 440 645 440 645 532 647 c 1,29,30
 537 642 537 642 537 630 c 128,-1,31
 537 618 537 618 532 614 c 0,32,33
 503 613 503 613 489 610.5 c 128,-1,34
 475 608 475 608 463.5 598.5 c 128,-1,35
 452 589 452 589 449 572 c 128,-1,36
 446 555 446 555 446 523 c 2,37,-1
 446 122 l 2,38,39
 446 90 446 90 449 73 c 128,-1,40
 452 56 452 56 463.5 46.5 c 128,-1,41
 475 37 475 37 489 34.5 c 128,-1,42
 503 32 503 32 532 31 c 1,43,44
 537 26 537 26 537 14 c 128,-1,45
 537 2 537 2 532 -2 c 1,46,47
 454 0 454 0 402 0 c 2,0,-1
EndSplineSet
Validated: 33
EndChar

StartChar: hwesta
Encoding: 57355 57355 21
Width: 616
GlyphClass: 2
Flags: W
AnchorPoint: "Anchor-1" 300 750 basechar 0
AnchorPoint: "Anchor-0" 300 -100 basechar 0
LayerCount: 2
Fore
SplineSet
462 122 m 2,0,1
 462 90 462 90 465 73 c 128,-1,2
 468 56 468 56 479.5 46.5 c 128,-1,3
 491 37 491 37 505 34.5 c 128,-1,4
 519 32 519 32 548 31 c 1,5,6
 553 26 553 26 553 14 c 128,-1,7
 553 2 553 2 548 -2 c 1,8,9
 470 0 470 0 418 0 c 0,10,11
 405 0 405 0 362.5 -1 c 128,-1,12
 320 -2 320 -2 302 -2 c 0,13,14
 174 -2 174 -2 109 48 c 128,-1,15
 44 98 44 98 44 193 c 0,16,17
 44 291 44 291 102 339 c 128,-1,18
 160 387 160 387 294 387 c 0,19,20
 336 387 336 387 376 383 c 1,21,-1
 376 523 l 2,22,23
 376 555 376 555 373 572 c 128,-1,24
 370 589 370 589 358.5 598.5 c 128,-1,25
 347 608 347 608 333 610.5 c 128,-1,26
 319 613 319 613 290 614 c 0,27,28
 285 618 285 618 285 630 c 128,-1,29
 285 642 285 642 290 647 c 1,30,31
 368 645 368 645 420 645 c 0,32,33
 468 645 468 645 548 647 c 1,34,35
 553 642 553 642 553 630 c 128,-1,36
 553 618 553 618 548 614 c 0,37,38
 519 613 519 613 505 610.5 c 128,-1,39
 491 608 491 608 479.5 598.5 c 128,-1,40
 468 589 468 589 465 572 c 128,-1,41
 462 555 462 555 462 523 c 2,42,-1
 462 122 l 2,0,1
300 31 m 0,43,44
 346 31 346 31 361 49 c 128,-1,45
 376 67 376 67 376 98 c 2,46,-1
 376 343 l 1,47,48
 344 346 344 346 316 346 c 0,49,50
 221 346 221 346 178.5 309 c 128,-1,51
 136 272 136 272 136 193 c 0,52,53
 136 31 136 31 300 31 c 0,43,44
EndSplineSet
Validated: 1
EndChar

StartChar: anto
Encoding: 57356 57356 22
Width: 676
GlyphClass: 2
Flags: W
AnchorPoint: "Anchor-1" 370 750 basechar 0
AnchorPoint: "Anchor-0" 370 -100 basechar 0
LayerCount: 2
Fore
SplineSet
187 0 m 2,0,1
 135 0 135 0 57 -2 c 1,2,3
 52 2 52 2 52 14 c 128,-1,4
 52 26 52 26 57 31 c 1,5,6
 87 32 87 32 100.5 34.5 c 128,-1,7
 114 37 114 37 125.5 46.5 c 128,-1,8
 137 56 137 56 140.5 73 c 128,-1,9
 144 90 144 90 144 122 c 2,10,-1
 144 523 l 2,11,12
 144 555 144 555 140.5 572 c 128,-1,13
 137 589 137 589 125.5 598.5 c 128,-1,14
 114 608 114 608 100.5 610.5 c 128,-1,15
 87 613 87 613 57 614 c 0,16,17
 52 618 52 618 52 630 c 128,-1,18
 52 642 52 642 57 647 c 1,19,20
 149 645 149 645 186 645 c 0,21,22
 226 645 226 645 316 647 c 1,23,24
 320 642 320 642 320 630 c 128,-1,25
 320 618 320 618 316 614 c 0,26,27
 286 613 286 613 272 610.5 c 128,-1,28
 258 608 258 608 246.5 598.5 c 128,-1,29
 235 589 235 589 232 572 c 128,-1,30
 229 555 229 555 229 523 c 2,31,-1
 229 109 l 2,32,33
 229 71 229 71 242.5 55 c 128,-1,34
 256 39 256 39 286 39 c 2,35,-1
 349 39 l 2,36,37
 422 39 422 39 458 73.5 c 128,-1,38
 494 108 494 108 512 170 c 1,39,40
 529 173 529 173 545 165 c 1,41,42
 535 78 535 78 519 -2 c 1,43,44
 427 0 427 0 400 0 c 2,45,-1
 187 0 l 2,0,1
208 350 m 1,46,47
 265 371 265 371 288 389 c 1,48,-1
 452 565 l 2,49,50
 468 581 468 581 471.5 591.5 c 128,-1,51
 475 602 475 602 467 607 c 128,-1,52
 459 612 459 612 450.5 614 c 128,-1,53
 442 616 442 616 424 617 c 1,54,55
 420 622 420 622 420 634 c 128,-1,56
 420 646 420 646 424 650 c 1,57,58
 498 648 498 648 538 648 c 0,59,60
 570 648 570 648 632 650 c 1,61,62
 637 646 637 646 637 634 c 128,-1,63
 637 622 637 622 632 617 c 1,64,65
 607 615 607 615 591.5 612 c 128,-1,66
 576 609 576 609 552 596.5 c 128,-1,67
 528 584 528 584 506 561 c 2,68,-1
 360 410 l 2,69,70
 350 401 350 401 342 393 c 128,-1,71
 334 385 334 385 324.5 377.5 c 128,-1,72
 315 370 315 370 309 365.5 c 128,-1,73
 303 361 303 361 292.5 354.5 c 128,-1,74
 282 348 282 348 278 345.5 c 128,-1,75
 274 343 274 343 261.5 337 c 128,-1,76
 249 331 249 331 246 329.5 c 128,-1,77
 243 328 243 328 227.5 321 c 128,-1,78
 212 314 212 314 208 312 c 1,79,-1
 208 350 l 1,46,47
EndSplineSet
Validated: 37
EndChar

StartChar: ampa
Encoding: 57357 57357 23
Width: 674
GlyphClass: 2
Flags: W
AnchorPoint: "Anchor-1" 366 750 basechar 0
AnchorPoint: "Anchor-0" 366 -100 basechar 0
LayerCount: 2
Fore
SplineSet
235 520 m 2,0,-1
 235 351 l 1,1,2
 293 351 293 351 316.5 360 c 128,-1,3
 340 369 340 369 352 389 c 2,4,-1
 459 563 l 2,5,6
 514 652 514 652 591 652 c 0,7,8
 619 652 619 652 633 645 c 1,9,10
 639 635 639 635 632 621 c 1,11,12
 601 621 601 621 580 601.5 c 128,-1,13
 559 582 559 582 536 544 c 2,14,-1
 410 334 l 1,15,16
 456 319 456 319 499.5 275.5 c 128,-1,17
 543 232 543 232 543 163 c 0,18,19
 543 88 543 88 490 38 c 0,20,21
 458 8 458 8 417 -1 c 128,-1,22
 376 -10 376 -10 317 -10 c 0,23,24
 292 -10 292 -10 250.5 -6.5 c 128,-1,25
 209 -3 209 -3 192 -3 c 0,26,27
 157 -3 157 -3 63 -5 c 1,28,29
 58 0 58 0 58 12 c 128,-1,30
 58 24 58 24 63 28 c 0,31,32
 119 30 119 30 134.5 44.5 c 128,-1,33
 150 59 150 59 150 119 c 2,34,-1
 150 520 l 2,35,36
 150 580 150 580 134.5 594.5 c 128,-1,37
 119 609 119 609 63 611 c 1,38,39
 58 616 58 616 58 628 c 128,-1,40
 58 640 58 640 63 644 c 1,41,42
 153 642 153 642 193 642 c 0,43,44
 234 642 234 642 322 644 c 1,45,46
 326 640 326 640 326 628 c 128,-1,47
 326 616 326 616 322 611 c 1,48,49
 266 609 266 609 250.5 594.5 c 128,-1,50
 235 580 235 580 235 520 c 2,0,-1
318 24 m 0,51,52
 451 24 451 24 451 164 c 0,53,54
 451 251 451 251 407.5 284 c 128,-1,55
 364 317 364 317 283 317 c 2,56,-1
 235 317 l 1,57,-1
 235 88 l 2,58,59
 235 24 235 24 318 24 c 0,51,52
EndSplineSet
Validated: 1
EndChar

StartChar: anca
Encoding: 57358 57358 24
Width: 674
GlyphClass: 2
Flags: W
AnchorPoint: "Anchor-1" 348 750 basechar 0
AnchorPoint: "Anchor-0" 348 -100 basechar 0
LayerCount: 2
Fore
SplineSet
478 0 m 2,0,-1
 266 0 l 2,1,2
 254 0 254 0 224 -0.5 c 128,-1,3
 194 -1 194 -1 170 -2 c 2,4,-1
 146 -2 l 1,5,6
 131 78 131 78 120 165 c 1,7,8
 136 173 136 173 154 170 c 1,9,10
 171 108 171 108 207 73.5 c 128,-1,11
 243 39 243 39 316 39 c 2,12,-1
 380 39 l 2,13,14
 409 39 409 39 422.5 55 c 128,-1,15
 436 71 436 71 436 109 c 2,16,-1
 436 523 l 2,17,18
 436 555 436 555 433 572 c 128,-1,19
 430 589 430 589 418.5 598.5 c 128,-1,20
 407 608 407 608 393 610.5 c 128,-1,21
 379 613 379 613 350 614 c 0,22,23
 345 618 345 618 345 630 c 128,-1,24
 345 642 345 642 350 647 c 1,25,26
 440 645 440 645 480 645 c 0,27,28
 516 645 516 645 608 647 c 1,29,30
 613 642 613 642 613 630 c 128,-1,31
 613 618 613 618 608 614 c 0,32,33
 579 613 579 613 565 610.5 c 128,-1,34
 551 608 551 608 539.5 598.5 c 128,-1,35
 528 589 528 589 525 572 c 128,-1,36
 522 555 522 555 522 523 c 2,37,-1
 522 122 l 2,38,39
 522 90 522 90 525 73 c 128,-1,40
 528 56 528 56 539.5 46.5 c 128,-1,41
 551 37 551 37 565 34.5 c 128,-1,42
 579 32 579 32 608 31 c 1,43,44
 613 26 613 26 613 14 c 128,-1,45
 613 2 613 2 608 -2 c 1,46,47
 530 0 530 0 478 0 c 2,0,-1
490 281 m 1,48,49
 447 277 447 277 416.5 288.5 c 128,-1,50
 386 300 386 300 361 331 c 0,51,52
 328 370 328 370 273.5 430 c 128,-1,53
 219 490 219 490 180 530 c 2,54,-1
 142 571 l 2,55,56
 127 588 127 588 110.5 597.5 c 128,-1,57
 94 607 94 607 83.5 609 c 128,-1,58
 73 611 73 611 54 613 c 0,59,60
 49 617 49 617 49 629 c 128,-1,61
 49 641 49 641 54 646 c 1,62,63
 120 644 120 644 155 644 c 0,64,65
 169 644 169 644 209 646 c 0,66,67
 214 646 214 646 214 640 c 0,68,69
 217 613 217 613 250 571 c 2,70,-1
 407 373 l 2,71,72
 435 337 435 337 490 335 c 1,73,-1
 490 281 l 1,48,49
EndSplineSet
Validated: 37
EndChar

StartChar: unque
Encoding: 57359 57359 25
Width: 657
GlyphClass: 2
Flags: W
AnchorPoint: "Anchor-1" 348 750 basechar 0
AnchorPoint: "Anchor-0" 348 -100 basechar 0
LayerCount: 2
Fore
SplineSet
441 520 m 2,0,1
 441 552 441 552 438 569 c 128,-1,2
 435 586 435 586 423.5 595.5 c 128,-1,3
 412 605 412 605 398 607.5 c 128,-1,4
 384 610 384 610 354 611 c 1,5,6
 350 616 350 616 350 628 c 128,-1,7
 350 640 350 640 354 644 c 1,8,9
 442 642 442 642 483 642 c 0,10,11
 523 642 523 642 613 644 c 1,12,13
 618 640 618 640 618 628 c 128,-1,14
 618 616 618 616 613 611 c 1,15,16
 583 610 583 610 569 607.5 c 128,-1,17
 555 605 555 605 543.5 595.5 c 128,-1,18
 532 586 532 586 529 569 c 128,-1,19
 526 552 526 552 526 520 c 2,20,-1
 526 119 l 2,21,22
 526 87 526 87 529 70 c 128,-1,23
 532 53 532 53 543.5 43.5 c 128,-1,24
 555 34 555 34 569 31.5 c 128,-1,25
 583 29 583 29 613 28 c 0,26,27
 618 24 618 24 618 12 c 128,-1,28
 618 0 618 0 613 -5 c 1,29,30
 519 -3 519 -3 484 -3 c 0,31,32
 467 -3 467 -3 425.5 -6.5 c 128,-1,33
 384 -10 384 -10 359 -10 c 0,34,35
 300 -10 300 -10 259 -1 c 128,-1,36
 218 8 218 8 186 38 c 0,37,38
 133 88 133 88 133 163 c 0,39,40
 133 200 133 200 147.5 231.5 c 128,-1,41
 162 263 162 263 184 283 c 128,-1,42
 206 303 206 303 226.5 315.5 c 128,-1,43
 247 328 247 328 266 334 c 1,44,-1
 140 544 l 2,45,46
 117 582 117 582 96 601.5 c 128,-1,47
 75 621 75 621 44 621 c 1,48,49
 37 635 37 635 43 645 c 1,50,51
 57 652 57 652 85 652 c 0,52,53
 162 652 162 652 217 563 c 2,54,-1
 324 389 l 2,55,56
 336 369 336 369 359.5 360 c 128,-1,57
 383 351 383 351 441 351 c 1,58,-1
 441 520 l 2,0,1
358 24 m 0,59,60
 441 24 441 24 441 88 c 2,61,-1
 441 317 l 1,62,-1
 393 317 l 2,63,64
 312 317 312 317 268.5 284 c 128,-1,65
 225 251 225 251 225 164 c 0,66,67
 225 24 225 24 358 24 c 0,59,60
EndSplineSet
Validated: 1
EndChar

StartChar: nuumen
Encoding: 57360 57360 26
Width: 887
GlyphClass: 2
Flags: W
AnchorPoint: "Anchor-1" 447 750 basechar 0
AnchorPoint: "Anchor-0" 447 -100 basechar 0
LayerCount: 2
Fore
SplineSet
690 116 m 2,0,-1
 664 534 l 1,1,-1
 662 534 l 1,2,-1
 437 5 l 2,3,4
 429 -10 429 -10 423 -10 c 0,5,6
 414 -10 414 -10 408 5 c 2,7,-1
 201 524 l 1,8,-1
 199 524 l 1,9,-1
 161 123 l 2,10,11
 157 76 157 76 169 55 c 128,-1,12
 181 34 181 34 227 31 c 1,13,14
 231 26 231 26 231 14 c 128,-1,15
 231 2 231 2 227 -2 c 1,16,17
 167 0 167 0 133 0 c 0,18,19
 107 0 107 0 47 -2 c 1,20,21
 43 2 43 2 43 14 c 128,-1,22
 43 26 43 26 47 31 c 1,23,24
 88 35 88 35 102.5 54 c 128,-1,25
 117 73 117 73 122 121 c 2,26,-1
 162 533 l 2,27,28
 167 588 167 588 157 599.5 c 128,-1,29
 147 611 147 611 94 614 c 0,30,31
 89 618 89 618 89 630 c 128,-1,32
 89 642 89 642 94 647 c 1,33,-1
 239 645 l 1,34,-1
 444 137 l 2,35,36
 449 124 449 124 452 124 c 128,-1,37
 455 124 455 124 461 138 c 2,38,-1
 673 645 l 1,39,-1
 804 647 l 1,40,41
 809 642 809 642 809 630 c 128,-1,42
 809 618 809 618 804 614 c 0,43,44
 755 611 755 611 743.5 597.5 c 128,-1,45
 732 584 732 584 735 542 c 2,46,-1
 765 121 l 2,47,48
 770 59 770 59 780.5 46 c 128,-1,49
 791 33 791 33 842 31 c 1,50,51
 847 26 847 26 847 14 c 128,-1,52
 847 2 847 2 842 -2 c 1,53,54
 776 0 776 0 733 0 c 0,55,56
 700 0 700 0 626 -2 c 1,57,58
 621 2 621 2 621 14 c 128,-1,59
 621 26 621 26 626 31 c 1,60,61
 676 33 676 33 685 44.5 c 128,-1,62
 694 56 694 56 690 116 c 2,0,-1
EndSplineSet
Validated: 33
EndChar

StartChar: malta
Encoding: 57361 57361 27
Width: 1044
GlyphClass: 2
Flags: W
AnchorPoint: "Anchor-1" 522 750 basechar 0
AnchorPoint: "Anchor-0" 522 -100 basechar 0
LayerCount: 2
Fore
SplineSet
852 0 m 2,0,-1
 181 0 l 2,1,2
 129 0 129 0 51 -2 c 1,3,4
 46 2 46 2 46 14 c 128,-1,5
 46 26 46 26 51 31 c 1,6,7
 107 33 107 33 122.5 47.5 c 128,-1,8
 138 62 138 62 138 122 c 2,9,-1
 138 523 l 2,10,11
 138 583 138 583 122.5 597.5 c 128,-1,12
 107 612 107 612 51 614 c 0,13,14
 46 618 46 618 46 630 c 128,-1,15
 46 642 46 642 51 647 c 1,16,17
 131 645 131 645 180 645 c 0,18,19
 232 645 232 645 310 647 c 1,20,21
 314 642 314 642 314 630 c 128,-1,22
 314 618 314 618 310 614 c 0,23,24
 254 612 254 612 238.5 597.5 c 128,-1,25
 223 583 223 583 223 523 c 2,26,-1
 223 122 l 2,27,28
 223 65 223 65 235 51 c 128,-1,29
 247 37 247 37 282 37 c 2,30,-1
 421 37 l 2,31,32
 452 37 452 37 462 50.5 c 128,-1,33
 472 64 472 64 472 122 c 2,34,-1
 472 523 l 2,35,36
 472 583 472 583 456.5 597.5 c 128,-1,37
 441 612 441 612 385 614 c 0,38,39
 380 618 380 618 380 630 c 128,-1,40
 380 642 380 642 385 647 c 1,41,42
 465 645 465 645 514 645 c 0,43,44
 566 645 566 645 644 647 c 1,45,46
 648 642 648 642 648 630 c 128,-1,47
 648 618 648 618 644 614 c 0,48,49
 588 612 588 612 572.5 597.5 c 128,-1,50
 557 583 557 583 557 523 c 2,51,-1
 557 122 l 2,52,53
 557 65 557 65 568.5 51 c 128,-1,54
 580 37 580 37 612 37 c 2,55,-1
 741 37 l 2,56,57
 786 37 786 37 798 50 c 128,-1,58
 810 63 810 63 810 122 c 2,59,-1
 810 523 l 2,60,61
 810 583 810 583 794.5 597.5 c 128,-1,62
 779 612 779 612 723 614 c 0,63,64
 718 618 718 618 718 630 c 128,-1,65
 718 642 718 642 723 647 c 1,66,67
 801 645 801 645 853 645 c 0,68,69
 902 645 902 645 982 647 c 1,70,71
 986 642 986 642 986 630 c 128,-1,72
 986 618 986 618 982 614 c 0,73,74
 926 612 926 612 910.5 597.5 c 128,-1,75
 895 583 895 583 895 523 c 2,76,-1
 895 122 l 2,77,78
 895 62 895 62 910.5 47.5 c 128,-1,79
 926 33 926 33 982 31 c 1,80,81
 986 26 986 26 986 14 c 128,-1,82
 986 2 986 2 982 -2 c 1,83,84
 904 0 904 0 852 0 c 2,0,-1
EndSplineSet
Validated: 1
EndChar

StartChar: noldo
Encoding: 57362 57362 28
Width: 720
GlyphClass: 2
Flags: W
AnchorPoint: "Anchor-1" 351 750 basechar 0
AnchorPoint: "Anchor-0" 351 -100 basechar 0
LayerCount: 2
Fore
SplineSet
453 117 m 1,0,-1
 450 69 l 1,1,-1
 547 69 l 1,2,-1
 561 69 l 2,3,4
 584 68 584 68 594 70 c 128,-1,5
 604 72 604 72 612.5 83 c 128,-1,6
 621 94 621 94 623 119 c 1,7,8
 638 125 638 125 649 119 c 1,9,10
 649 60 649 60 642 0 c 1,11,-1
 434 0 l 2,12,13
 417 0 417 0 417 14 c 2,14,-1
 425 143 l 1,15,16
 494 183 494 183 525.5 239.5 c 128,-1,17
 557 296 557 296 557 377 c 0,18,19
 557 485 557 485 500 554.5 c 128,-1,20
 443 624 443 624 347 624 c 0,21,22
 248 624 248 624 193 552.5 c 128,-1,23
 138 481 138 481 138 378 c 0,24,25
 138 296 138 296 168 243.5 c 128,-1,26
 198 191 198 191 269 143 c 1,27,-1
 277 15 l 2,28,29
 277 0 277 0 260 0 c 2,30,-1
 47 0 l 1,31,32
 40 53 40 53 40 119 c 1,33,34
 53 125 53 125 65 119 c 1,35,36
 68 84 68 84 81.5 76.5 c 128,-1,37
 95 69 95 69 134 69 c 2,38,-1
 142 69 l 1,39,-1
 245 69 l 1,40,-1
 241 117 l 1,41,42
 156 146 156 146 101 215.5 c 128,-1,43
 46 285 46 285 46 377 c 0,44,45
 46 446 46 446 79 508.5 c 128,-1,46
 112 571 112 571 182.5 614.5 c 128,-1,47
 253 658 253 658 347 658 c 0,48,49
 489 658 489 658 568.5 576.5 c 128,-1,50
 648 495 648 495 648 377 c 0,51,52
 648 289 648 289 593 217 c 128,-1,53
 538 145 538 145 453 117 c 1,0,-1
EndSplineSet
Validated: 33
EndChar

StartChar: nwalme
Encoding: 57363 57363 29
Width: 720
GlyphClass: 2
Flags: W
AnchorPoint: "Anchor-1" 352 750 basechar 0
AnchorPoint: "Anchor-0" 352 -100 basechar 0
LayerCount: 2
Fore
SplineSet
454 117 m 1,0,-1
 451 69 l 1,1,-1
 548 69 l 1,2,-1
 562 69 l 2,3,4
 585 68 585 68 595 70 c 128,-1,5
 605 72 605 72 613.5 83 c 128,-1,6
 622 94 622 94 624 119 c 1,7,8
 639 125 639 125 650 119 c 1,9,10
 650 60 650 60 643 0 c 1,11,-1
 435 0 l 2,12,13
 418 0 418 0 418 14 c 2,14,-1
 426 143 l 1,15,16
 495 183 495 183 526.5 239.5 c 128,-1,17
 558 296 558 296 558 377 c 0,18,19
 558 485 558 485 501 554.5 c 128,-1,20
 444 624 444 624 348 624 c 0,21,22
 249 624 249 624 194 552.5 c 128,-1,23
 139 481 139 481 139 378 c 0,24,25
 139 296 139 296 169 243.5 c 128,-1,26
 199 191 199 191 270 143 c 1,27,-1
 278 15 l 2,28,29
 278 0 278 0 261 0 c 2,30,-1
 48 0 l 1,31,32
 41 53 41 53 41 119 c 1,33,34
 54 125 54 125 66 119 c 1,35,36
 69 84 69 84 82.5 76.5 c 128,-1,37
 96 69 96 69 135 69 c 2,38,-1
 143 69 l 1,39,-1
 246 69 l 1,40,-1
 242 117 l 1,41,42
 157 146 157 146 102 215.5 c 128,-1,43
 47 285 47 285 47 377 c 0,44,45
 47 446 47 446 80 508.5 c 128,-1,46
 113 571 113 571 183.5 614.5 c 128,-1,47
 254 658 254 658 348 658 c 0,48,49
 490 658 490 658 569.5 576.5 c 128,-1,50
 649 495 649 495 649 377 c 0,51,52
 649 289 649 289 594 217 c 128,-1,53
 539 145 539 145 454 117 c 1,0,-1
316 403 m 2,54,-1
 376 403 l 2,55,56
 418 403 418 403 437 409.5 c 128,-1,57
 456 416 456 416 460.5 426 c 128,-1,58
 465 436 465 436 466 461 c 1,59,60
 471 466 471 466 483 466 c 128,-1,61
 495 466 495 466 500 461 c 1,62,63
 498 401 498 401 498 377 c 0,64,65
 498 359 498 359 500 289 c 1,66,67
 495 285 495 285 483 285 c 128,-1,68
 471 285 471 285 466 289 c 1,69,70
 465 305 465 305 462.5 313 c 128,-1,71
 460 321 460 321 452 330.5 c 128,-1,72
 444 340 444 340 425 343.5 c 128,-1,73
 406 347 406 347 376 347 c 2,74,-1
 316 347 l 2,75,76
 273 347 273 347 254 341 c 128,-1,77
 235 335 235 335 230.5 324.5 c 128,-1,78
 226 314 226 314 224 289 c 0,79,80
 220 285 220 285 208 285 c 128,-1,81
 196 285 196 285 192 289 c 1,82,83
 194 349 194 349 194 373 c 0,84,85
 194 391 194 391 192 461 c 1,86,87
 196 466 196 466 208 466 c 128,-1,88
 220 466 220 466 224 461 c 0,89,90
 226 445 226 445 228.5 437.5 c 128,-1,91
 231 430 231 430 239 420.5 c 128,-1,92
 247 411 247 411 266 407 c 128,-1,93
 285 403 285 403 316 403 c 2,54,-1
EndSplineSet
Validated: 33
EndChar

StartChar: oore
Encoding: 57364 57364 30
Width: 738
GlyphClass: 2
Flags: W
AnchorPoint: "Anchor-1" 364 750 basechar 0
AnchorPoint: "Anchor-0" 364 -100 basechar 0
LayerCount: 2
Fore
SplineSet
570 512 m 2,0,1
 570 547 570 547 567 565.5 c 128,-1,2
 564 584 564 584 552 594.5 c 128,-1,3
 540 605 540 605 527 608 c 128,-1,4
 514 611 514 611 483 614 c 0,5,6
 478 618 478 618 478 630 c 128,-1,7
 478 642 478 642 483 647 c 1,8,9
 571 645 571 645 594 645 c 0,10,11
 624 645 624 645 706 647 c 1,12,13
 710 642 710 642 710 630 c 128,-1,14
 710 618 710 618 706 614 c 0,15,16
 650 608 650 608 634.5 592 c 128,-1,17
 619 576 619 576 619 512 c 2,18,-1
 619 21 l 2,19,20
 619 -10 619 -10 596 -10 c 0,21,22
 574 -10 574 -10 556 14 c 2,23,-1
 207 455 l 2,24,25
 182 488 182 488 173 488 c 0,26,27
 165 488 165 488 165 439 c 2,28,-1
 165 133 l 2,29,30
 165 98 165 98 168 79.5 c 128,-1,31
 171 61 171 61 183 50.5 c 128,-1,32
 195 40 195 40 208 37 c 128,-1,33
 221 34 221 34 252 31 c 1,34,35
 256 26 256 26 256 14 c 128,-1,36
 256 2 256 2 252 -2 c 1,37,38
 168 0 168 0 141 0 c 0,39,40
 115 0 115 0 29 -2 c 1,41,42
 24 2 24 2 24 14 c 128,-1,43
 24 26 24 26 29 31 c 1,44,45
 85 37 85 37 100.5 53 c 128,-1,46
 116 69 116 69 116 133 c 2,47,-1
 116 550 l 1,48,49
 111 572 111 572 89 592 c 128,-1,50
 67 612 67 612 37 614 c 0,51,52
 32 618 32 618 32 630 c 128,-1,53
 32 642 32 642 37 647 c 1,54,-1
 172 645 l 1,55,-1
 515 210 l 2,56,57
 558 155 558 155 563 155 c 0,58,59
 570 155 570 155 570 185 c 2,60,-1
 570 512 l 2,0,1
EndSplineSet
Validated: 1
EndChar

StartChar: vala
Encoding: 57365 57365 31
Width: 728
GlyphClass: 2
Flags: W
AnchorPoint: "Anchor-1" 370 750 basechar 0
AnchorPoint: "Anchor-0" 370 -100 basechar 0
LayerCount: 2
Fore
SplineSet
176 1 m 2,0,1
 147 1 147 1 47 -1 c 1,2,3
 42 4 42 4 42 16 c 128,-1,4
 42 28 42 28 47 32 c 0,5,6
 103 34 103 34 118.5 48.5 c 128,-1,7
 134 63 134 63 134 123 c 2,8,-1
 134 524 l 2,9,10
 134 584 134 584 118.5 598.5 c 128,-1,11
 103 613 103 613 47 615 c 1,12,13
 42 620 42 620 42 632 c 128,-1,14
 42 644 42 644 47 648 c 1,15,16
 123 646 123 646 177 646 c 0,17,18
 230 646 230 646 306 648 c 1,19,20
 310 644 310 644 310 632 c 128,-1,21
 310 620 310 620 306 615 c 1,22,23
 250 613 250 613 234.5 598.5 c 128,-1,24
 219 584 219 584 219 524 c 2,25,-1
 219 115 l 2,26,27
 219 41 219 41 265 41 c 2,28,-1
 462 41 l 2,29,30
 508 41 508 41 508 115 c 2,31,-1
 508 524 l 2,32,33
 508 584 508 584 492.5 598.5 c 128,-1,34
 477 613 477 613 421 615 c 1,35,36
 416 620 416 620 416 632 c 128,-1,37
 416 644 416 644 421 648 c 1,38,39
 501 646 501 646 550 646 c 0,40,41
 602 646 602 646 680 648 c 1,42,43
 684 644 684 644 684 632 c 128,-1,44
 684 620 684 620 680 615 c 1,45,46
 624 613 624 613 608.5 598.5 c 128,-1,47
 593 584 593 584 593 524 c 2,48,-1
 593 123 l 2,49,50
 593 63 593 63 608.5 48.5 c 128,-1,51
 624 34 624 34 680 32 c 0,52,53
 684 28 684 28 684 16 c 128,-1,54
 684 4 684 4 680 -1 c 1,55,56
 580 1 580 1 551 1 c 2,57,-1
 176 1 l 2,0,1
EndSplineSet
Validated: 1
EndChar

StartChar: anna
Encoding: 57366 57366 32
Width: 725
GlyphClass: 2
Flags: W
AnchorPoint: "Anchor-1" 386 750 basechar 0
AnchorPoint: "Anchor-0" 356 -100 basechar 0
LayerCount: 2
Fore
SplineSet
484 614 m 0,0,1
 480 618 480 618 480 630 c 128,-1,2
 480 642 480 642 484 647 c 1,3,4
 566 645 566 645 593 645 c 0,5,6
 621 645 621 645 681 647 c 1,7,8
 686 642 686 642 686 630 c 128,-1,9
 686 618 686 618 681 614 c 0,10,11
 651 611 651 611 631 596 c 128,-1,12
 611 581 611 581 603 566 c 128,-1,13
 595 551 595 551 583 521 c 2,14,-1
 376 11 l 2,15,16
 366 -12 366 -12 352 -12 c 128,-1,17
 338 -12 338 -12 329 11 c 2,18,-1
 132 523 l 2,19,20
 110 578 110 578 95.5 594 c 128,-1,21
 81 610 81 610 42 614 c 1,22,23
 37 619 37 619 37 630.5 c 128,-1,24
 37 642 37 642 41 647 c 1,25,26
 107 645 107 645 145 645 c 0,27,28
 186 645 186 645 266 647 c 1,29,30
 270 642 270 642 270 630 c 128,-1,31
 270 618 270 618 266 614 c 0,32,33
 216 609 216 609 206.5 594 c 128,-1,34
 197 579 197 579 215 534 c 2,35,-1
 375 127 l 1,36,-1
 379 127 l 1,37,-1
 537 528 l 2,38,39
 556 568 556 568 546 589 c 128,-1,40
 536 610 536 610 484 614 c 0,0,1
EndSplineSet
Validated: 33
EndChar

StartChar: wilya
Encoding: 57367 57367 33
Width: 754
GlyphClass: 2
Flags: W
AnchorPoint: "Anchor-1" 382 750 basechar 0
AnchorPoint: "Anchor-0" 352 -100 basechar 0
LayerCount: 2
Fore
SplineSet
569 577 m 2,0,1
 572 584 572 584 572.5 590.5 c 128,-1,2
 573 597 573 597 570.5 601.5 c 128,-1,3
 568 606 568 606 564.5 609.5 c 128,-1,4
 561 613 561 613 554.5 615.5 c 128,-1,5
 548 618 548 618 543 619.5 c 128,-1,6
 538 621 538 621 529 622 c 128,-1,7
 520 623 520 623 514.5 623.5 c 128,-1,8
 509 624 509 624 500 625 c 1,9,10
 496 630 496 630 496 642 c 128,-1,11
 496 654 496 654 500 658 c 1,12,13
 574 656 574 656 628 656 c 0,14,15
 665 656 665 656 717 658 c 1,16,17
 722 654 722 654 722 642 c 128,-1,18
 722 630 722 630 717 625 c 1,19,20
 691 623 691 623 676.5 619 c 128,-1,21
 662 615 662 615 645.5 599.5 c 128,-1,22
 629 584 629 584 617 554 c 2,23,-1
 390 18 l 1,24,25
 368 18 368 18 335 -2 c 1,26,-1
 129 570 l 2,27,28
 121 593 121 593 105.5 605 c 128,-1,29
 90 617 90 617 77 620 c 128,-1,30
 64 623 64 623 39 625 c 1,31,32
 34 630 34 630 34 642 c 128,-1,33
 34 654 34 654 39 658 c 1,34,35
 109 656 109 656 153 656 c 0,36,37
 210 656 210 656 284 658 c 1,38,39
 288 654 288 654 288 642 c 128,-1,40
 288 630 288 630 284 625 c 1,41,42
 273 624 273 624 266.5 623.5 c 128,-1,43
 260 623 260 623 250.5 622 c 128,-1,44
 241 621 241 621 236 620 c 128,-1,45
 231 619 231 619 224.5 616.5 c 128,-1,46
 218 614 218 614 215 611.5 c 128,-1,47
 212 609 212 609 209.5 605 c 128,-1,48
 207 601 207 601 207.5 595.5 c 128,-1,49
 208 590 208 590 210 584 c 2,50,-1
 268 415 l 1,51,-1
 479 415 l 2,52,53
 497 415 497 415 503.5 418.5 c 128,-1,54
 510 422 510 422 514 432 c 2,55,-1
 569 577 l 2,0,1
461 373 m 2,56,-1
 284 373 l 1,57,-1
 378 101 l 1,58,-1
 384 101 l 1,59,-1
 486 360 l 2,60,61
 489 367 489 367 483.5 370 c 128,-1,62
 478 373 478 373 461 373 c 2,56,-1
EndSplineSet
Validated: 1
EndChar

StartChar: tinco_ext
Encoding: 57368 57368 34
Width: 478
GlyphClass: 2
Flags: W
AnchorPoint: "Anchor-1" 237 750 basechar 0
AnchorPoint: "Anchor-0" 237 -100 basechar 0
LayerCount: 2
Fore
SplineSet
199 574 m 2,0,-1
 199 366 l 1,1,-1
 340 366 l 2,2,3
 365 366 365 366 375 376.5 c 128,-1,4
 385 387 385 387 390 410 c 2,5,-1
 397 440 l 2,6,7
 397 448 397 448 404 448 c 2,8,-1
 440 448 l 2,9,10
 444 448 444 448 444 444 c 0,11,12
 436 359 436 359 436 349 c 0,13,14
 436 317 436 317 444 253 c 1,15,-1
 441 250 l 1,16,-1
 404 250 l 2,17,18
 396 250 396 250 396 257 c 2,19,-1
 390 288 l 2,20,21
 382 332 382 332 340 332 c 2,22,-1
 199 332 l 1,23,-1
 199 72 l 2,24,25
 199 49 199 49 211.5 38.5 c 128,-1,26
 224 28 224 28 254 28 c 2,27,-1
 280 28 l 2,28,29
 288 28 288 28 288 20 c 2,30,-1
 288 1 l 1,31,-1
 287 -1 l 1,32,33
 200 1 200 1 161 1 c 2,34,-1
 32 -1 l 1,35,-1
 30 1 l 1,36,-1
 30 20 l 2,37,38
 30 28 30 28 38 28 c 2,39,-1
 64 28 l 2,40,41
 119 28 119 28 119 72 c 2,42,-1
 119 574 l 2,43,44
 119 618 119 618 64 618 c 2,45,-1
 38 618 l 2,46,47
 29 618 29 618 29 626 c 2,48,-1
 29 645 l 1,49,-1
 31 646 l 1,50,51
 118 645 118 645 157 645 c 2,52,-1
 286 646 l 1,53,-1
 288 645 l 1,54,-1
 288 626 l 2,55,56
 288 618 288 618 280 618 c 2,57,-1
 254 618 l 2,58,59
 199 618 199 618 199 574 c 2,0,-1
EndSplineSet
Validated: 1
EndChar

StartChar: parma_ext
Encoding: 57369 57369 35
Width: 542
GlyphClass: 2
Flags: W
AnchorPoint: "Anchor-1" 241 750 basechar 0
AnchorPoint: "Anchor-0" 241 -100 basechar 0
LayerCount: 2
Fore
SplineSet
204 122 m 2,0,1
 204 62 204 62 219.5 47.5 c 128,-1,2
 235 33 235 33 291 31 c 1,3,4
 295 26 295 26 295 14 c 128,-1,5
 295 2 295 2 291 -2 c 1,6,7
 191 0 191 0 162 0 c 0,8,9
 130 0 130 0 32 -2 c 1,10,11
 27 2 27 2 27 14 c 128,-1,12
 27 26 27 26 32 31 c 1,13,14
 88 33 88 33 103.5 47.5 c 128,-1,15
 119 62 119 62 119 122 c 2,16,-1
 119 523 l 2,17,18
 119 583 119 583 103.5 597.5 c 128,-1,19
 88 612 88 612 32 614 c 0,20,21
 27 618 27 618 27 630 c 128,-1,22
 27 642 27 642 32 647 c 1,23,24
 132 645 132 645 161 645 c 0,25,26
 193 645 193 645 291 647 c 1,27,28
 295 642 295 642 295 630 c 128,-1,29
 295 618 295 618 291 614 c 0,30,31
 235 612 235 612 219.5 597.5 c 128,-1,32
 204 583 204 583 204 523 c 2,33,-1
 204 519 l 1,34,35
 276 523 276 523 294 523 c 0,36,37
 360 523 360 523 406 505.5 c 128,-1,38
 452 488 452 488 474 459 c 128,-1,39
 496 430 496 430 505 402 c 128,-1,40
 514 374 514 374 514 343 c 128,-1,41
 514 312 514 312 502 280.5 c 128,-1,42
 490 249 490 249 464.5 218.5 c 128,-1,43
 439 188 439 188 391 169 c 128,-1,44
 343 150 343 150 280 150 c 0,45,46
 231 150 231 150 204 159 c 1,47,-1
 204 122 l 2,0,1
204 479 m 1,48,-1
 204 188 l 1,49,50
 219 183 219 183 275 183 c 0,51,52
 421 183 421 183 421 343 c 0,53,54
 421 425 421 425 384 457.5 c 128,-1,55
 347 490 347 490 293 490 c 0,56,57
 243 490 243 490 204 479 c 1,48,-1
EndSplineSet
Validated: 1
EndChar

StartChar: calma_ext
Encoding: 57370 57370 36
Width: 481
GlyphClass: 2
Flags: W
AnchorPoint: "Anchor-1" 244 750 basechar 0
AnchorPoint: "Anchor-0" 244 -100 basechar 0
LayerCount: 2
Fore
SplineSet
281 574 m 2,0,1
 281 618 281 618 226 618 c 2,2,-1
 200 618 l 2,3,4
 192 618 192 618 192 626 c 2,5,-1
 192 645 l 1,6,-1
 194 646 l 1,7,8
 287 645 287 645 323 645 c 2,9,-1
 449 646 l 1,10,-1
 451 645 l 1,11,-1
 451 626 l 2,12,13
 451 618 451 618 442 618 c 2,14,-1
 416 618 l 2,15,16
 361 618 361 618 361 574 c 2,17,-1
 361 72 l 2,18,19
 361 28 361 28 416 28 c 2,20,-1
 442 28 l 2,21,22
 450 28 450 28 450 20 c 2,23,-1
 450 1 l 1,24,-1
 448 -1 l 1,25,26
 355 1 355 1 319 1 c 0,27,28
 302 1 302 1 270.5 0.5 c 128,-1,29
 239 0 239 0 216 0 c 2,30,-1
 193 -1 l 1,31,-1
 192 1 l 1,32,-1
 192 20 l 2,33,34
 192 28 192 28 200 28 c 2,35,-1
 226 28 l 2,36,37
 256 28 256 28 268.5 38.5 c 128,-1,38
 281 49 281 49 281 72 c 2,39,-1
 281 332 l 1,40,-1
 140 332 l 2,41,42
 98 332 98 332 90 288 c 2,43,-1
 84 257 l 2,44,45
 84 250 84 250 76 250 c 2,46,-1
 39 250 l 1,47,-1
 36 253 l 1,48,49
 44 317 44 317 44 349 c 0,50,51
 44 359 44 359 36 444 c 0,52,53
 36 448 36 448 40 448 c 2,54,-1
 76 448 l 2,55,56
 83 448 83 448 83 440 c 2,57,-1
 90 410 l 2,58,59
 95 387 95 387 105 376.5 c 128,-1,60
 115 366 115 366 140 366 c 2,61,-1
 281 366 l 1,62,-1
 281 574 l 2,0,1
EndSplineSet
Validated: 1
EndChar

StartChar: quesse_ext
Encoding: 57371 57371 37
Width: 557
GlyphClass: 2
Flags: W
AnchorPoint: "Anchor-1" 293 750 basechar 0
AnchorPoint: "Anchor-0" 293 -100 basechar 0
LayerCount: 2
Fore
SplineSet
339 523 m 2,0,1
 339 555 339 555 336 572 c 128,-1,2
 333 589 333 589 321.5 598.5 c 128,-1,3
 310 608 310 608 296 610.5 c 128,-1,4
 282 613 282 613 253 614 c 0,5,6
 248 618 248 618 248 630 c 128,-1,7
 248 642 248 642 253 647 c 1,8,9
 353 645 353 645 381 645 c 0,10,11
 413 645 413 645 511 647 c 1,12,13
 516 642 516 642 516 630 c 128,-1,14
 516 618 516 618 511 614 c 0,15,16
 482 613 482 613 468 610.5 c 128,-1,17
 454 608 454 608 442.5 598.5 c 128,-1,18
 431 589 431 589 428 572 c 128,-1,19
 425 555 425 555 425 523 c 2,20,-1
 425 122 l 2,21,22
 425 90 425 90 428 73 c 128,-1,23
 431 56 431 56 442.5 46.5 c 128,-1,24
 454 37 454 37 468 34.5 c 128,-1,25
 482 32 482 32 511 31 c 1,26,27
 516 26 516 26 516 14 c 128,-1,28
 516 2 516 2 511 -2 c 1,29,30
 411 0 411 0 383 0 c 0,31,32
 351 0 351 0 253 -2 c 1,33,34
 248 2 248 2 248 14 c 128,-1,35
 248 26 248 26 253 31 c 1,36,37
 282 32 282 32 296 34.5 c 128,-1,38
 310 37 310 37 321.5 46.5 c 128,-1,39
 333 56 333 56 336 73 c 128,-1,40
 339 90 339 90 339 122 c 2,41,-1
 339 126 l 1,42,43
 267 122 267 122 249 122 c 0,44,45
 196 122 196 122 155.5 134 c 128,-1,46
 115 146 115 146 92 164.5 c 128,-1,47
 69 183 69 183 54 208 c 128,-1,48
 39 233 39 233 34 255.5 c 128,-1,49
 29 278 29 278 29 302 c 128,-1,50
 29 326 29 326 36 351 c 128,-1,51
 43 376 43 376 60.5 402.5 c 128,-1,52
 78 429 78 429 104 449 c 128,-1,53
 130 469 130 469 171 482 c 128,-1,54
 212 495 212 495 263 495 c 0,55,56
 313 495 313 495 339 486 c 1,57,-1
 339 523 l 2,0,1
339 166 m 1,58,-1
 339 457 l 1,59,60
 325 462 325 462 269 462 c 0,61,62
 239 462 239 462 215 455 c 128,-1,63
 191 448 191 448 169 431 c 128,-1,64
 147 414 147 414 135 381 c 128,-1,65
 123 348 123 348 123 302 c 0,66,67
 123 259 123 259 134 228.5 c 128,-1,68
 145 198 145 198 164.5 183 c 128,-1,69
 184 168 184 168 205 161.5 c 128,-1,70
 226 155 226 155 251 155 c 0,71,72
 301 155 301 155 339 166 c 1,58,-1
EndSplineSet
Validated: 1
EndChar

StartChar: ando_ext
Encoding: 57372 57372 38
Width: 702
GlyphClass: 2
Flags: W
AnchorPoint: "Anchor-1" 354 750 basechar 0
AnchorPoint: "Anchor-0" 354 -100 basechar 0
LayerCount: 2
Fore
SplineSet
215 122 m 2,0,1
 215 62 215 62 230.5 47.5 c 128,-1,2
 246 33 246 33 302 31 c 1,3,4
 306 26 306 26 306 14 c 128,-1,5
 306 2 306 2 302 -2 c 1,6,7
 212 0 212 0 173 0 c 0,8,9
 133 0 133 0 43 -2 c 1,10,11
 38 2 38 2 38 14 c 128,-1,12
 38 26 38 26 43 31 c 1,13,14
 99 33 99 33 114.5 47.5 c 128,-1,15
 130 62 130 62 130 122 c 2,16,-1
 130 523 l 2,17,18
 130 583 130 583 114.5 597.5 c 128,-1,19
 99 612 99 612 43 614 c 0,20,21
 38 618 38 618 38 630 c 128,-1,22
 38 642 38 642 43 647 c 1,23,24
 133 645 133 645 172 645 c 0,25,26
 210 645 210 645 302 647 c 1,27,28
 306 642 306 642 306 630 c 128,-1,29
 306 618 306 618 302 614 c 0,30,31
 246 612 246 612 230.5 597.5 c 128,-1,32
 215 583 215 583 215 523 c 2,33,-1
 215 347 l 1,34,35
 262 351 262 351 294 386 c 2,36,-1
 459 562 l 2,37,38
 474 578 474 578 478 588.5 c 128,-1,39
 482 599 482 599 474 604 c 128,-1,40
 466 609 466 609 457 611 c 128,-1,41
 448 613 448 613 431 614 c 0,42,43
 426 618 426 618 426 630 c 128,-1,44
 426 642 426 642 431 647 c 1,45,46
 505 645 505 645 544 645 c 0,47,48
 577 645 577 645 639 647 c 1,49,50
 644 642 644 642 644 630 c 128,-1,51
 644 618 644 618 639 614 c 0,52,53
 613 612 613 612 597.5 609 c 128,-1,54
 582 606 582 606 558.5 593.5 c 128,-1,55
 535 581 535 581 513 558 c 2,56,-1
 366 407 l 2,57,58
 331 371 331 371 331 358 c 0,59,60
 331 348 331 348 344 333 c 2,61,-1
 563 73 l 2,62,63
 577 56 577 56 594 46.5 c 128,-1,64
 611 37 611 37 621.5 35 c 128,-1,65
 632 33 632 33 651 31 c 1,66,67
 656 26 656 26 656 14 c 128,-1,68
 656 2 656 2 651 -2 c 1,69,70
 585 0 585 0 550 0 c 0,71,72
 536 0 536 0 496 -2 c 0,73,74
 491 -2 491 -2 491 4 c 0,75,76
 488 31 488 31 455 73 c 2,77,-1
 298 271 l 2,78,79
 270 307 270 307 215 309 c 1,80,-1
 215 122 l 2,0,1
EndSplineSet
Validated: 1
EndChar

StartChar: umbar_ext
Encoding: 57373 57373 39
Width: 608
GlyphClass: 2
Flags: W
LayerCount: 2
Fore
SplineSet
170 645 m 0,0,1
 188 645 188 645 233 646 c 128,-1,2
 278 647 278 647 295 647 c 0,3,4
 510 647 510 647 510 493 c 0,5,6
 510 454 510 454 482.5 418 c 128,-1,7
 455 382 455 382 415 362 c 1,8,-1
 415 360 l 1,9,10
 485 340 485 340 527 296 c 128,-1,11
 569 252 569 252 569 184 c 0,12,13
 569 149 569 149 557 118 c 128,-1,14
 545 87 545 87 518 59 c 128,-1,15
 491 31 491 31 439.5 14.5 c 128,-1,16
 388 -2 388 -2 317 -2 c 0,17,18
 269 -2 269 -2 226 -1 c 128,-1,19
 183 0 183 0 171 0 c 0,20,21
 119 0 119 0 41 -2 c 1,22,23
 36 2 36 2 36 14 c 128,-1,24
 36 26 36 26 41 31 c 1,25,26
 97 33 97 33 112.5 47.5 c 128,-1,27
 128 62 128 62 128 122 c 2,28,-1
 128 523 l 2,29,30
 128 583 128 583 112.5 597.5 c 128,-1,31
 97 612 97 612 41 614 c 0,32,33
 36 618 36 618 36 630 c 128,-1,34
 36 642 36 642 41 647 c 1,35,36
 119 645 119 645 170 645 c 0,0,1
213 332 m 1,37,-1
 213 118 l 2,38,39
 213 70 213 70 229.5 50.5 c 128,-1,40
 246 31 246 31 296 31 c 0,41,42
 401 31 401 31 438.5 66.5 c 128,-1,43
 476 102 476 102 476 165 c 0,44,45
 476 238 476 238 427.5 285 c 128,-1,46
 379 332 379 332 282 332 c 2,47,-1
 213 332 l 1,37,-1
213 550 m 2,48,-1
 213 366 l 1,49,-1
 287 366 l 2,50,51
 429 366 429 366 429 481 c 0,52,53
 429 550 429 550 390 581.5 c 128,-1,54
 351 613 351 613 300 613 c 0,55,56
 256 613 256 613 238.5 607.5 c 128,-1,57
 221 602 221 602 217 591.5 c 128,-1,58
 213 581 213 581 213 550 c 2,48,-1
EndSplineSet
Validated: 1
EndChar

StartChar: anga_ext
Encoding: 57374 57374 40
Width: 706
GlyphClass: 2
Flags: W
AnchorPoint: "Anchor-1" 358 750 basechar 0
AnchorPoint: "Anchor-0" 358 -100 basechar 0
LayerCount: 2
Fore
SplineSet
483 523 m 2,0,1
 483 583 483 583 467.5 597.5 c 128,-1,2
 452 612 452 612 396 614 c 0,3,4
 392 618 392 618 392 630 c 128,-1,5
 392 642 392 642 396 647 c 1,6,7
 486 645 486 645 525 645 c 0,8,9
 565 645 565 645 655 647 c 1,10,11
 660 642 660 642 660 630 c 128,-1,12
 660 618 660 618 655 614 c 0,13,14
 599 612 599 612 583.5 597.5 c 128,-1,15
 568 583 568 583 568 523 c 2,16,-1
 568 122 l 2,17,18
 568 62 568 62 583.5 47.5 c 128,-1,19
 599 33 599 33 655 31 c 1,20,21
 660 26 660 26 660 14 c 128,-1,22
 660 2 660 2 655 -2 c 1,23,24
 565 0 565 0 526 0 c 0,25,26
 488 0 488 0 396 -2 c 1,27,28
 392 2 392 2 392 14 c 128,-1,29
 392 26 392 26 396 31 c 1,30,31
 452 33 452 33 467.5 47.5 c 128,-1,32
 483 62 483 62 483 122 c 2,33,-1
 483 298 l 1,34,35
 436 294 436 294 404 259 c 2,36,-1
 239 83 l 2,37,38
 224 67 224 67 220 56.5 c 128,-1,39
 216 46 216 46 224 41 c 128,-1,40
 232 36 232 36 241 34 c 128,-1,41
 250 32 250 32 267 31 c 1,42,43
 272 26 272 26 272 14 c 128,-1,44
 272 2 272 2 267 -2 c 1,45,46
 193 0 193 0 154 0 c 0,47,48
 121 0 121 0 59 -2 c 1,49,50
 54 2 54 2 54 14 c 128,-1,51
 54 26 54 26 59 31 c 1,52,53
 85 33 85 33 100.5 36 c 128,-1,54
 116 39 116 39 139.5 51.5 c 128,-1,55
 163 64 163 64 185 87 c 2,56,-1
 332 238 l 2,57,58
 367 274 367 274 367 287 c 0,59,60
 367 297 367 297 354 312 c 2,61,-1
 135 572 l 2,62,63
 121 589 121 589 104 598.5 c 128,-1,64
 87 608 87 608 76.5 610 c 128,-1,65
 66 612 66 612 47 614 c 0,66,67
 42 618 42 618 42 630 c 128,-1,68
 42 642 42 642 47 647 c 1,69,70
 113 645 113 645 148 645 c 0,71,72
 162 645 162 645 202 647 c 0,73,74
 207 647 207 647 207 641 c 0,75,76
 210 614 210 614 243 572 c 2,77,-1
 400 374 l 2,78,79
 428 338 428 338 483 336 c 1,80,-1
 483 523 l 2,0,1
EndSplineSet
Validated: 1
EndChar

StartChar: ungwe_ext
Encoding: 57375 57375 41
Width: 595
GlyphClass: 2
Flags: W
LayerCount: 2
Fore
SplineSet
427.5 0 m 0,0,1
 409 0 409 0 364.5 -1 c 128,-1,2
 320 -2 320 -2 302.5 -2 c 0,3,4
 87.5 -2 87.5 -2 87.5 152 c 0,5,6
 87.5 190.794921875 87.5 190.794921875 115.193359375 226.994140625 c 128,-1,7
 142.88671875 263.193359375 142.88671875 263.193359375 182.5 283 c 1,8,-1
 182.5 285 l 1,9,10
 112.291992188 305.174804688 112.291992188 305.174804688 70.3955078125 348.966796875 c 128,-1,11
 28.5 392.7578125 28.5 392.7578125 28.5 461 c 0,12,13
 28.5 496.071289062 28.5 496.071289062 40.4677734375 526.814453125 c 128,-1,14
 52.4365234375 557.556640625 52.4365234375 557.556640625 79.2978515625 585.779296875 c 128,-1,15
 106.159179688 614.002929688 106.159179688 614.002929688 157.749023438 630.501953125 c 128,-1,16
 209.33984375 647 209.33984375 647 280.5 647 c 0,17,18
 328 647 328 647 371 646 c 128,-1,19
 414 645 414 645 426.5 645 c 0,20,21
 478.5 645 478.5 645 556.5 647 c 1,22,23
 561 642.5 561 642.5 561 630.5 c 128,-1,24
 561 618.5 561 618.5 556.5 614 c 1,25,26
 526.611328125 612.71875 526.611328125 612.71875 512.768554688 610.275390625 c 128,-1,27
 498.92578125 607.831054688 498.92578125 607.831054688 487.356445312 598.412109375 c 128,-1,28
 475.787109375 588.993164062 475.787109375 588.993164062 472.643554688 571.900390625 c 128,-1,29
 469.5 554.806640625 469.5 554.806640625 469.5 523 c 2,30,-1
 469.5 122 l 2,31,32
 469.5 90.193359375 469.5 90.193359375 472.643554688 73.099609375 c 128,-1,33
 475.787109375 56.0068359375 475.787109375 56.0068359375 487.356445312 46.587890625 c 128,-1,34
 498.92578125 37.1689453125 498.92578125 37.1689453125 512.768554688 34.724609375 c 128,-1,35
 526.611328125 32.28125 526.611328125 32.28125 556.5 31 c 1,36,37
 561 26.5 561 26.5 561 14.5 c 128,-1,38
 561 2.5 561 2.5 556.5 -2 c 1,39,40
 478.5 0 478.5 0 427.5 0 c 0,0,1
384.5 313 m 1,41,-1
 384.5 527 l 2,42,43
 384.5 575.424804688 384.5 575.424804688 368.114257812 594.711914062 c 128,-1,44
 351.727539062 614 351.727539062 614 301.5 614 c 0,45,46
 246.58984375 614 246.58984375 614 209.598632812 603.791992188 c 128,-1,47
 172.607421875 593.583007812 172.607421875 593.583007812 154.151367188 573.911132812 c 128,-1,48
 135.696289062 554.240234375 135.696289062 554.240234375 128.598632812 532.198242188 c 128,-1,49
 121.5 510.155273438 121.5 510.155273438 121.5 480 c 0,50,51
 121.5 407.102539062 121.5 407.102539062 169.901367188 360.051757812 c 128,-1,52
 218.302734375 313 218.302734375 313 315.5 313 c 2,53,-1
 384.5 313 l 1,41,-1
384.5 95 m 2,54,-1
 384.5 279 l 1,55,-1
 310.5 279 l 2,56,57
 168.5 279 168.5 279 168.5 164 c 0,58,59
 168.5 127.640625 168.5 127.640625 180.481445312 100.659179688 c 128,-1,60
 192.462890625 73.6767578125 192.462890625 73.6767578125 212.299804688 59.4345703125 c 128,-1,61
 232.13671875 45.1923828125 232.13671875 45.1923828125 253.418945312 38.5966796875 c 128,-1,62
 274.701171875 32 274.701171875 32 297.5 32 c 128,-1,63
 320.134765625 32 320.134765625 32 334.241210938 32.6640625 c 128,-1,64
 348.34765625 33.328125 348.34765625 33.328125 358.633789062 36.8779296875 c 128,-1,65
 368.919921875 40.427734375 368.919921875 40.427734375 373.713867188 43.302734375 c 128,-1,66
 378.506835938 46.177734375 378.506835938 46.177734375 381.189453125 55.43359375 c 128,-1,67
 383.87109375 64.6884765625 383.87109375 64.6884765625 384.185546875 71.6083984375 c 128,-1,68
 384.5 78.52734375 384.5 78.52734375 384.5 95 c 2,54,-1
EndSplineSet
Validated: 1
EndChar

StartChar: roomen
Encoding: 57376 57376 42
Width: 634
GlyphClass: 2
Flags: W
AnchorPoint: "Anchor-1" 329 750 basechar 0
AnchorPoint: "Anchor-0" 329 -100 basechar 0
LayerCount: 2
Fore
SplineSet
366 122 m 2,0,1
 366 62 366 62 383 47.5 c 128,-1,2
 400 33 400 33 463 31 c 1,3,4
 467 26 467 26 467 14 c 128,-1,5
 467 2 467 2 463 -2 c 1,6,7
 363 0 363 0 324 0 c 0,8,9
 282 0 282 0 184 -2 c 1,10,11
 179 2 179 2 179 14 c 128,-1,12
 179 26 179 26 184 31 c 1,13,14
 247 33 247 33 264 47.5 c 128,-1,15
 281 62 281 62 281 122 c 2,16,-1
 281 249 l 2,17,18
 281 277 281 277 277 290.5 c 128,-1,19
 273 304 273 304 260 326 c 2,20,-1
 129 547 l 2,21,22
 104 588 104 588 86.5 600 c 128,-1,23
 69 612 69 612 35 614 c 1,24,25
 30 619 30 619 30 630.5 c 128,-1,26
 30 642 30 642 34 647 c 1,27,28
 94 645 94 645 136 645 c 128,-1,29
 178 645 178 645 250 647 c 1,30,31
 255 642 255 642 255 630 c 128,-1,32
 255 618 255 618 250 614 c 0,33,34
 209 612 209 612 202 601 c 128,-1,35
 195 590 195 590 214 559 c 2,36,-1
 330 354 l 2,37,38
 335 346 335 346 338 343 c 128,-1,39
 341 340 341 340 344.5 342 c 128,-1,40
 348 344 348 344 352 352 c 2,41,-1
 463 561 l 2,42,43
 477 591 477 591 468 601.5 c 128,-1,44
 459 612 459 612 424 614 c 0,45,46
 419 618 419 618 419 630 c 128,-1,47
 419 642 419 642 424 647 c 1,48,49
 488 645 488 645 515 645 c 128,-1,50
 542 645 542 645 598 647 c 1,51,52
 603 642 603 642 603 630 c 128,-1,53
 603 618 603 618 598 614 c 0,54,55
 562 611 562 611 542.5 598.5 c 128,-1,56
 523 586 523 586 503 550 c 2,57,-1
 384 334 l 2,58,59
 366 302 366 302 366 258 c 2,60,-1
 366 122 l 2,0,1
EndSplineSet
Validated: 33
EndChar

StartChar: arda
Encoding: 57377 57377 43
Width: 698
GlyphClass: 2
Flags: W
AnchorPoint: "Anchor-1" 366 750 basechar 0
AnchorPoint: "Anchor-0" 366 -100 basechar 0
LayerCount: 2
Fore
SplineSet
564 102 m 2,0,1
 595 59 595 59 614 46 c 128,-1,2
 633 33 633 33 665 31 c 1,3,4
 670 26 670 26 670 14.5 c 128,-1,5
 670 3 670 3 666 -2 c 1,6,7
 606 0 606 0 564 0 c 0,8,9
 524 0 524 0 450 -2 c 1,10,11
 446 2 446 2 446 14 c 128,-1,12
 446 26 446 26 450 31 c 1,13,14
 490 33 490 33 493.5 44 c 128,-1,15
 497 55 497 55 474 85 c 2,16,-1
 350 261 l 2,17,18
 342 272 342 272 336 272 c 0,19,20
 332 272 332 272 321 258 c 2,21,-1
 189 73 l 2,22,23
 180 60 180 60 178.5 52.5 c 128,-1,24
 177 45 177 45 183.5 40.5 c 128,-1,25
 190 36 190 36 200 34 c 128,-1,26
 210 32 210 32 228 31 c 1,27,28
 232 26 232 26 232 14 c 128,-1,29
 232 2 232 2 228 -2 c 1,30,31
 148 0 148 0 123 0 c 0,32,33
 93 0 93 0 33 -2 c 1,34,35
 28 2 28 2 28 14 c 128,-1,36
 28 26 28 26 33 31 c 1,37,38
 69 34 69 34 94.5 47 c 128,-1,39
 120 60 120 60 144 93 c 2,40,-1
 292 291 l 2,41,42
 302 304 302 304 302 314 c 0,43,44
 302 323 302 323 288 344 c 2,45,-1
 146 547 l 2,46,47
 117 589 117 589 98 600.5 c 128,-1,48
 79 612 79 612 44 614 c 1,49,50
 39 619 39 619 39 630.5 c 128,-1,51
 39 642 39 642 43 647 c 1,52,53
 103 645 103 645 145 645 c 0,54,55
 185 645 185 645 259 647 c 1,56,57
 264 642 264 642 264 630 c 128,-1,58
 264 618 264 618 259 614 c 0,59,60
 219 612 219 612 215.5 601 c 128,-1,61
 212 590 212 590 236 560 c 2,62,-1
 346 396 l 2,63,64
 354 385 354 385 358 385 c 0,65,66
 365 385 365 385 374 397 c 2,67,-1
 497 572 l 2,68,69
 512 597 512 597 503 604.5 c 128,-1,70
 494 612 494 612 458 614 c 0,71,72
 454 618 454 618 454 630 c 128,-1,73
 454 642 454 642 458 647 c 1,74,75
 538 645 538 645 563 645 c 0,76,77
 593 645 593 645 653 647 c 1,78,79
 658 642 658 642 658 630 c 128,-1,80
 658 618 658 618 653 614 c 0,81,82
 617 611 617 611 592 597.5 c 128,-1,83
 567 584 567 584 542 552 c 2,84,-1
 405 375 l 2,85,86
 395 362 395 362 395 345 c 0,87,88
 395 333 395 333 411 312 c 2,89,-1
 564 102 l 2,0,1
EndSplineSet
Validated: 33
EndChar

StartChar: lambe
Encoding: 57378 57378 44
Width: 728
GlyphClass: 2
Flags: W
AnchorPoint: "Anchor-1" 340 750 basechar 0
AnchorPoint: "Anchor-0" 450 -100 basechar 0
LayerCount: 2
Fore
SplineSet
336 0 m 2,0,1
 284 0 284 0 206 -2 c 1,2,3
 201 2 201 2 201 14 c 128,-1,4
 201 26 201 26 206 31 c 1,5,6
 262 33 262 33 277.5 47.5 c 128,-1,7
 293 62 293 62 293 122 c 2,8,-1
 293 523 l 2,9,10
 293 583 293 583 277.5 597.5 c 128,-1,11
 262 612 262 612 206 614 c 0,12,13
 201 618 201 618 201 630 c 128,-1,14
 201 642 201 642 206 647 c 1,15,16
 298 645 298 645 335 645 c 0,17,18
 375 645 375 645 465 647 c 1,19,20
 469 642 469 642 469 630 c 128,-1,21
 469 618 469 618 465 614 c 0,22,23
 409 612 409 612 393.5 597.5 c 128,-1,24
 378 583 378 583 378 523 c 2,25,-1
 378 109 l 2,26,27
 378 71 378 71 391.5 55 c 128,-1,28
 405 39 405 39 435 39 c 2,29,-1
 498 39 l 2,30,31
 571 39 571 39 607.5 73.5 c 128,-1,32
 644 108 644 108 661 170 c 1,33,34
 678 173 678 173 694 165 c 1,35,36
 684 78 684 78 668 -2 c 1,37,38
 576 0 576 0 549 0 c 2,39,-1
 336 0 l 2,0,1
298 509 m 1,40,41
 298 608 298 608 247 608 c 2,42,-1
 198 608 l 2,43,44
 146 608 146 608 113 583.5 c 128,-1,45
 80 559 80 559 66 502 c 1,46,47
 44 502 44 502 32 507 c 1,48,49
 52 593 52 593 57 652 c 0,50,51
 57 655 57 655 61 655 c 0,52,53
 162 647 162 647 294 647 c 2,54,-1
 380 647 l 2,55,56
 513 647 513 647 604 655 c 0,57,58
 607 655 607 655 607 652 c 0,59,60
 608 585 608 585 620 510 c 1,61,62
 609 505 609 505 586 505 c 1,63,64
 573 561 573 561 539 584.5 c 128,-1,65
 505 608 505 608 447 608 c 2,66,-1
 425 608 l 2,67,68
 375 608 375 608 375 506 c 1,69,-1
 298 509 l 1,40,41
EndSplineSet
Validated: 37
EndChar

StartChar: alda
Encoding: 57379 57379 45
Width: 672
GlyphClass: 2
Flags: W
AnchorPoint: "Anchor-1" 338 750 basechar 0
AnchorPoint: "Anchor-0" 338 -100 basechar 0
LayerCount: 2
Fore
SplineSet
591 631 m 1,0,-1
 428 624 l 2,1,2
 384 624 384 624 351 589.5 c 128,-1,3
 318 555 318 555 318 512 c 0,4,5
 318 488 318 488 329.5 466.5 c 128,-1,6
 341 445 341 445 356 431.5 c 128,-1,7
 371 418 371 418 396.5 404 c 128,-1,8
 422 390 422 390 437.5 383.5 c 128,-1,9
 453 377 453 377 478 368 c 0,10,11
 552 340 552 340 596 298 c 128,-1,12
 640 256 640 256 640 184 c 0,13,14
 640 136 640 136 615 93 c 128,-1,15
 590 50 590 50 546 23 c 0,16,17
 494 -10 494 -10 423 -10 c 0,18,19
 375 -10 375 -10 323 1.5 c 128,-1,20
 271 13 271 13 243 13 c 1,21,22
 228 76 228 76 223 165 c 1,23,24
 239 173 239 173 256 168 c 1,25,26
 288 26 288 26 431 26 c 0,27,28
 491 26 491 26 523.5 57.5 c 128,-1,29
 556 89 556 89 556 149 c 0,30,31
 556 184 556 184 545 209.5 c 128,-1,32
 534 235 534 235 510 252.5 c 128,-1,33
 486 270 486 270 469.5 278 c 128,-1,34
 453 286 453 286 422 298 c 0,35,36
 341 329 341 329 294 371.5 c 128,-1,37
 247 414 247 414 247 485 c 0,38,39
 247 562 247 562 302.5 610 c 128,-1,40
 358 658 358 658 437 658 c 0,41,42
 494 658 494 658 535.5 645.5 c 128,-1,43
 577 633 577 633 591 631 c 1,0,-1
239 623 m 1,44,-1
 190 623 l 2,45,46
 138 623 138 623 105 598.5 c 128,-1,47
 72 574 72 574 58 517 c 1,48,49
 37 517 37 517 24 522 c 1,50,51
 44 608 44 608 49 667 c 0,52,53
 49 670 49 670 53 670 c 0,54,55
 154 662 154 662 286 662 c 2,56,-1
 372 662 l 2,57,58
 505 662 505 662 596 670 c 0,59,60
 599 670 599 670 599 667 c 0,61,62
 601 601 601 601 612 525 c 1,63,64
 601 520 601 520 578 520 c 1,65,66
 566 576 566 576 532 599.5 c 128,-1,67
 498 623 498 623 439 623 c 2,68,-1
 417 623 l 1,69,-1
 239 623 l 1,44,-1
EndSplineSet
Validated: 37
EndChar

StartChar: silme
Encoding: 57380 57380 46
Width: 489
GlyphClass: 2
Flags: W
AnchorPoint: "Anchor-1" 247 750 basechar 0
AnchorPoint: "Anchor-0" 247 -100 basechar 0
LayerCount: 2
Fore
SplineSet
83 631 m 1,0,1
 97 633 97 633 138.5 645.5 c 128,-1,2
 180 658 180 658 237 658 c 0,3,4
 316 658 316 658 371.5 610 c 128,-1,5
 427 562 427 562 427 485 c 0,6,7
 427 414 427 414 380 371.5 c 128,-1,8
 333 329 333 329 252 298 c 0,9,10
 221 286 221 286 204.5 278 c 128,-1,11
 188 270 188 270 164 252.5 c 128,-1,12
 140 235 140 235 129 209.5 c 128,-1,13
 118 184 118 184 118 149 c 0,14,15
 118 89 118 89 150.5 57.5 c 128,-1,16
 183 26 183 26 243 26 c 0,17,18
 386 26 386 26 418 168 c 1,19,20
 435 173 435 173 451 165 c 1,21,22
 446 76 446 76 431 13 c 1,23,24
 403 13 403 13 351 1.5 c 128,-1,25
 299 -10 299 -10 251 -10 c 0,26,27
 181 -10 181 -10 128 23 c 0,28,29
 84 50 84 50 59 93 c 128,-1,30
 34 136 34 136 34 184 c 0,31,32
 34 256 34 256 78 298 c 128,-1,33
 122 340 122 340 196 368 c 0,34,35
 221 377 221 377 236.5 383.5 c 128,-1,36
 252 390 252 390 277.5 404 c 128,-1,37
 303 418 303 418 318 431.5 c 128,-1,38
 333 445 333 445 344.5 466.5 c 128,-1,39
 356 488 356 488 356 512 c 0,40,41
 356 555 356 555 323 589.5 c 128,-1,42
 290 624 290 624 246 624 c 0,43,44
 180 624 180 624 148 590 c 128,-1,45
 116 556 116 556 98 496 c 1,46,47
 78 492 78 492 65 502 c 1,48,49
 70 562 70 562 83 631 c 1,0,1
EndSplineSet
Validated: 33
EndChar

StartChar: silme_nuquerna
Encoding: 57381 57381 47
Width: 618
GlyphClass: 2
Flags: W
AnchorPoint: "Anchor-1" 316 750 basechar 0
AnchorPoint: "Anchor-0" 316 -100 basechar 0
LayerCount: 2
Fore
SplineSet
547 -2 m 1,0,1
 447 0 447 0 420 0 c 2,2,-1
 56 0 l 2,3,4
 37 0 37 0 37 15 c 0,5,6
 37 27 37 27 45 38 c 0,7,8
 125 157 125 157 244.5 323.5 c 128,-1,9
 364 490 364 490 434 579 c 0,10,11
 442 590 442 590 442 597 c 0,12,13
 442 606 442 606 432 606 c 2,14,-1
 221 602 l 2,15,16
 166 601 166 601 134.5 575 c 128,-1,17
 103 549 103 549 87 496 c 1,18,19
 74 496 74 496 57 501 c 1,20,21
 74 590 74 590 79 653 c 1,22,23
 178 645 178 645 260 645 c 2,24,-1
 481 645 l 2,25,26
 498 645 498 645 524 646 c 128,-1,27
 550 647 550 647 554 647 c 0,28,29
 567 647 567 647 567 636 c 0,30,31
 567 622 567 622 543 591 c 0,32,33
 387 390 387 390 168 72 c 0,34,35
 160 58 160 58 160 52 c 0,36,37
 160 38 160 38 185 38 c 2,38,-1
 378 42 l 2,39,40
 417 43 417 43 444.5 52 c 128,-1,41
 472 61 472 61 490.5 81.5 c 128,-1,42
 509 102 509 102 518.5 119 c 128,-1,43
 528 136 528 136 543 170 c 1,44,45
 556 170 556 170 574 165 c 1,46,47
 554 80 554 80 547 -2 c 1,0,1
EndSplineSet
Validated: 1
EndChar

StartChar: esse
Encoding: 57382 57382 48
Width: 590
GlyphClass: 2
Flags: W
AnchorPoint: "Anchor-1" 296 750 basechar 0
AnchorPoint: "Anchor-0" 296 -100 basechar 0
LayerCount: 2
Fore
SplineSet
388 603 m 2,0,-1
 162 603 l 1,1,-1
 380 328 l 1,2,-1
 379 323 l 1,3,-1
 119 43 l 1,4,-1
 396 43 l 2,5,6
 449 43 449 43 475.5 75 c 128,-1,7
 502 107 502 107 519 170 c 1,8,9
 537 173 537 173 552 165 c 1,10,11
 543 60 543 60 526 0 c 1,12,-1
 108 0 l 1,13,-1
 37 -2 l 1,14,15
 29 12 29 12 37 31 c 1,16,17
 52 35 52 35 66 52 c 2,18,-1
 287 309 l 1,19,-1
 289 310 l 1,20,-1
 94 576 l 2,21,22
 70 609 70 609 38 614 c 1,23,24
 36 619 36 619 35.5 630 c 128,-1,25
 35 641 35 641 38 646 c 1,26,-1
 139 645 l 1,27,-1
 512 645 l 1,28,29
 525 586 525 586 533 490 c 1,30,31
 518 482 518 482 500 485 c 1,32,33
 489 519 489 519 483 534 c 128,-1,34
 477 549 477 549 464.5 568.5 c 128,-1,35
 452 588 452 588 433.5 595.5 c 128,-1,36
 415 603 415 603 388 603 c 2,0,-1
EndSplineSet
Validated: 33
EndChar

StartChar: esse_nuquerna
Encoding: 57383 57383 49
Width: 636
GlyphClass: 2
Flags: W
AnchorPoint: "Anchor-1" 334 750 basechar 0
AnchorPoint: "Anchor-0" 334 -100 basechar 0
LayerCount: 2
Fore
SplineSet
528 0 m 2,0,-1
 104 0 l 2,1,2
 78 0 78 0 55 -4 c 0,3,4
 51 -4 51 -4 51 -1 c 0,5,6
 49 7 49 7 44 61 c 128,-1,7
 39 115 39 115 39 144 c 1,8,9
 54 152 54 152 72 149 c 1,10,11
 90 93 90 93 106 78 c 128,-1,12
 122 63 122 63 175 63 c 2,13,-1
 457 63 l 2,14,15
 510 63 510 63 526 78 c 128,-1,16
 542 93 542 93 560 149 c 1,17,18
 578 152 578 152 593 144 c 1,19,20
 593 117 593 117 588 62 c 128,-1,21
 583 7 583 7 581 -1 c 0,22,23
 581 -4 581 -4 577 -4 c 0,24,25
 554 0 554 0 528 0 c 2,0,-1
104 645 m 2,26,-1
 528 645 l 2,27,28
 554 645 554 645 577 649 c 0,29,30
 581 649 581 649 581 646 c 0,31,32
 583 638 583 638 588 584 c 128,-1,33
 593 530 593 530 593 501 c 1,34,35
 578 493 578 493 560 496 c 1,36,37
 542 552 542 552 526 567 c 128,-1,38
 510 582 510 582 457 582 c 2,39,-1
 175 582 l 2,40,41
 122 582 122 582 106 567 c 128,-1,42
 90 552 90 552 72 496 c 1,43,44
 54 493 54 493 39 501 c 1,45,46
 39 528 39 528 44 583 c 128,-1,47
 49 638 49 638 51 646 c 0,48,49
 51 649 51 649 55 649 c 0,50,51
 78 645 78 645 104 645 c 2,26,-1
260 348 m 2,52,-1
 372 348 l 2,53,54
 432 348 432 348 446.5 359 c 128,-1,55
 461 370 461 370 463 406 c 1,56,57
 468 410 468 410 480 410 c 128,-1,58
 492 410 492 410 496 406 c 1,59,60
 494 346 494 346 494 322 c 0,61,62
 494 304 494 304 496 234 c 1,63,64
 492 230 492 230 480 230 c 128,-1,65
 468 230 468 230 463 234 c 1,66,67
 461 255 461 255 457 265 c 128,-1,68
 453 275 453 275 432.5 283.5 c 128,-1,69
 412 292 412 292 372 292 c 2,70,-1
 260 292 l 2,71,72
 200 292 200 292 185.5 281 c 128,-1,73
 171 270 171 270 169 234 c 1,74,75
 164 230 164 230 152 230 c 128,-1,76
 140 230 140 230 136 234 c 1,77,78
 138 294 138 294 138 318 c 0,79,80
 138 336 138 336 136 406 c 1,81,82
 140 410 140 410 152 410 c 128,-1,83
 164 410 164 410 169 406 c 1,84,85
 171 385 171 385 175 375 c 128,-1,86
 179 365 179 365 199.5 356.5 c 128,-1,87
 220 348 220 348 260 348 c 2,52,-1
EndSplineSet
Validated: 33
EndChar

StartChar: hyarmen
Encoding: 57384 57384 50
Width: 641
GlyphClass: 2
Flags: W
AnchorPoint: "Anchor-1" 344 750 basechar 0
AnchorPoint: "Anchor-0" 344 -100 basechar 0
LayerCount: 2
Fore
SplineSet
271 523 m 2,0,1
 271 555 271 555 268 572 c 128,-1,2
 265 589 265 589 252.5 598.5 c 128,-1,3
 240 608 240 608 224 610.5 c 128,-1,4
 208 613 208 613 174 614 c 0,5,6
 170 618 170 618 170 630 c 128,-1,7
 170 642 170 642 174 647 c 1,8,9
 274 645 274 645 313 645 c 0,10,11
 355 645 355 645 453 647 c 1,12,13
 458 642 458 642 458 630 c 128,-1,14
 458 618 458 618 453 614 c 0,15,16
 419 613 419 613 403.5 610.5 c 128,-1,17
 388 608 388 608 375.5 598.5 c 128,-1,18
 363 589 363 589 359.5 572 c 128,-1,19
 356 555 356 555 356 523 c 2,20,-1
 356 396 l 2,21,22
 356 368 356 368 360 354.5 c 128,-1,23
 364 341 364 341 377 319 c 2,24,-1
 508 98 l 2,25,26
 533 57 533 57 551 45 c 128,-1,27
 569 33 569 33 602 31 c 1,28,29
 607 26 607 26 607.5 14.5 c 128,-1,30
 608 3 608 3 603 -2 c 1,31,32
 543 0 543 0 501 0 c 128,-1,33
 459 0 459 0 387 -2 c 1,34,35
 383 2 383 2 383 14 c 128,-1,36
 383 26 383 26 387 31 c 1,37,38
 429 33 429 33 435.5 44 c 128,-1,39
 442 55 442 55 423 86 c 2,40,-1
 307 291 l 2,41,42
 301 303 301 303 296.5 303.5 c 128,-1,43
 292 304 292 304 285 293 c 2,44,-1
 174 84 l 2,45,46
 161 54 161 54 170 43.5 c 128,-1,47
 179 33 179 33 213 31 c 1,48,49
 218 26 218 26 218 14 c 128,-1,50
 218 2 218 2 213 -2 c 1,51,52
 149 0 149 0 122 0 c 128,-1,53
 95 0 95 0 39 -2 c 1,54,55
 35 2 35 2 35 14 c 128,-1,56
 35 26 35 26 39 31 c 1,57,58
 75 34 75 34 94.5 46.5 c 128,-1,59
 114 59 114 59 134 95 c 2,60,-1
 253 311 l 2,61,62
 265 332 265 332 268 347 c 128,-1,63
 271 362 271 362 271 387 c 2,64,-1
 271 523 l 2,0,1
EndSplineSet
Validated: 33
EndChar

StartChar: hwesta_sindarinwa
Encoding: 57385 57385 51
Width: 718
GlyphClass: 2
Flags: W
AnchorPoint: "Anchor-1" 274 750 basechar 0
AnchorPoint: "Anchor-0" 274 -100 basechar 0
LayerCount: 2
Fore
SplineSet
448 523 m 2,0,-1
 448 122 l 2,1,2
 448 62 448 62 463.5 47.5 c 128,-1,3
 479 33 479 33 535 31 c 1,4,5
 540 26 540 26 540 14 c 128,-1,6
 540 2 540 2 535 -2 c 1,7,8
 457 0 457 0 405 0 c 0,9,10
 391 0 391 0 349 -1 c 128,-1,11
 307 -2 307 -2 288 -2 c 0,12,13
 160 -2 160 -2 95 48 c 128,-1,14
 30 98 30 98 30 193 c 0,15,16
 30 291 30 291 88.5 339 c 128,-1,17
 147 387 147 387 281 387 c 0,18,19
 323 387 323 387 363 383 c 1,20,-1
 363 523 l 2,21,22
 363 583 363 583 347.5 597.5 c 128,-1,23
 332 612 332 612 276 614 c 0,24,25
 272 618 272 618 272 630 c 128,-1,26
 272 642 272 642 276 647 c 1,27,28
 354 645 354 645 406 645 c 2,29,-1
 549 645 l 2,30,31
 601 645 601 645 671 647 c 1,32,33
 681 555 681 555 687 474 c 1,34,35
 673 465 673 465 657 469 c 1,36,37
 652 496 652 496 640.5 524 c 128,-1,38
 629 552 629 552 604 578.5 c 128,-1,39
 579 605 579 605 549 605 c 2,40,-1
 507 605 l 2,41,42
 470 605 470 605 459 591 c 128,-1,43
 448 577 448 577 448 523 c 2,0,-1
286 31 m 0,44,45
 332 31 332 31 347.5 49 c 128,-1,46
 363 67 363 67 363 98 c 2,47,-1
 363 343 l 1,48,49
 330 346 330 346 303 346 c 0,50,51
 208 346 208 346 165.5 309 c 128,-1,52
 123 272 123 272 123 193 c 0,53,54
 123 31 123 31 286 31 c 0,44,45
EndSplineSet
Validated: 1
EndChar

StartChar: yanta
Encoding: 57386 57386 52
Width: 716
GlyphClass: 2
Flags: W
AnchorPoint: "Anchor-1" 366 750 basechar 0
AnchorPoint: "Anchor-0" 366 -100 basechar 0
LayerCount: 2
Fore
SplineSet
231 31 m 1,0,1
 236 26 236 26 236 14 c 128,-1,2
 236 2 236 2 231 -2 c 1,3,4
 149 0 149 0 122 0 c 0,5,6
 94 0 94 0 34 -2 c 1,7,8
 30 2 30 2 30 14 c 128,-1,9
 30 26 30 26 34 31 c 1,10,11
 64 34 64 34 84 49 c 128,-1,12
 104 64 104 64 112 79 c 128,-1,13
 120 94 120 94 132 124 c 2,14,-1
 339 634 l 2,15,16
 349 657 349 657 363 657 c 128,-1,17
 377 657 377 657 386 634 c 2,18,-1
 584 122 l 2,19,20
 605 67 605 67 619.5 51 c 128,-1,21
 634 35 634 35 673 31 c 1,22,23
 678 26 678 26 678 14.5 c 128,-1,24
 678 3 678 3 674 -2 c 1,25,26
 608 0 608 0 570 0 c 0,27,28
 529 0 529 0 449 -2 c 1,29,30
 444 2 444 2 444 14 c 128,-1,31
 444 26 444 26 449 31 c 1,32,33
 499 36 499 36 508.5 51.5 c 128,-1,34
 518 67 518 67 500 111 c 2,35,-1
 341 518 l 1,36,-1
 336 518 l 1,37,-1
 178 117 l 2,38,39
 159 77 159 77 169 56 c 128,-1,40
 179 35 179 35 231 31 c 1,0,1
EndSplineSet
Validated: 33
EndChar

StartChar: uure
Encoding: 57387 57387 53
Width: 696
GlyphClass: 2
Flags: W
AnchorPoint: "Anchor-1" 344 750 basechar 0
AnchorPoint: "Anchor-0" 344 -100 basechar 0
LayerCount: 2
Fore
SplineSet
660 329 m 0,0,1
 660 204 660 204 598 116 c 0,2,3
 509 -10 509 -10 344 -10 c 0,4,5
 212 -10 212 -10 121.5 78 c 128,-1,6
 31 166 31 166 31 310 c 0,7,8
 31 460 31 460 113.5 559 c 128,-1,9
 196 658 196 658 338 658 c 0,10,11
 477 658 477 658 568.5 569 c 128,-1,12
 660 480 660 480 660 329 c 0,0,1
325 622 m 0,13,14
 243 622 243 622 185 548 c 128,-1,15
 127 474 127 474 127 327 c 0,16,17
 127 189 127 189 197 107.5 c 128,-1,18
 267 26 267 26 364 26 c 0,19,20
 452 26 452 26 508 102.5 c 128,-1,21
 564 179 564 179 564 310 c 0,22,23
 564 456 564 456 496 539 c 128,-1,24
 428 622 428 622 325 622 c 0,13,14
EndSplineSet
Validated: 1
EndChar

StartChar: aara
Encoding: 57388 57388 54
Width: 400
GlyphClass: 2
Flags: W
AnchorPoint: "Anchor-1" 218 750 basechar 0
AnchorPoint: "Anchor-0" 218 -200 basechar 0
LayerCount: 2
Fore
SplineSet
250 523 m 2,0,-1
 250 103 l 2,1,2
 250 52 250 52 241 12.5 c 128,-1,3
 232 -27 232 -27 214.5 -54 c 128,-1,4
 197 -81 197 -81 183.5 -96 c 128,-1,5
 170 -111 170 -111 148 -129 c 0,6,7
 98 -172 98 -172 31 -172 c 0,8,9
 9 -172 9 -172 -17.5 -157 c 128,-1,10
 -44 -142 -44 -142 -44 -118 c 0,11,12
 -44 -103 -44 -103 -28 -89 c 128,-1,13
 -12 -75 -12 -75 0 -75 c 0,14,15
 28 -75 28 -75 40 -100 c 0,16,17
 53 -127 53 -127 80 -127 c 0,18,19
 100 -127 100 -127 117 -114 c 128,-1,20
 134 -101 134 -101 149.5 -51.5 c 128,-1,21
 165 -2 165 -2 165 81 c 2,22,-1
 165 523 l 2,23,24
 165 583 165 583 148 597.5 c 128,-1,25
 131 612 131 612 68 614 c 0,26,27
 64 618 64 618 64 630 c 128,-1,28
 64 642 64 642 68 647 c 1,29,30
 168 645 168 645 207 645 c 0,31,32
 251 645 251 645 327 647 c 1,33,34
 332 642 332 642 332 630 c 128,-1,35
 332 618 332 618 327 614 c 0,36,37
 279 612 279 612 264.5 597 c 128,-1,38
 250 582 250 582 250 523 c 2,0,-1
EndSplineSet
Validated: 1
EndChar

StartChar: halla
Encoding: 57389 57389 55
Width: 336
GlyphClass: 2
Flags: W
AnchorPoint: "Anchor-1" 176 750 basechar 0
AnchorPoint: "Anchor-0" 176 -150 basechar 0
LayerCount: 2
Fore
SplineSet
86 23 m 0,0,1
 86 63 86 63 85 116 c 128,-1,2
 84 169 84 169 84 209 c 2,3,-1
 84 340 l 2,4,5
 84 698 84 698 248 698 c 0,6,7
 270 698 270 698 285.5 685.5 c 128,-1,8
 301 673 301 673 301 655 c 0,9,10
 301 639 301 639 288 627.5 c 128,-1,11
 275 616 275 616 257 616 c 0,12,13
 240 616 240 616 225 632.5 c 128,-1,14
 210 649 210 649 199 649 c 0,15,16
 158 649 158 649 158 479 c 0,17,18
 158 456 158 456 160 391.5 c 128,-1,19
 162 327 162 327 162 294 c 2,20,-1
 162 175 l 2,21,22
 162 27 162 27 141 -62.5 c 128,-1,23
 120 -152 120 -152 86 -186.5 c 128,-1,24
 52 -221 52 -221 0 -221 c 0,25,26
 -24 -221 -24 -221 -39 -209 c 128,-1,27
 -54 -197 -54 -197 -54 -178 c 0,28,29
 -54 -163 -54 -163 -42 -152 c 128,-1,30
 -30 -141 -30 -141 -15 -141 c 128,-1,31
 0 -141 0 -141 18 -156.5 c 128,-1,32
 36 -172 36 -172 43 -172 c 0,33,34
 62 -172 62 -172 74 -108 c 128,-1,35
 86 -44 86 -44 86 23 c 0,0,1
EndSplineSet
Validated: 1
EndChar

StartChar: telco
Encoding: 57390 57390 56
Width: 410
GlyphClass: 2
Flags: W
AnchorPoint: "Anchor-1" 216 750 basechar 0
AnchorPoint: "Anchor-0" 216 -100 basechar 0
LayerCount: 2
Fore
SplineSet
257 122 m 2,0,1
 257 62 257 62 272.5 47.5 c 128,-1,2
 288 33 288 33 344 31 c 1,3,4
 348 26 348 26 348 14 c 128,-1,5
 348 2 348 2 344 -2 c 1,6,7
 254 0 254 0 215 0 c 0,8,9
 175 0 175 0 85 -2 c 1,10,11
 80 2 80 2 80 14 c 128,-1,12
 80 26 80 26 85 31 c 1,13,14
 141 33 141 33 156.5 47.5 c 128,-1,15
 172 62 172 62 172 122 c 2,16,-1
 172 523 l 2,17,18
 172 583 172 583 156.5 597.5 c 128,-1,19
 141 612 141 612 85 614 c 0,20,21
 80 618 80 618 80 630 c 128,-1,22
 80 642 80 642 85 647 c 1,23,24
 179 645 179 645 214 645 c 0,25,26
 256 645 256 645 344 647 c 1,27,28
 348 642 348 642 348 630 c 128,-1,29
 348 618 348 618 344 614 c 0,30,31
 288 612 288 612 272.5 597.5 c 128,-1,32
 257 583 257 583 257 523 c 2,33,-1
 257 122 l 2,0,1
EndSplineSet
Validated: 1
EndChar

StartChar: stemless_tinco
Encoding: 57392 57392 57
Width: 656
GlyphClass: 2
Flags: W
AnchorPoint: "Anchor-1" 304 750 basechar 0
AnchorPoint: "Anchor-0" 304 -100 basechar 0
LayerCount: 2
Fore
SplineSet
293 658 m 0,0,1
 447 658 447 658 530 567 c 128,-1,2
 613 476 613 476 613 338 c 0,3,4
 613 260 613 260 585 190.5 c 128,-1,5
 557 121 557 121 507 75 c 0,6,7
 414 -10 414 -10 292 -10 c 0,8,9
 220 -10 220 -10 151.5 12 c 128,-1,10
 83 34 83 34 73 35 c 1,11,12
 58 118 58 118 51 190 c 1,13,14
 69 200 69 200 84 195 c 1,15,16
 135 27 135 27 303 27 c 0,17,18
 390 27 390 27 463 116 c 0,19,20
 522 190 522 190 522 319 c 0,21,22
 522 434 522 434 456.5 525.5 c 128,-1,23
 391 617 391 617 294 617 c 0,24,25
 224 617 224 617 169.5 591.5 c 128,-1,26
 115 566 115 566 62 508 c 1,27,28
 47 508 47 508 39 523 c 1,29,30
 142 658 142 658 293 658 c 0,0,1
EndSplineSet
Validated: 33
EndChar

StartChar: stemless_parma
Encoding: 57393 57393 58
Width: 674
GlyphClass: 2
Flags: W
AnchorPoint: "Anchor-1" 328 750 basechar 0
AnchorPoint: "Anchor-0" 328 -100 basechar 0
LayerCount: 2
Fore
SplineSet
282 529 m 2,0,1
 282 589 282 589 265 603.5 c 128,-1,2
 248 618 248 618 185 620 c 0,3,4
 180 624 180 624 180 636 c 128,-1,5
 180 648 180 648 185 653 c 1,6,7
 285 651 285 651 324 651 c 0,8,9
 366 651 366 651 464 653 c 1,10,11
 468 648 468 648 468 636 c 128,-1,12
 468 624 468 624 464 620 c 0,13,14
 401 618 401 618 384 603.5 c 128,-1,15
 367 589 367 589 367 529 c 2,16,-1
 367 144 l 2,17,18
 367 95 367 95 377.5 70 c 128,-1,19
 388 45 388 45 414 45 c 2,20,-1
 463 45 l 2,21,22
 515 45 515 45 548 69 c 128,-1,23
 581 93 581 93 595 151 c 1,24,25
 616 151 616 151 629 146 c 1,26,27
 609 60 609 60 604 1 c 0,28,29
 604 -2 604 -2 600 -2 c 0,30,31
 499 6 499 6 367 6 c 2,32,-1
 281 6 l 2,33,34
 148 6 148 6 57 -2 c 0,35,36
 54 -2 54 -2 54 1 c 0,37,38
 53 67 53 67 41 143 c 1,39,40
 52 148 52 148 75 148 c 1,41,42
 87 92 87 92 121 68.5 c 128,-1,43
 155 45 155 45 214 45 c 2,44,-1
 236 45 l 2,45,46
 262 45 262 45 272 70.5 c 128,-1,47
 282 96 282 96 282 147 c 2,48,-1
 282 529 l 2,0,1
EndSplineSet
Validated: 1
EndChar

StartChar: osse
Encoding: 57394 57394 59
Width: 649
GlyphClass: 2
Flags: W
AnchorPoint: "Anchor-1" 336 750 basechar 0
AnchorPoint: "Anchor-0" 336 -100 basechar 0
LayerCount: 2
Fore
SplineSet
353 -10 m 0,0,1
 199 -10 199 -10 116 81 c 128,-1,2
 33 172 33 172 33 310 c 0,3,4
 33 388 33 388 61 457.5 c 128,-1,5
 89 527 89 527 139 573 c 0,6,7
 232 658 232 658 354 658 c 0,8,9
 426 658 426 658 494.5 636 c 128,-1,10
 563 614 563 614 573 613 c 1,11,12
 588 530 588 530 595 458 c 1,13,14
 577 448 577 448 562 453 c 1,15,16
 511 621 511 621 343 621 c 0,17,18
 256 621 256 621 183 532 c 0,19,20
 124 458 124 458 124 329 c 0,21,22
 124 214 124 214 189.5 122.5 c 128,-1,23
 255 31 255 31 352 31 c 0,24,25
 422 31 422 31 476.5 56.5 c 128,-1,26
 531 82 531 82 584 140 c 1,27,28
 599 140 599 140 607 125 c 1,29,30
 504 -10 504 -10 353 -10 c 0,0,1
EndSplineSet
Validated: 33
EndChar

StartChar: stemless_quesse
Encoding: 57395 57395 60
Width: 650
GlyphClass: 2
Flags: W
AnchorPoint: "Anchor-1" 322 750 basechar 0
AnchorPoint: "Anchor-0" 322 -100 basechar 0
LayerCount: 2
Fore
SplineSet
372 122 m 2,0,1
 372 62 372 62 389 47.5 c 128,-1,2
 406 33 406 33 469 31 c 1,3,4
 474 26 474 26 474 14 c 128,-1,5
 474 2 474 2 469 -2 c 1,6,7
 369 0 369 0 330 0 c 0,8,9
 288 0 288 0 190 -2 c 1,10,11
 186 2 186 2 186 14 c 128,-1,12
 186 26 186 26 190 31 c 1,13,14
 253 33 253 33 270 47.5 c 128,-1,15
 287 62 287 62 287 122 c 2,16,-1
 287 507 l 2,17,18
 287 556 287 556 276.5 581 c 128,-1,19
 266 606 266 606 240 606 c 2,20,-1
 191 606 l 2,21,22
 139 606 139 606 106 582 c 128,-1,23
 73 558 73 558 59 500 c 1,24,25
 38 500 38 500 25 505 c 1,26,27
 45 591 45 591 50 650 c 0,28,29
 50 653 50 653 54 653 c 0,30,31
 155 645 155 645 287 645 c 2,32,-1
 373 645 l 2,33,34
 506 645 506 645 597 653 c 0,35,36
 600 653 600 653 600 650 c 0,37,38
 601 584 601 584 613 508 c 1,39,40
 602 503 602 503 579 503 c 1,41,42
 567 559 567 559 533 582.5 c 128,-1,43
 499 606 499 606 440 606 c 2,44,-1
 418 606 l 2,45,46
 392 606 392 606 382 580.5 c 128,-1,47
 372 555 372 555 372 504 c 2,48,-1
 372 122 l 2,0,1
EndSplineSet
Validated: 1
EndChar

StartChar: telco_ligating
Encoding: 57396 57396 61
Width: 410
GlyphClass: 2
Flags: W
AnchorPoint: "Anchor-1" 216 750 basechar 0
AnchorPoint: "Anchor-0" 216 -100 basechar 0
LayerCount: 2
Fore
SplineSet
257 122 m 2,0,1
 257 62 257 62 272.5 47.5 c 128,-1,2
 288 33 288 33 344 31 c 1,3,4
 348 26 348 26 348 14 c 128,-1,5
 348 2 348 2 344 -2 c 1,6,7
 254 0 254 0 215 0 c 0,8,9
 175 0 175 0 85 -2 c 1,10,11
 80 2 80 2 80 14 c 128,-1,12
 80 26 80 26 85 31 c 1,13,14
 141 33 141 33 156.5 47.5 c 128,-1,15
 172 62 172 62 172 122 c 2,16,-1
 172 523 l 2,17,18
 172 583 172 583 156.5 597.5 c 128,-1,19
 141 612 141 612 85 614 c 0,20,21
 80 618 80 618 80 630 c 128,-1,22
 80 642 80 642 85 647 c 1,23,24
 179 645 179 645 214 645 c 0,25,26
 256 645 256 645 344 647 c 1,27,28
 348 642 348 642 348 630 c 128,-1,29
 348 618 348 618 344 614 c 0,30,31
 288 612 288 612 272.5 597.5 c 128,-1,32
 257 583 257 583 257 523 c 2,33,-1
 257 122 l 2,0,1
EndSplineSet
Validated: 1
EndChar

StartChar: anna_sindarinwa
Encoding: 57397 57397 62
Width: 725
GlyphClass: 2
Flags: W
AnchorPoint: "Anchor-1" 386 750 basechar 0
AnchorPoint: "Anchor-0" 356 -100 basechar 0
LayerCount: 2
Fore
SplineSet
484 614 m 0,0,1
 480 618 480 618 480 630 c 128,-1,2
 480 642 480 642 484 647 c 1,3,4
 566 645 566 645 593 645 c 0,5,6
 621 645 621 645 681 647 c 1,7,8
 686 642 686 642 686 630 c 128,-1,9
 686 618 686 618 681 614 c 0,10,11
 651 611 651 611 631 596 c 128,-1,12
 611 581 611 581 603 566 c 128,-1,13
 595 551 595 551 583 521 c 2,14,-1
 376 11 l 2,15,16
 366 -12 366 -12 352 -12 c 128,-1,17
 338 -12 338 -12 329 11 c 2,18,-1
 132 523 l 2,19,20
 110 578 110 578 95.5 594 c 128,-1,21
 81 610 81 610 42 614 c 1,22,23
 37 619 37 619 37 630.5 c 128,-1,24
 37 642 37 642 41 647 c 1,25,26
 107 645 107 645 145 645 c 0,27,28
 186 645 186 645 266 647 c 1,29,30
 270 642 270 642 270 630 c 128,-1,31
 270 618 270 618 266 614 c 0,32,33
 216 609 216 609 206.5 594 c 128,-1,34
 197 579 197 579 215 534 c 2,35,-1
 375 127 l 1,36,-1
 379 127 l 1,37,-1
 537 528 l 2,38,39
 556 568 556 568 546 589 c 128,-1,40
 536 610 536 610 484 614 c 0,0,1
EndSplineSet
Validated: 33
EndChar

StartChar: anna_open
Encoding: 57398 57398 63
Width: 726
GlyphClass: 2
Flags: W
AnchorPoint: "Anchor-1" 366 750 basechar 0
AnchorPoint: "Anchor-0" 366 -100 basechar 0
LayerCount: 2
Fore
SplineSet
208 523 m 2,0,-1
 208 266 l 2,1,2
 208 224 208 224 210 197 c 128,-1,3
 212 170 212 170 224 135 c 128,-1,4
 236 100 236 100 259 78 c 0,5,6
 308 31 308 31 378 31 c 0,7,8
 427 31 427 31 462 46.5 c 128,-1,9
 497 62 497 62 516 84.5 c 128,-1,10
 535 107 535 107 546 142.5 c 128,-1,11
 557 178 557 178 559.5 207.5 c 128,-1,12
 562 237 562 237 562 277 c 2,13,-1
 562 523 l 2,14,15
 562 554 562 554 559 570.5 c 128,-1,16
 556 587 556 587 543.5 596.5 c 128,-1,17
 531 606 531 606 517 608.5 c 128,-1,18
 503 611 503 611 470 614 c 0,19,20
 466 618 466 618 466 630 c 128,-1,21
 466 642 466 642 470 647 c 1,22,23
 562 645 562 645 586 645 c 0,24,25
 612 645 612 645 688 647 c 1,26,27
 692 642 692 642 692 630 c 128,-1,28
 692 618 692 618 688 614 c 0,29,30
 639 608 639 608 625 594 c 128,-1,31
 611 580 611 580 611 523 c 2,32,-1
 611 295 l 2,33,34
 611 224 611 224 600 171.5 c 128,-1,35
 589 119 589 119 561.5 76.5 c 128,-1,36
 534 34 534 34 483 12 c 128,-1,37
 432 -10 432 -10 357 -10 c 0,38,39
 314 -10 314 -10 276.5 0 c 128,-1,40
 239 10 239 10 202.5 34.5 c 128,-1,41
 166 59 166 59 144.5 109.5 c 128,-1,42
 123 160 123 160 123 233 c 2,43,-1
 123 523 l 2,44,45
 123 582 123 582 108.5 597 c 128,-1,46
 94 612 94 612 46 614 c 0,47,48
 42 618 42 618 42 630 c 128,-1,49
 42 642 42 642 46 647 c 1,50,51
 124 645 124 645 165 645 c 128,-1,52
 206 645 206 645 300 647 c 1,53,54
 304 642 304 642 304 630 c 128,-1,55
 304 618 304 618 300 614 c 0,56,57
 240 612 240 612 224 597.5 c 128,-1,58
 208 583 208 583 208 523 c 2,0,-1
EndSplineSet
Validated: 1
EndChar

StartChar: christopher_qu
Encoding: 57399 57399 64
Width: 581
GlyphClass: 2
Flags: W
AnchorPoint: "Anchor-1" 287 750 basechar 0
AnchorPoint: "Anchor-0" 287 -100 basechar 0
LayerCount: 2
Fore
SplineSet
298 49 m 2,0,1
 361 49 361 49 373 54.5 c 128,-1,2
 385 60 385 60 385 86 c 2,3,-1
 385 275 l 1,4,-1
 323 275 l 2,5,6
 180 275 180 275 109.5 321.5 c 128,-1,7
 39 368 39 368 39 480 c 0,8,9
 39 567 39 567 102.5 612.5 c 128,-1,10
 166 658 166 658 256 658 c 0,11,12
 289 658 289 658 341 657 c 128,-1,13
 393 656 393 656 426 656 c 0,14,15
 452 656 452 656 540 658 c 1,16,-1
 540 634 l 2,17,18
 540 629 540 629 536 629 c 2,19,-1
 506 626 l 2,20,21
 485 624 485 624 475.5 613.5 c 128,-1,22
 466 603 466 603 466 579 c 2,23,-1
 466 83 l 2,24,25
 466 57 466 57 473.5 50 c 128,-1,26
 481 43 481 43 506 41 c 2,27,-1
 536 38 l 2,28,29
 540 38 540 38 540 34 c 2,30,-1
 540 9 l 1,31,-1
 425 11 l 1,32,-1
 207 11 l 2,33,34
 144 11 144 11 94 -2 c 1,35,-1
 80 151 l 1,36,-1
 106 154 l 1,37,38
 124 92 124 92 150.5 70.5 c 128,-1,39
 177 49 177 49 217 49 c 2,40,-1
 298 49 l 2,0,1
385 578 m 2,41,42
 385 604 385 604 368.5 614 c 128,-1,43
 352 624 352 624 302 624 c 0,44,45
 220 624 220 624 174 583 c 128,-1,46
 128 542 128 542 128 458 c 0,47,48
 128 309 128 309 296 309 c 2,49,-1
 385 309 l 1,50,-1
 385 578 l 2,41,42
EndSplineSet
Validated: 1
EndChar

StartChar: formen_reversed
Encoding: 57400 57400 65
Width: 580
GlyphClass: 2
Flags: W
AnchorPoint: "Anchor-1" 268 750 basechar 0
AnchorPoint: "Anchor-0" 268 -100 basechar 0
LayerCount: 2
Fore
SplineSet
299 607 m 2,0,-1
 218 607 l 2,1,2
 178 607 178 607 151.5 585.5 c 128,-1,3
 125 564 125 564 107 502 c 1,4,-1
 81 505 l 1,5,-1
 95 658 l 1,6,7
 145 645 145 645 208 645 c 2,8,-1
 426 645 l 1,9,-1
 541 647 l 1,10,-1
 541 622 l 2,11,12
 541 618 541 618 537 618 c 2,13,-1
 507 615 l 2,14,15
 482 613 482 613 474.5 606 c 128,-1,16
 467 599 467 599 467 573 c 2,17,-1
 467 77 l 2,18,19
 467 53 467 53 476.5 42.5 c 128,-1,20
 486 32 486 32 507 30 c 2,21,-1
 537 27 l 2,22,23
 541 27 541 27 541 22 c 2,24,-1
 541 -2 l 1,25,26
 453 0 453 0 427 0 c 0,27,28
 394 0 394 0 342 -1 c 128,-1,29
 290 -2 290 -2 257 -2 c 0,30,31
 167 -2 167 -2 103.5 43.5 c 128,-1,32
 40 89 40 89 40 176 c 0,33,34
 40 288 40 288 110.5 334.5 c 128,-1,35
 181 381 181 381 324 381 c 2,36,-1
 386 381 l 1,37,-1
 386 570 l 2,38,39
 386 596 386 596 374 601.5 c 128,-1,40
 362 607 362 607 299 607 c 2,0,-1
386 78 m 2,41,-1
 386 347 l 1,42,-1
 297 347 l 2,43,44
 129 347 129 347 129 198 c 0,45,46
 129 114 129 114 175 73 c 128,-1,47
 221 32 221 32 303 32 c 0,48,49
 353 32 353 32 369.5 42 c 128,-1,50
 386 52 386 52 386 78 c 2,41,-1
EndSplineSet
Validated: 1
EndChar

StartChar: bombadil_hw
Encoding: 57401 57401 66
Width: 643
GlyphClass: 2
Flags: W
AnchorPoint: "Anchor-1" 348 750 basechar 0
AnchorPoint: "Anchor-0" 348 -100 basechar 0
LayerCount: 2
Fore
SplineSet
275 523 m 2,0,1
 275 555 275 555 272 572 c 128,-1,2
 269 589 269 589 256.5 598.5 c 128,-1,3
 244 608 244 608 228 610.5 c 128,-1,4
 212 613 212 613 178 614 c 0,5,6
 174 618 174 618 174 630 c 128,-1,7
 174 642 174 642 178 647 c 1,8,9
 278 645 278 645 317 645 c 0,10,11
 359 645 359 645 457 647 c 1,12,13
 462 642 462 642 462 630 c 128,-1,14
 462 618 462 618 457 614 c 0,15,16
 423 613 423 613 407.5 610.5 c 128,-1,17
 392 608 392 608 379.5 598.5 c 128,-1,18
 367 589 367 589 363.5 572 c 128,-1,19
 360 555 360 555 360 523 c 2,20,-1
 360 396 l 2,21,22
 360 368 360 368 364 354.5 c 128,-1,23
 368 341 368 341 381 319 c 2,24,-1
 512 98 l 2,25,26
 537 57 537 57 555 45 c 128,-1,27
 573 33 573 33 606 31 c 1,28,29
 611 26 611 26 611.5 14.5 c 128,-1,30
 612 3 612 3 607 -2 c 1,31,32
 547 0 547 0 505 0 c 128,-1,33
 463 0 463 0 391 -2 c 1,34,35
 387 2 387 2 387 14 c 128,-1,36
 387 26 387 26 391 31 c 1,37,38
 433 33 433 33 439.5 44 c 128,-1,39
 446 55 446 55 427 86 c 2,40,-1
 311 291 l 2,41,42
 305 303 305 303 300.5 303.5 c 128,-1,43
 296 304 296 304 289 293 c 2,44,-1
 178 84 l 2,45,46
 165 54 165 54 174 43.5 c 128,-1,47
 183 33 183 33 217 31 c 1,48,49
 222 26 222 26 222 14 c 128,-1,50
 222 2 222 2 217 -2 c 1,51,52
 153 0 153 0 126 0 c 128,-1,53
 99 0 99 0 43 -2 c 1,54,55
 39 2 39 2 39 14 c 128,-1,56
 39 26 39 26 43 31 c 1,57,58
 79 34 79 34 98.5 46.5 c 128,-1,59
 118 59 118 59 138 95 c 2,60,-1
 257 311 l 2,61,62
 269 332 269 332 272 347 c 128,-1,63
 275 362 275 362 275 387 c 2,64,-1
 275 523 l 2,0,1
EndSplineSet
Validated: 33
EndChar

StartChar: tengwa_mh
Encoding: 57402 57402 67
Width: 1066
GlyphClass: 2
Flags: W
AnchorPoint: "Anchor-1" 528 750 basechar 0
AnchorPoint: "Anchor-0" 528 -100 basechar 0
LayerCount: 2
Fore
SplineSet
911 523 m 2,0,-1
 911 122 l 2,1,2
 911 83 911 83 919 62.5 c 128,-1,3
 927 42 927 42 935 37.5 c 128,-1,4
 943 33 943 33 959 31 c 0,5,6
 987 28 987 28 989 11 c 0,7,8
 995 -61 995 -61 995 -141 c 1,9,10
 978 -154 978 -154 962 -142 c 1,11,12
 950 -83 950 -83 913.5 -41.5 c 128,-1,13
 877 0 877 0 823 0 c 2,14,-1
 197 0 l 2,15,16
 145 0 145 0 67 -2 c 1,17,18
 62 2 62 2 62 14 c 128,-1,19
 62 26 62 26 67 31 c 1,20,21
 123 33 123 33 138.5 47.5 c 128,-1,22
 154 62 154 62 154 122 c 2,23,-1
 154 523 l 2,24,25
 154 583 154 583 138.5 597.5 c 128,-1,26
 123 612 123 612 67 614 c 0,27,28
 62 618 62 618 62 630 c 128,-1,29
 62 642 62 642 67 647 c 1,30,31
 147 645 147 645 196 645 c 0,32,33
 248 645 248 645 326 647 c 1,34,35
 330 642 330 642 330 630 c 128,-1,36
 330 618 330 618 326 614 c 0,37,38
 270 612 270 612 254.5 597.5 c 128,-1,39
 239 583 239 583 239 523 c 2,40,-1
 239 122 l 2,41,42
 239 65 239 65 251 51 c 128,-1,43
 263 37 263 37 298 37 c 2,44,-1
 437 37 l 2,45,46
 468 37 468 37 478 50.5 c 128,-1,47
 488 64 488 64 488 122 c 2,48,-1
 488 523 l 2,49,50
 488 583 488 583 472.5 597.5 c 128,-1,51
 457 612 457 612 401 614 c 0,52,53
 396 618 396 618 396 630 c 128,-1,54
 396 642 396 642 401 647 c 1,55,56
 481 645 481 645 530 645 c 0,57,58
 582 645 582 645 660 647 c 1,59,60
 664 642 664 642 664 630 c 128,-1,61
 664 618 664 618 660 614 c 0,62,63
 604 612 604 612 588.5 597.5 c 128,-1,64
 573 583 573 583 573 523 c 2,65,-1
 573 122 l 2,66,67
 573 65 573 65 584.5 51 c 128,-1,68
 596 37 596 37 628 37 c 2,69,-1
 757 37 l 2,70,71
 802 37 802 37 814 50 c 128,-1,72
 826 63 826 63 826 122 c 2,73,-1
 826 523 l 2,74,75
 826 583 826 583 810.5 597.5 c 128,-1,76
 795 612 795 612 739 614 c 0,77,78
 734 618 734 618 734 630 c 128,-1,79
 734 642 734 642 739 647 c 1,80,81
 817 645 817 645 869 645 c 0,82,83
 918 645 918 645 998 647 c 1,84,85
 1002 642 1002 642 1002 630 c 128,-1,86
 1002 618 1002 618 998 614 c 0,87,88
 942 612 942 612 926.5 597.5 c 128,-1,89
 911 583 911 583 911 523 c 2,0,-1
EndSplineSet
Validated: 33
EndChar

StartChar: tengwa_mh_beleriand
Encoding: 57403 57403 68
Width: 740
GlyphClass: 2
Flags: W
AnchorPoint: "Anchor-1" 374 750 basechar 0
AnchorPoint: "Anchor-0" 374 -100 basechar 0
LayerCount: 2
Fore
SplineSet
602 523 m 2,0,-1
 602 122 l 2,1,2
 602 83 602 83 610 62.5 c 128,-1,3
 618 42 618 42 626 37.5 c 128,-1,4
 634 33 634 33 650 31 c 0,5,6
 678 28 678 28 680 11 c 0,7,8
 686 -61 686 -61 686 -141 c 1,9,10
 669 -154 669 -154 653 -142 c 1,11,12
 641 -83 641 -83 604.5 -41.5 c 128,-1,13
 568 0 568 0 514 0 c 2,14,-1
 188 0 l 2,15,16
 156 0 156 0 58 -2 c 1,17,18
 54 2 54 2 54 14 c 128,-1,19
 54 26 54 26 58 31 c 1,20,21
 114 33 114 33 129.5 47.5 c 128,-1,22
 145 62 145 62 145 122 c 2,23,-1
 145 523 l 2,24,25
 145 583 145 583 129.5 597.5 c 128,-1,26
 114 612 114 612 58 614 c 0,27,28
 54 618 54 618 54 630 c 128,-1,29
 54 642 54 642 58 647 c 1,30,31
 138 645 138 645 187 645 c 0,32,33
 239 645 239 645 317 647 c 1,34,35
 322 642 322 642 322 630 c 128,-1,36
 322 618 322 618 317 614 c 0,37,38
 261 612 261 612 245.5 597.5 c 128,-1,39
 230 583 230 583 230 523 c 2,40,-1
 230 89 l 2,41,42
 230 66 230 66 242.5 52.5 c 128,-1,43
 255 39 255 39 277 39 c 2,44,-1
 480 39 l 2,45,46
 505 39 505 39 511 52 c 128,-1,47
 517 65 517 65 517 122 c 2,48,-1
 517 523 l 2,49,50
 517 583 517 583 501.5 597.5 c 128,-1,51
 486 612 486 612 430 614 c 0,52,53
 426 618 426 618 426 630 c 128,-1,54
 426 642 426 642 430 647 c 1,55,56
 510 645 510 645 559 645 c 0,57,58
 611 645 611 645 689 647 c 1,59,60
 694 642 694 642 694 630 c 128,-1,61
 694 618 694 618 689 614 c 0,62,63
 633 612 633 612 617.5 597.5 c 128,-1,64
 602 583 602 583 602 523 c 2,0,-1
EndSplineSet
Validated: 33
EndChar

StartChar: lowdham_hw
Encoding: 57404 57404 69
Width: 650
GlyphClass: 2
Flags: W
AnchorPoint: "Anchor-1" 336 750 basechar 0
AnchorPoint: "Anchor-0" 336 -100 basechar 0
LayerCount: 2
Fore
SplineSet
373 122 m 2,0,1
 373 62 373 62 390 47.5 c 128,-1,2
 407 33 407 33 470 31 c 1,3,4
 474 26 474 26 474 14 c 128,-1,5
 474 2 474 2 470 -2 c 1,6,7
 370 0 370 0 331 0 c 0,8,9
 289 0 289 0 191 -2 c 1,10,11
 186 2 186 2 186 14 c 128,-1,12
 186 26 186 26 191 31 c 1,13,14
 254 33 254 33 271 47.5 c 128,-1,15
 288 62 288 62 288 122 c 2,16,-1
 288 249 l 2,17,18
 288 277 288 277 284 290.5 c 128,-1,19
 280 304 280 304 267 326 c 2,20,-1
 136 547 l 2,21,22
 111 588 111 588 93.5 600 c 128,-1,23
 76 612 76 612 42 614 c 1,24,25
 37 619 37 619 37 630.5 c 128,-1,26
 37 642 37 642 41 647 c 1,27,28
 101 645 101 645 143 645 c 128,-1,29
 185 645 185 645 257 647 c 1,30,31
 262 642 262 642 262 630 c 128,-1,32
 262 618 262 618 257 614 c 0,33,34
 216 612 216 612 209 601 c 128,-1,35
 202 590 202 590 221 559 c 2,36,-1
 337 354 l 2,37,38
 342 346 342 346 345 343 c 128,-1,39
 348 340 348 340 351.5 342 c 128,-1,40
 355 344 355 344 359 352 c 2,41,-1
 470 561 l 2,42,43
 484 591 484 591 475 601.5 c 128,-1,44
 466 612 466 612 431 614 c 0,45,46
 426 618 426 618 426 630 c 128,-1,47
 426 642 426 642 431 647 c 1,48,49
 495 645 495 645 522 645 c 128,-1,50
 549 645 549 645 605 647 c 1,51,52
 610 642 610 642 610 630 c 128,-1,53
 610 618 610 618 605 614 c 0,54,55
 569 611 569 611 549.5 598.5 c 128,-1,56
 530 586 530 586 510 550 c 2,57,-1
 391 334 l 2,58,59
 373 302 373 302 373 258 c 2,60,-1
 373 122 l 2,0,1
EndSplineSet
Validated: 33
EndChar

StartChar: vaiya
Encoding: 57405 57405 70
Width: 732
GlyphClass: 2
Flags: W
AnchorPoint: "Anchor-1" 334 750 basechar 0
AnchorPoint: "Anchor-0" 334 -200 basechar 0
LayerCount: 2
Fore
SplineSet
670 329 m 0,0,1
 670 204 670 204 608 116 c 0,2,3
 539 16 539 16 413 -5 c 1,4,5
 348 -23 348 -23 282 -71 c 1,6,7
 289 -70 289 -70 302 -70 c 0,8,9
 363 -70 363 -70 457 -114 c 0,10,11
 537 -152 537 -152 581 -152 c 0,12,13
 638 -152 638 -152 668 -115 c 1,14,-1
 685 -127 l 1,15,16
 628 -209 628 -209 541 -209 c 0,17,18
 467 -209 467 -209 373 -155 c 0,19,20
 300 -114 300 -114 255 -114 c 0,21,22
 238 -114 238 -114 220 -127 c 1,23,24
 197 -152 197 -152 182 -173 c 1,25,-1
 143 -153 l 1,26,27
 151 -140 151 -140 161 -130 c 0,28,29
 226 -52 226 -52 313 -8 c 1,30,31
 196 7 196 7 118.5 92.5 c 128,-1,32
 41 178 41 178 41 310 c 0,33,34
 41 460 41 460 123.5 559 c 128,-1,35
 206 658 206 658 348 658 c 0,36,37
 487 658 487 658 578.5 569 c 128,-1,38
 670 480 670 480 670 329 c 0,0,1
335 622 m 0,39,40
 253 622 253 622 195 548 c 128,-1,41
 137 474 137 474 137 327 c 0,42,43
 137 189 137 189 207 107.5 c 128,-1,44
 277 26 277 26 374 26 c 0,45,46
 462 26 462 26 518 102.5 c 128,-1,47
 574 179 574 179 574 310 c 0,48,49
 574 456 574 456 506 539 c 128,-1,50
 438 622 438 622 335 622 c 0,39,40
EndSplineSet
Validated: 1
EndChar

StartChar: tripledot_above
Encoding: 57408 57408 71
AltUni2: 00e831.00fe00.0
Width: 0
GlyphClass: 4
Flags: W
AnchorPoint: "Anchor-3" 157 950 basemark 0
AnchorPoint: "Anchor-3" 157 700 mark 0
AnchorPoint: "Anchor-1" 157 700 mark 0
LayerCount: 2
Fore
SplineSet
25 725 m 0,0,1
 25 745 25 745 39 759 c 128,-1,2
 53 773 53 773 72 773 c 128,-1,3
 91 773 91 773 105 759 c 128,-1,4
 119 745 119 745 119 725 c 0,5,6
 119 706 119 706 105 692 c 128,-1,7
 91 678 91 678 72 678 c 128,-1,8
 53 678 53 678 39 692 c 128,-1,9
 25 706 25 706 25 725 c 0,0,1
194 725 m 0,10,11
 194 745 194 745 208 759 c 128,-1,12
 222 773 222 773 241 773 c 128,-1,13
 260 773 260 773 274 759 c 128,-1,14
 288 745 288 745 288 725 c 0,15,16
 288 706 288 706 274.5 692 c 128,-1,17
 261 678 261 678 241 678 c 128,-1,18
 221 678 221 678 207.5 692 c 128,-1,19
 194 706 194 706 194 725 c 0,10,11
110 856 m 256,20,21
 110 876 110 876 124 890 c 128,-1,22
 138 904 138 904 157 904 c 128,-1,23
 176 904 176 904 190 890 c 128,-1,24
 204 876 204 876 204 856 c 256,25,26
 204 836 204 836 190 822 c 128,-1,27
 176 808 176 808 157 808 c 128,-1,28
 138 808 138 808 124 822 c 128,-1,29
 110 836 110 836 110 856 c 256,20,21
EndSplineSet
Validated: 1048577
EndChar

StartChar: tripledot_below
Encoding: 57409 57409 72
Width: 0
GlyphClass: 4
Flags: W
AnchorPoint: "Anchor-2" 158 -350 basemark 0
AnchorPoint: "Anchor-2" 158 -100 mark 0
AnchorPoint: "Anchor-0" 158 -100 mark 0
LayerCount: 2
Fore
SplineSet
25 -96 m 0,0,1
 25 -77 25 -77 39 -63 c 128,-1,2
 53 -49 53 -49 72 -49 c 128,-1,3
 91 -49 91 -49 105 -63 c 128,-1,4
 119 -77 119 -77 119 -96 c 0,5,6
 119 -116 119 -116 105 -130 c 128,-1,7
 91 -144 91 -144 72 -144 c 128,-1,8
 53 -144 53 -144 39 -130 c 128,-1,9
 25 -116 25 -116 25 -96 c 0,0,1
194 -96 m 0,10,11
 194 -77 194 -77 207.5 -63 c 128,-1,12
 221 -49 221 -49 241 -49 c 128,-1,13
 261 -49 261 -49 274.5 -63 c 128,-1,14
 288 -77 288 -77 288 -96 c 0,15,16
 288 -116 288 -116 274 -130 c 128,-1,17
 260 -144 260 -144 241 -144 c 128,-1,18
 222 -144 222 -144 208 -130 c 128,-1,19
 194 -116 194 -116 194 -96 c 0,10,11
110 -227 m 0,20,21
 110 -208 110 -208 124 -194 c 128,-1,22
 138 -180 138 -180 157 -180 c 128,-1,23
 176 -180 176 -180 190 -194 c 128,-1,24
 204 -208 204 -208 204 -227 c 0,25,26
 204 -247 204 -247 190 -261 c 128,-1,27
 176 -275 176 -275 157 -275 c 128,-1,28
 138 -275 138 -275 124 -261 c 128,-1,29
 110 -247 110 -247 110 -227 c 0,20,21
EndSplineSet
Validated: 1048577
EndChar

StartChar: doubledot_above
Encoding: 57410 57410 73
Width: 0
GlyphClass: 4
Flags: W
AnchorPoint: "Anchor-3" 177 850 basemark 0
AnchorPoint: "Anchor-3" 177 700 mark 0
AnchorPoint: "Anchor-1" 177 700 mark 0
LayerCount: 2
Fore
SplineSet
50 725 m 0,0,1
 50 745 50 745 64 759 c 128,-1,2
 78 773 78 773 97 773 c 128,-1,3
 116 773 116 773 130 759 c 128,-1,4
 144 745 144 745 144 725 c 0,5,6
 144 706 144 706 130 692 c 128,-1,7
 116 678 116 678 97 678 c 128,-1,8
 78 678 78 678 64 692 c 128,-1,9
 50 706 50 706 50 725 c 0,0,1
219 725 m 0,10,11
 219 745 219 745 233 759 c 128,-1,12
 247 773 247 773 266 773 c 128,-1,13
 285 773 285 773 299 759 c 128,-1,14
 313 745 313 745 313 725 c 0,15,16
 313 706 313 706 299.5 692 c 128,-1,17
 286 678 286 678 266 678 c 128,-1,18
 246 678 246 678 232.5 692 c 128,-1,19
 219 706 219 706 219 725 c 0,10,11
EndSplineSet
Validated: 1048577
Ligature2: "'liga' Standard Ligatures lookup 0 subtable" amatixe amatixe
EndChar

StartChar: doubledot_below
Encoding: 57411 57411 74
Width: 0
GlyphClass: 4
Flags: W
AnchorPoint: "Anchor-2" 182 -200 basemark 0
AnchorPoint: "Anchor-2" 182 -100 mark 0
AnchorPoint: "Anchor-0" 182 -100 mark 0
LayerCount: 2
Fore
SplineSet
50 -95 m 0,0,1
 50 -75 50 -75 64 -61 c 128,-1,2
 78 -47 78 -47 97 -47 c 128,-1,3
 116 -47 116 -47 130 -61 c 128,-1,4
 144 -75 144 -75 144 -95 c 0,5,6
 144 -114 144 -114 130 -128 c 128,-1,7
 116 -142 116 -142 97 -142 c 128,-1,8
 78 -142 78 -142 64 -128 c 128,-1,9
 50 -114 50 -114 50 -95 c 0,0,1
219 -95 m 0,10,11
 219 -75 219 -75 233 -61 c 128,-1,12
 247 -47 247 -47 266 -47 c 128,-1,13
 285 -47 285 -47 299 -61 c 128,-1,14
 313 -75 313 -75 313 -95 c 0,15,16
 313 -114 313 -114 299.5 -128 c 128,-1,17
 286 -142 286 -142 266 -142 c 128,-1,18
 246 -142 246 -142 232.5 -128 c 128,-1,19
 219 -114 219 -114 219 -95 c 0,10,11
EndSplineSet
Validated: 1048577
Ligature2: "'liga' Standard Ligatures lookup 0 subtable" unutixe unutixe
EndChar

StartChar: amatixe
Encoding: 57412 57412 75
Width: 0
GlyphClass: 4
Flags: W
AnchorPoint: "Anchor-3" 97 850 basemark 0
AnchorPoint: "Anchor-3" 97 700 mark 0
AnchorPoint: "Anchor-1" 97 700 mark 0
LayerCount: 2
Fore
SplineSet
50 725 m 0,0,1
 50 745 50 745 64 759 c 128,-1,2
 78 773 78 773 97 773 c 128,-1,3
 116 773 116 773 130 759 c 128,-1,4
 144 745 144 745 144 725 c 0,5,6
 144 706 144 706 130 692 c 128,-1,7
 116 678 116 678 97 678 c 128,-1,8
 78 678 78 678 64 692 c 128,-1,9
 50 706 50 706 50 725 c 0,0,1
EndSplineSet
Validated: 1048577
EndChar

StartChar: unutixe
Encoding: 57413 57413 76
Width: 0
GlyphClass: 4
Flags: W
AnchorPoint: "Anchor-2" 98 -200 basemark 0
AnchorPoint: "Anchor-2" 98 -100 mark 0
AnchorPoint: "Anchor-0" 98 -100 mark 0
LayerCount: 2
Fore
SplineSet
50 -95 m 0,0,1
 50 -75 50 -75 64 -61 c 128,-1,2
 78 -47 78 -47 97 -47 c 128,-1,3
 116 -47 116 -47 130 -61 c 128,-1,4
 144 -75 144 -75 144 -95 c 0,5,6
 144 -114 144 -114 130 -128 c 128,-1,7
 116 -142 116 -142 97 -142 c 128,-1,8
 78 -142 78 -142 64 -128 c 128,-1,9
 50 -114 50 -114 50 -95 c 0,0,1
EndSplineSet
Validated: 1048577
EndChar

StartChar: tecco_above
Encoding: 57414 57414 77
Width: 0
GlyphClass: 4
Flags: W
AnchorPoint: "Anchor-3" 100 900 basemark 0
AnchorPoint: "Anchor-3" 100 700 mark 0
AnchorPoint: "Anchor-1" 100 700 mark 0
LayerCount: 2
Fore
SplineSet
168 848 m 2,0,1
 174 850 174 850 182 850 c 0,2,3
 213 850 213 850 237 827 c 1,4,-1
 240 816 l 1,5,-1
 125 707 l 2,6,7
 106 688 106 688 95 688 c 0,8,9
 90 688 90 688 85.5 692 c 128,-1,10
 81 696 81 696 81 701 c 0,11,12
 81 711 81 711 92 729 c 2,13,-1
 168 848 l 2,0,1
EndSplineSet
Validated: 1048577
EndChar

StartChar: tecco_below
Encoding: 57415 57415 78
Width: 0
GlyphClass: 4
Flags: W
AnchorPoint: "Anchor-2" 158 -300 basemark 0
AnchorPoint: "Anchor-2" 158 -100 mark 0
AnchorPoint: "Anchor-0" 158 -100 mark 0
LayerCount: 2
Fore
SplineSet
93 -240 m 2,0,1
 87 -242 87 -242 79 -242 c 0,2,3
 48 -242 48 -242 24 -219 c 1,4,-1
 21 -208 l 1,5,-1
 136 -99 l 2,6,7
 155 -80 155 -80 166 -80 c 0,8,9
 171 -80 171 -80 175.5 -84 c 128,-1,10
 180 -88 180 -88 180 -93 c 0,11,12
 180 -103 180 -103 169 -121 c 2,13,-1
 93 -240 l 2,0,1
EndSplineSet
Validated: 1048577
EndChar

StartChar: tecco_above_double
Encoding: 57416 57416 79
Width: 0
GlyphClass: 4
Flags: W
AnchorPoint: "Anchor-3" 100 900 basemark 0
AnchorPoint: "Anchor-3" 100 700 mark 0
AnchorPoint: "Anchor-1" 100 700 mark 0
LayerCount: 2
Fore
SplineSet
311 831 m 0,0,1
 311 819 311 819 304 812 c 2,2,-1
 190 702 l 2,3,4
 188 700 188 700 184 700 c 128,-1,5
 180 700 180 700 175 704 c 128,-1,6
 170 708 170 708 170 713 c 0,7,8
 170 716 170 716 171 717 c 2,9,-1
 249 856 l 2,10,11
 256 868 256 868 273 868 c 0,12,13
 288 868 288 868 299.5 857 c 128,-1,14
 311 846 311 846 311 831 c 0,0,1
179 837 m 0,15,16
 179 827 179 827 174 821 c 2,17,-1
 72 700 l 2,18,19
 69 697 69 697 64 697 c 0,20,21
 50 697 50 697 50 710 c 0,22,23
 50 712 50 712 51 713 c 2,24,-1
 115 859 l 2,25,26
 121 873 121 873 141 873 c 0,27,28
 157 873 157 873 168 863 c 128,-1,29
 179 853 179 853 179 837 c 0,15,16
EndSplineSet
Validated: 1048577
Ligature2: "'liga' Standard Ligatures lookup 0 subtable" tecco_above tecco_above
EndChar

StartChar: tecco_below_double
Encoding: 57417 57417 80
Width: 0
GlyphClass: 4
Flags: W
AnchorPoint: "Anchor-2" 238 -300 basemark 0
AnchorPoint: "Anchor-2" 238 -100 mark 0
AnchorPoint: "Anchor-0" 238 -100 mark 0
LayerCount: 2
Fore
SplineSet
50 -221 m 0,0,1
 50 -209 50 -209 57 -202 c 2,2,-1
 171 -92 l 2,3,4
 173 -90 173 -90 177 -90 c 128,-1,5
 181 -90 181 -90 186 -94 c 128,-1,6
 191 -98 191 -98 191 -103 c 0,7,8
 191 -106 191 -106 190 -107 c 2,9,-1
 112 -246 l 2,10,11
 105 -258 105 -258 88 -258 c 0,12,13
 73 -258 73 -258 61.5 -247 c 128,-1,14
 50 -236 50 -236 50 -221 c 0,0,1
182 -227 m 0,15,16
 182 -217 182 -217 187 -211 c 2,17,-1
 289 -90 l 2,18,19
 292 -87 292 -87 297 -87 c 0,20,21
 311 -87 311 -87 311 -100 c 0,22,23
 311 -102 311 -102 310 -103 c 2,24,-1
 246 -249 l 2,25,26
 240 -263 240 -263 220 -263 c 0,27,28
 204 -263 204 -263 193 -253 c 128,-1,29
 182 -243 182 -243 182 -227 c 0,15,16
EndSplineSet
Validated: 1048577
Ligature2: "'liga' Standard Ligatures lookup 0 subtable" tecco_below tecco_below
EndChar

StartChar: rightcurl_above
Encoding: 57418 57418 81
Width: 0
GlyphClass: 4
Flags: W
AnchorPoint: "Anchor-3" 111 1000 basemark 0
AnchorPoint: "Anchor-3" 111 700 mark 0
AnchorPoint: "Anchor-1" 111 700 mark 0
LayerCount: 2
Fore
SplineSet
170 892 m 0,0,1
 211 892 211 892 245 865.5 c 128,-1,2
 279 839 279 839 279 807 c 0,3,4
 279 797 279 797 271.5 789 c 128,-1,5
 264 781 264 781 253 781 c 128,-1,6
 242 781 242 781 232 790 c 128,-1,7
 222 799 222 799 222 812 c 0,8,9
 222 828 222 828 209 842 c 128,-1,10
 196 856 196 856 178 856 c 0,11,12
 131 856 131 856 131 748 c 2,13,-1
 131 643 l 1,14,-1
 92 643 l 1,15,-1
 92 773 l 2,16,17
 92 892 92 892 170 892 c 0,0,1
EndSplineSet
Validated: 1048577
EndChar

StartChar: rightcurl_below
Encoding: 57419 57419 82
Width: 0
GlyphClass: 4
Flags: W
AnchorPoint: "Anchor-2" 132 -400 basemark 0
AnchorPoint: "Anchor-2" 132 -100 mark 0
AnchorPoint: "Anchor-0" 132 -100 mark 0
LayerCount: 2
Fore
SplineSet
190 -347 m 0,0,1
 112 -347 112 -347 112 -228 c 2,2,-1
 112 -98 l 1,3,-1
 151 -98 l 1,4,-1
 151 -203 l 2,5,6
 151 -311 151 -311 198 -311 c 0,7,8
 216 -311 216 -311 229 -297 c 128,-1,9
 242 -283 242 -283 242 -267 c 0,10,11
 242 -254 242 -254 252 -245 c 128,-1,12
 262 -236 262 -236 273 -236 c 128,-1,13
 284 -236 284 -236 291.5 -244 c 128,-1,14
 299 -252 299 -252 299 -262 c 0,15,16
 299 -294 299 -294 265 -320.5 c 128,-1,17
 231 -347 231 -347 190 -347 c 0,0,1
EndSplineSet
Validated: 1048577
EndChar

StartChar: leftcurl_above
Encoding: 57420 57420 83
Width: 0
GlyphClass: 4
Flags: W
AnchorPoint: "Anchor-3" 211 1000 basemark 0
AnchorPoint: "Anchor-3" 211 700 mark 0
AnchorPoint: "Anchor-1" 211 700 mark 0
LayerCount: 2
Fore
SplineSet
148 868 m 0,0,1
 130 868 130 868 117 854 c 128,-1,2
 104 840 104 840 104 824 c 0,3,4
 104 811 104 811 94 802 c 128,-1,5
 84 793 84 793 73 793 c 128,-1,6
 62 793 62 793 54.5 801 c 128,-1,7
 47 809 47 809 47 819 c 0,8,9
 47 850 47 850 80.5 877 c 128,-1,10
 114 904 114 904 156 904 c 0,11,12
 234 904 234 904 234 785 c 2,13,-1
 234 653 l 1,14,-1
 195 653 l 1,15,-1
 195 760 l 2,16,17
 195 868 195 868 148 868 c 0,0,1
EndSplineSet
Validated: 1048577
EndChar

StartChar: leftcurl_below
Encoding: 57421 57421 84
Width: 0
GlyphClass: 4
Flags: W
AnchorPoint: "Anchor-2" 175 -400 basemark 0
AnchorPoint: "Anchor-2" 175 -100 mark 0
AnchorPoint: "Anchor-0" 175 -100 mark 0
LayerCount: 2
Fore
SplineSet
108 -311 m 0,0,1
 155 -311 155 -311 155 -203 c 2,2,-1
 155 -96 l 1,3,-1
 194 -96 l 1,4,-1
 194 -228 l 2,5,6
 194 -347 194 -347 116 -347 c 0,7,8
 74 -347 74 -347 40.5 -320 c 128,-1,9
 7 -293 7 -293 7 -262 c 0,10,11
 7 -252 7 -252 14.5 -244 c 128,-1,12
 22 -236 22 -236 33 -236 c 128,-1,13
 44 -236 44 -236 54 -245 c 128,-1,14
 64 -254 64 -254 64 -267 c 0,15,16
 64 -283 64 -283 77 -297 c 128,-1,17
 90 -311 90 -311 108 -311 c 0,0,1
EndSplineSet
Validated: 1048577
EndChar

StartChar: bar_above
Encoding: 57424 57424 85
Width: 603
GlyphClass: 4
Flags: W
AnchorPoint: "Anchor-3" 307 850 basemark 0
AnchorPoint: "Anchor-3" 307 700 mark 0
AnchorPoint: "Anchor-1" 307 700 mark 0
LayerCount: 2
Fore
SplineSet
518 670 m 2,0,-1
 94 670 l 2,1,2
 68 670 68 670 45 666 c 0,3,4
 41 666 41 666 41 669 c 0,5,6
 39 677 39 677 34 731 c 128,-1,7
 29 785 29 785 29 814 c 1,8,9
 44 822 44 822 62 819 c 1,10,11
 80 763 80 763 96 748 c 128,-1,12
 112 733 112 733 165 733 c 2,13,-1
 447 733 l 2,14,15
 500 733 500 733 516 748 c 128,-1,16
 532 763 532 763 550 819 c 1,17,18
 568 822 568 822 583 814 c 1,19,20
 583 787 583 787 578 732 c 128,-1,21
 573 677 573 677 571 669 c 0,22,23
 571 666 571 666 567 666 c 0,24,25
 544 670 544 670 518 670 c 2,0,-1
EndSplineSet
Validated: 1048609
EndChar

StartChar: bar_below
Encoding: 57425 57425 86
Width: 606
GlyphClass: 4
Flags: W
AnchorPoint: "Anchor-2" 308 -300 basemark 0
AnchorPoint: "Anchor-2" 308 -100 mark 0
AnchorPoint: "Anchor-0" 308 -100 mark 0
LayerCount: 2
Fore
SplineSet
94 -65 m 2,0,-1
 518 -65 l 2,1,2
 544 -65 544 -65 567 -61 c 0,3,4
 571 -61 571 -61 571 -64 c 0,5,6
 573 -72 573 -72 578 -126 c 128,-1,7
 583 -180 583 -180 583 -209 c 1,8,9
 568 -217 568 -217 550 -214 c 1,10,11
 532 -158 532 -158 516 -143 c 128,-1,12
 500 -128 500 -128 447 -128 c 2,13,-1
 165 -128 l 2,14,15
 112 -128 112 -128 96 -143 c 128,-1,16
 80 -158 80 -158 62 -214 c 1,17,18
 44 -217 44 -217 29 -209 c 1,19,20
 29 -182 29 -182 34 -127 c 128,-1,21
 39 -72 39 -72 41 -64 c 0,22,23
 41 -61 41 -61 45 -61 c 0,24,25
 68 -65 68 -65 94 -65 c 2,0,-1
EndSplineSet
Validated: 1048609
EndChar

StartChar: tengwa_tilde
Encoding: 57426 57426 87
Width: 0
GlyphClass: 4
Flags: W
AnchorPoint: "Anchor-3" 157 850 basemark 0
AnchorPoint: "Anchor-3" 157 700 mark 0
AnchorPoint: "Anchor-1" 157 700 mark 0
LayerCount: 2
Fore
SplineSet
209 697 m 4,0,1
 226 697 226 697 236 686.5 c 132,-1,2
 246 676 246 676 256 645 c 5,3,4
 272 644 272 644 283 651 c 5,5,6
 263 750 263 750 196 750 c 4,7,8
 190 750 190 750 183.5 748.5 c 132,-1,9
 177 747 177 747 169.5 743 c 132,-1,10
 162 739 162 739 157.5 736 c 132,-1,11
 153 733 153 733 144.5 726.5 c 132,-1,12
 136 720 136 720 132 718 c 4,13,14
 101 699 101 699 78 699 c 4,15,16
 59 699 59 699 49.5 710 c 132,-1,17
 40 721 40 721 32 747 c 5,18,19
 13 750 13 750 5 742 c 5,20,21
 28 644 28 644 85 644 c 4,22,23
 94 644 94 644 101.5 646 c 132,-1,24
 109 648 109 648 118 652.5 c 132,-1,25
 127 657 127 657 131 659.5 c 132,-1,26
 135 662 135 662 145 669.5 c 132,-1,27
 155 677 155 677 157 678 c 4,28,29
 182 697 182 697 209 697 c 4,0,1
EndSplineSet
Validated: 1048585
EndChar

StartChar: tehta_breve
Encoding: 57427 57427 88
Width: 0
GlyphClass: 4
Flags: W
AnchorPoint: "Anchor-3" 140 850 basemark 0
AnchorPoint: "Anchor-3" 140 700 mark 0
AnchorPoint: "Anchor-1" 140 700 mark 0
LayerCount: 2
Fore
SplineSet
33 776 m 1,0,1
 41 736 41 736 71 711 c 128,-1,2
 101 686 101 686 141 686 c 128,-1,3
 181 686 181 686 211.5 710 c 128,-1,4
 242 734 242 734 249 776 c 1,5,-1
 276 764 l 1,6,7
 267 702 267 702 227.5 665.5 c 128,-1,8
 188 629 188 629 141 629 c 0,9,10
 88 629 88 629 52 664.5 c 128,-1,11
 16 700 16 700 6 764 c 1,12,-1
 33 776 l 1,0,1
EndSplineSet
Validated: 1048577
EndChar

StartChar: tehta_grave
Encoding: 57428 57428 89
Width: 0
GlyphClass: 4
Flags: W
AnchorPoint: "Anchor-3" 160 900 basemark 0
AnchorPoint: "Anchor-3" 160 700 mark 0
AnchorPoint: "Anchor-1" 160 700 mark 0
LayerCount: 2
Fore
SplineSet
104 848 m 1,0,-1
 174 722 l 2,1,2
 180 710 180 710 180 698 c 0,3,4
 180 694 180 694 175.5 690.5 c 128,-1,5
 171 687 171 687 165 687 c 0,6,7
 157 687 157 687 136 707 c 2,8,-1
 22 816 l 1,9,-1
 24 827 l 1,10,11
 55 850 55 850 89 850 c 0,12,13
 96 850 96 850 104 848 c 1,0,-1
EndSplineSet
Validated: 1048577
EndChar

StartChar: yanta_above
Encoding: 57429 57429 90
Width: 3
GlyphClass: 4
Flags: W
AnchorPoint: "Anchor-3" 130 850 basemark 0
AnchorPoint: "Anchor-3" 130 700 mark 0
AnchorPoint: "Anchor-1" 130 700 mark 0
LayerCount: 2
Fore
SplineSet
144 811 m 1,0,1
 181 751 181 751 253 671 c 1,2,3
 243 657 243 657 230 654 c 1,4,5
 172 691 172 691 127 737 c 1,6,7
 71 681 71 681 23 654 c 1,8,9
 10 657 10 657 1 671 c 1,10,11
 77 755 77 755 112 811 c 1,12,13
 131 814 131 814 144 811 c 1,0,1
EndSplineSet
Validated: 1048609
EndChar

StartChar: tripledot_above_inverted
Encoding: 57430 57430 91
Width: 0
GlyphClass: 4
Flags: W
AnchorPoint: "Anchor-3" 157 950 basemark 0
AnchorPoint: "Anchor-3" 157 700 mark 0
AnchorPoint: "Anchor-1" 157 700 mark 0
LayerCount: 2
Fore
SplineSet
25 826 m 256,0,1
 25 846 25 846 39 860 c 128,-1,2
 53 874 53 874 72 874 c 128,-1,3
 91 874 91 874 105 860 c 128,-1,4
 119 846 119 846 119 826 c 256,5,6
 119 806 119 806 105 792 c 128,-1,7
 91 778 91 778 72 778 c 128,-1,8
 53 778 53 778 39 792 c 128,-1,9
 25 806 25 806 25 826 c 256,0,1
194 826 m 256,10,11
 194 846 194 846 207.5 860 c 128,-1,12
 221 874 221 874 241 874 c 128,-1,13
 261 874 261 874 274.5 860 c 128,-1,14
 288 846 288 846 288 826 c 256,15,16
 288 806 288 806 274 792 c 128,-1,17
 260 778 260 778 241 778 c 128,-1,18
 222 778 222 778 208 792 c 128,-1,19
 194 806 194 806 194 826 c 256,10,11
110 696 m 0,20,21
 110 715 110 715 124 729 c 128,-1,22
 138 743 138 743 157 743 c 128,-1,23
 176 743 176 743 190 729 c 128,-1,24
 204 715 204 715 204 696 c 0,25,26
 204 676 204 676 190 662 c 128,-1,27
 176 648 176 648 157 648 c 128,-1,28
 138 648 138 648 124 662 c 128,-1,29
 110 676 110 676 110 696 c 0,20,21
EndSplineSet
Validated: 1048577
EndChar

StartChar: thinnas
Encoding: 57431 57431 92
Width: 400
GlyphClass: 2
Flags: W
AnchorPoint: "Anchor-1" 218 750 basechar 0
AnchorPoint: "Anchor-0" 218 -200 basechar 0
LayerCount: 2
Fore
SplineSet
250 523 m 2,0,-1
 250 103 l 2,1,2
 250 52 250 52 241 12.5 c 128,-1,3
 232 -27 232 -27 214.5 -54 c 128,-1,4
 197 -81 197 -81 183.5 -96 c 128,-1,5
 170 -111 170 -111 148 -129 c 0,6,7
 98 -172 98 -172 31 -172 c 0,8,9
 9 -172 9 -172 -17.5 -157 c 128,-1,10
 -44 -142 -44 -142 -44 -118 c 0,11,12
 -44 -103 -44 -103 -28 -89 c 128,-1,13
 -12 -75 -12 -75 0 -75 c 0,14,15
 28 -75 28 -75 40 -100 c 0,16,17
 53 -127 53 -127 80 -127 c 0,18,19
 100 -127 100 -127 117 -114 c 128,-1,20
 134 -101 134 -101 149.5 -51.5 c 128,-1,21
 165 -2 165 -2 165 81 c 2,22,-1
 165 523 l 2,23,24
 165 583 165 583 148 597.5 c 128,-1,25
 131 612 131 612 68 614 c 0,26,27
 64 618 64 618 64 630 c 128,-1,28
 64 642 64 642 68 647 c 1,29,30
 168 645 168 645 207 645 c 0,31,32
 251 645 251 645 327 647 c 1,33,34
 332 642 332 642 332 630 c 128,-1,35
 332 618 332 618 327 614 c 0,36,37
 279 612 279 612 264.5 597 c 128,-1,38
 250 582 250 582 250 523 c 2,0,-1
EndSplineSet
Validated: 1
EndChar

StartChar: sarince_end
Encoding: 57432 57432 93
Width: 489
GlyphClass: 2
Flags: W
AnchorPoint: "Anchor-1" 247 750 basechar 0
AnchorPoint: "Anchor-0" 247 -100 basechar 0
LayerCount: 2
Fore
SplineSet
83 631 m 1,0,1
 97 633 97 633 138.5 645.5 c 128,-1,2
 180 658 180 658 237 658 c 0,3,4
 316 658 316 658 371.5 610 c 128,-1,5
 427 562 427 562 427 485 c 0,6,7
 427 414 427 414 380 371.5 c 128,-1,8
 333 329 333 329 252 298 c 0,9,10
 221 286 221 286 204.5 278 c 128,-1,11
 188 270 188 270 164 252.5 c 128,-1,12
 140 235 140 235 129 209.5 c 128,-1,13
 118 184 118 184 118 149 c 0,14,15
 118 89 118 89 150.5 57.5 c 128,-1,16
 183 26 183 26 243 26 c 0,17,18
 386 26 386 26 418 168 c 1,19,20
 435 173 435 173 451 165 c 1,21,22
 446 76 446 76 431 13 c 1,23,24
 403 13 403 13 351 1.5 c 128,-1,25
 299 -10 299 -10 251 -10 c 0,26,27
 181 -10 181 -10 128 23 c 0,28,29
 84 50 84 50 59 93 c 128,-1,30
 34 136 34 136 34 184 c 0,31,32
 34 256 34 256 78 298 c 128,-1,33
 122 340 122 340 196 368 c 0,34,35
 221 377 221 377 236.5 383.5 c 128,-1,36
 252 390 252 390 277.5 404 c 128,-1,37
 303 418 303 418 318 431.5 c 128,-1,38
 333 445 333 445 344.5 466.5 c 128,-1,39
 356 488 356 488 356 512 c 0,40,41
 356 555 356 555 323 589.5 c 128,-1,42
 290 624 290 624 246 624 c 0,43,44
 180 624 180 624 148 590 c 128,-1,45
 116 556 116 556 98 496 c 1,46,47
 78 492 78 492 65 502 c 1,48,49
 70 562 70 562 83 631 c 1,0,1
EndSplineSet
Validated: 33
EndChar

StartChar: sarince_combine
Encoding: 57433 57433 94
Width: 618
GlyphClass: 2
Flags: W
AnchorPoint: "Anchor-1" 316 750 basechar 0
AnchorPoint: "Anchor-0" 316 -100 basechar 0
LayerCount: 2
Fore
SplineSet
547 -2 m 1,0,1
 447 0 447 0 420 0 c 2,2,-1
 56 0 l 2,3,4
 37 0 37 0 37 15 c 0,5,6
 37 27 37 27 45 38 c 0,7,8
 125 157 125 157 244.5 323.5 c 128,-1,9
 364 490 364 490 434 579 c 0,10,11
 442 590 442 590 442 597 c 0,12,13
 442 606 442 606 432 606 c 2,14,-1
 221 602 l 2,15,16
 166 601 166 601 134.5 575 c 128,-1,17
 103 549 103 549 87 496 c 1,18,19
 74 496 74 496 57 501 c 1,20,21
 74 590 74 590 79 653 c 1,22,23
 178 645 178 645 260 645 c 2,24,-1
 481 645 l 2,25,26
 498 645 498 645 524 646 c 128,-1,27
 550 647 550 647 554 647 c 0,28,29
 567 647 567 647 567 636 c 0,30,31
 567 622 567 622 543 591 c 0,32,33
 387 390 387 390 168 72 c 0,34,35
 160 58 160 58 160 52 c 0,36,37
 160 38 160 38 185 38 c 2,38,-1
 378 42 l 2,39,40
 417 43 417 43 444.5 52 c 128,-1,41
 472 61 472 61 490.5 81.5 c 128,-1,42
 509 102 509 102 518.5 119 c 128,-1,43
 528 136 528 136 543 170 c 1,44,45
 556 170 556 170 574 165 c 1,46,47
 554 80 554 80 547 -2 c 1,0,1
EndSplineSet
Validated: 1
EndChar

StartChar: tehta_circumflex
Encoding: 57435 57435 95
Width: 3
GlyphClass: 4
Flags: W
AnchorPoint: "Anchor-3" 130 850 basemark 0
AnchorPoint: "Anchor-3" 130 700 mark 0
AnchorPoint: "Anchor-1" 130 700 mark 0
LayerCount: 2
Fore
SplineSet
144 811 m 1,0,1
 181 751 181 751 253 671 c 1,2,3
 243 657 243 657 230 654 c 1,4,5
 172 691 172 691 127 737 c 1,6,7
 71 681 71 681 23 654 c 1,8,9
 10 657 10 657 1 671 c 1,10,11
 77 755 77 755 112 811 c 1,12,13
 131 814 131 814 144 811 c 1,0,1
EndSplineSet
Validated: 1048609
EndChar

StartChar: tehta_caron
Encoding: 57436 57436 96
Width: 0
GlyphClass: 4
Flags: W
AnchorPoint: "Anchor-3" 120 850 basemark 0
AnchorPoint: "Anchor-3" 120 700 mark 0
AnchorPoint: "Anchor-1" 120 700 mark 0
LayerCount: 2
Fore
SplineSet
95 683 m 1,0,1
 57 745 57 745 -6 813 c 1,2,-1
 14 826 l 1,3,4
 85 774 85 774 120 736 c 1,5,6
 158 775 158 775 228 826 c 1,7,-1
 247 813 l 1,8,9
 180 738 180 738 145 683 c 1,10,-1
 95 683 l 1,0,1
EndSplineSet
Validated: 1048577
EndChar

StartChar: pusta
Encoding: 57440 57440 97
Width: 538
GlyphClass: 2
Flags: W
LayerCount: 2
Fore
SplineSet
211 354 m 128,-1,1
 211 376 211 376 226.5 391.5 c 128,-1,2
 242 407 242 407 264 407 c 128,-1,3
 286 407 286 407 301.5 391.5 c 128,-1,4
 317 376 317 376 317 354 c 128,-1,5
 317 332 317 332 301.5 316.5 c 128,-1,6
 286 301 286 301 264 301 c 128,-1,7
 242 301 242 301 226.5 316.5 c 128,-1,0
 211 332 211 332 211 354 c 128,-1,1
EndSplineSet
Validated: 1
EndChar

StartChar: pusta_double
Encoding: 57441 57441 98
Width: 224
GlyphClass: 2
Flags: W
LayerCount: 2
Fore
SplineSet
51 619 m 128,-1,1
 51 641 51 641 66.5 656.5 c 128,-1,2
 82 672 82 672 104 672 c 128,-1,3
 126 672 126 672 141.5 656.5 c 128,-1,4
 157 641 157 641 157 619 c 128,-1,5
 157 597 157 597 141.5 581.5 c 128,-1,6
 126 566 126 566 104 566 c 128,-1,7
 82 566 82 566 66.5 581.5 c 128,-1,0
 51 597 51 597 51 619 c 128,-1,1
51 90 m 128,-1,9
 51 112 51 112 66.5 127.5 c 128,-1,10
 82 143 82 143 104 143 c 128,-1,11
 126 143 126 143 141.5 127.5 c 128,-1,12
 157 112 157 112 157 90 c 128,-1,13
 157 68 157 68 141.5 52.5 c 128,-1,14
 126 37 126 37 104 37 c 128,-1,15
 82 37 82 37 66.5 52.5 c 128,-1,8
 51 68 51 68 51 90 c 128,-1,9
EndSplineSet
Validated: 1
EndChar

StartChar: pusta_triple
Encoding: 57442 57442 99
Width: 224
GlyphClass: 2
Flags: W
LayerCount: 2
Fore
SplineSet
51 619 m 128,-1,1
 51 641 51 641 66.5 656.5 c 128,-1,2
 82 672 82 672 104 672 c 128,-1,3
 126 672 126 672 141.5 656.5 c 128,-1,4
 157 641 157 641 157 619 c 128,-1,5
 157 597 157 597 141.5 581.5 c 128,-1,6
 126 566 126 566 104 566 c 128,-1,7
 82 566 82 566 66.5 581.5 c 128,-1,0
 51 597 51 597 51 619 c 128,-1,1
51 90 m 128,-1,9
 51 112 51 112 66.5 127.5 c 128,-1,10
 82 143 82 143 104 143 c 128,-1,11
 126 143 126 143 141.5 127.5 c 128,-1,12
 157 112 157 112 157 90 c 128,-1,13
 157 68 157 68 141.5 52.5 c 128,-1,14
 126 37 126 37 104 37 c 128,-1,15
 82 37 82 37 66.5 52.5 c 128,-1,8
 51 68 51 68 51 90 c 128,-1,9
51 354 m 128,-1,17
 51 376 51 376 66.5 391.5 c 128,-1,18
 82 407 82 407 104 407 c 128,-1,19
 126 407 126 407 141.5 391.5 c 128,-1,20
 157 376 157 376 157 354 c 128,-1,21
 157 332 157 332 141.5 316.5 c 128,-1,22
 126 301 126 301 104 301 c 128,-1,23
 82 301 82 301 66.5 316.5 c 128,-1,16
 51 332 51 332 51 354 c 128,-1,17
EndSplineSet
Validated: 1
EndChar

StartChar: pusta_quadruple
Encoding: 57443 57443 100
Width: 538
GlyphClass: 2
Flags: W
LayerCount: 2
Fore
SplineSet
211 619 m 128,-1,1
 211 641 211 641 226.5 656.5 c 128,-1,2
 242 672 242 672 264 672 c 128,-1,3
 286 672 286 672 301.5 656.5 c 128,-1,4
 317 641 317 641 317 619 c 128,-1,5
 317 597 317 597 301.5 581.5 c 128,-1,6
 286 566 286 566 264 566 c 128,-1,7
 242 566 242 566 226.5 581.5 c 128,-1,0
 211 597 211 597 211 619 c 128,-1,1
211 90 m 128,-1,9
 211 112 211 112 226.5 127.5 c 128,-1,10
 242 143 242 143 264 143 c 128,-1,11
 286 143 286 143 301.5 127.5 c 128,-1,12
 317 112 317 112 317 90 c 128,-1,13
 317 68 317 68 301.5 52.5 c 128,-1,14
 286 37 286 37 264 37 c 128,-1,15
 242 37 242 37 226.5 52.5 c 128,-1,8
 211 68 211 68 211 90 c 128,-1,9
59 300 m 128,-1,17
 38 300 38 300 21.5 316.5 c 128,-1,18
 5 333 5 333 5 354 c 128,-1,19
 5 375 5 375 21.5 391.5 c 128,-1,20
 38 408 38 408 59 408 c 128,-1,21
 80 408 80 408 96.5 391.5 c 128,-1,22
 113 375 113 375 113 354 c 128,-1,23
 113 333 113 333 96.5 316.5 c 128,-1,16
 80 300 80 300 59 300 c 128,-1,17
467 300 m 128,-1,25
 446 300 446 300 429.5 316.5 c 128,-1,26
 413 333 413 333 413 354 c 128,-1,27
 413 375 413 375 429.5 391.5 c 128,-1,28
 446 408 446 408 467 408 c 128,-1,29
 488 408 488 408 504.5 391.5 c 128,-1,30
 521 375 521 375 521 354 c 128,-1,31
 521 333 521 333 504.5 316.5 c 128,-1,24
 488 300 488 300 467 300 c 128,-1,25
EndSplineSet
Validated: 1
EndChar

StartChar: pusta_quintuple
Encoding: 57444 57444 101
Width: 538
GlyphClass: 2
Flags: W
LayerCount: 2
Fore
SplineSet
211 619 m 128,-1,1
 211 641 211 641 226.5 656.5 c 128,-1,2
 242 672 242 672 264 672 c 128,-1,3
 286 672 286 672 301.5 656.5 c 128,-1,4
 317 641 317 641 317 619 c 128,-1,5
 317 597 317 597 301.5 581.5 c 128,-1,6
 286 566 286 566 264 566 c 128,-1,7
 242 566 242 566 226.5 581.5 c 128,-1,0
 211 597 211 597 211 619 c 128,-1,1
211 90 m 128,-1,9
 211 112 211 112 226.5 127.5 c 128,-1,10
 242 143 242 143 264 143 c 128,-1,11
 286 143 286 143 301.5 127.5 c 128,-1,12
 317 112 317 112 317 90 c 128,-1,13
 317 68 317 68 301.5 52.5 c 128,-1,14
 286 37 286 37 264 37 c 128,-1,15
 242 37 242 37 226.5 52.5 c 128,-1,8
 211 68 211 68 211 90 c 128,-1,9
211 354 m 128,-1,17
 211 376 211 376 226.5 391.5 c 128,-1,18
 242 407 242 407 264 407 c 128,-1,19
 286 407 286 407 301.5 391.5 c 128,-1,20
 317 376 317 376 317 354 c 128,-1,21
 317 332 317 332 301.5 316.5 c 128,-1,22
 286 301 286 301 264 301 c 128,-1,23
 242 301 242 301 226.5 316.5 c 128,-1,16
 211 332 211 332 211 354 c 128,-1,17
59 300 m 128,-1,25
 38 300 38 300 21.5 316.5 c 128,-1,26
 5 333 5 333 5 354 c 128,-1,27
 5 375 5 375 21.5 391.5 c 128,-1,28
 38 408 38 408 59 408 c 128,-1,29
 80 408 80 408 96.5 391.5 c 128,-1,30
 113 375 113 375 113 354 c 128,-1,31
 113 333 113 333 96.5 316.5 c 128,-1,24
 80 300 80 300 59 300 c 128,-1,25
467 300 m 128,-1,33
 446 300 446 300 429.5 316.5 c 128,-1,34
 413 333 413 333 413 354 c 128,-1,35
 413 375 413 375 429.5 391.5 c 128,-1,36
 446 408 446 408 467 408 c 128,-1,37
 488 408 488 408 504.5 391.5 c 128,-1,38
 521 375 521 375 521 354 c 128,-1,39
 521 333 521 333 504.5 316.5 c 128,-1,32
 488 300 488 300 467 300 c 128,-1,33
EndSplineSet
Validated: 1
EndChar

StartChar: tengwa_exclamation
Encoding: 57445 57445 102
Width: 280
GlyphClass: 2
Flags: W
LayerCount: 2
Fore
SplineSet
114 -7 m 1,0,-1
 114 572 l 1,1,-1
 171 572 l 1,2,-1
 171 -7 l 1,3,-1
 114 -7 l 1,0,-1
EndSplineSet
Validated: 1
EndChar

StartChar: tengwa_question
Encoding: 57446 57446 103
Width: 560
GlyphClass: 2
Flags: W
LayerCount: 2
Fore
SplineSet
110 122 m 2,0,-1
 110 477 l 2,1,2
 110 536 110 536 130.5 581 c 128,-1,3
 151 626 151 626 183 650 c 128,-1,4
 214.999023438 673.999023438 214.999023438 673.999023438 248.5 686 c 128,-1,5
 282 698 282 698 314 698 c 0,6,7
 386 698 386 698 426 663 c 128,-1,8
 466 628 466 628 466 587 c 0,9,10
 466 551 466 551 446.5 517.5 c 128,-1,11
 427 484 427 484 404.5 464 c 128,-1,12
 382 444 382 444 338 411 c 1,13,-1
 338 409 l 1,14,15
 378 383 378 383 401 365 c 128,-1,16
 424 347 424 347 455.5 316.5 c 128,-1,17
 487 286 487 286 502.5 250 c 128,-1,18
 518 214 518 214 518 173 c 0,19,20
 518 94 518 94 474.5 42 c 128,-1,21
 431 -10 431 -10 362 -10 c 0,22,23
 305 -10 305 -10 281.5 18 c 128,-1,24
 258 46 258 46 258 86 c 0,25,26
 258 98 258 98 267.5 109.5 c 128,-1,27
 277 121 277 121 289 121 c 0,28,29
 317 121 317 121 317 91 c 0,30,31
 317 82 317 82 313 70 c 128,-1,32
 309 58 309 58 309 53 c 0,33,34
 309 39 309 39 318.5 32 c 128,-1,35
 327.998046875 25.0009765625 327.998046875 25.0009765625 337 24 c 128,-1,36
 346 23 346 23 362 23 c 0,37,38
 388 23 388 23 410.5 58 c 128,-1,39
 433 93 433 93 433 156 c 0,40,41
 433 278 433 278 278 396 c 1,42,-1
 278 409 l 1,43,44
 334 452 334 452 358.5 487.5 c 128,-1,45
 383 523 383 523 383 574 c 0,46,47
 383 616 383 616 363.5 640.5 c 128,-1,48
 344 665 344 665 305 665 c 0,49,50
 268 665 268 665 243.5 646.5 c 128,-1,51
 219 628 219 628 208 593 c 128,-1,52
 197 558 197 558 193 523.5 c 128,-1,53
 189 489 189 489 189 442 c 2,54,-1
 189 122 l 2,55,56
 189 64 189 64 198 49.5 c 128,-1,57
 207 35 207 35 237 31 c 1,58,59
 242 26 242 26 242 14 c 128,-1,60
 242 2 242 2 237 -2 c 1,61,62
 191 0 191 0 150 0 c 0,63,64
 101 0 101 0 41 -2 c 1,65,66
 36 2 36 2 36 14 c 128,-1,67
 36 26 36 26 41 31 c 1,68,69
 86 33 86 33 98 47.5 c 128,-1,70
 110 62 110 62 110 122 c 2,0,-1
EndSplineSet
Validated: 1
EndChar

StartChar: tengwa_parenthesis
Encoding: 57447 57447 104
Width: 265
GlyphClass: 2
Flags: W
LayerCount: 2
Fore
SplineSet
154 -7 m 1,0,-1
 154 572 l 1,1,-1
 211 572 l 1,2,-1
 211 -7 l 1,3,-1
 154 -7 l 1,0,-1
64 -7 m 1,4,-1
 64 572 l 1,5,-1
 121 572 l 1,6,-1
 121 -7 l 1,7,-1
 64 -7 l 1,4,-1
EndSplineSet
Validated: 1
EndChar

StartChar: tengwa_section
Encoding: 57448 57448 105
Width: 434
GlyphClass: 2
Flags: W
LayerCount: 2
Fore
SplineSet
154 348 m 2,0,-1
 266 348 l 2,1,2
 326 348 326 348 340.5 359 c 128,-1,3
 355 370 355 370 357 406 c 1,4,5
 362 410 362 410 374 410 c 128,-1,6
 386 410 386 410 390 406 c 1,7,8
 388 346 388 346 388 322 c 0,9,10
 388 304 388 304 390 234 c 1,11,12
 386 230 386 230 374 230 c 128,-1,13
 362 230 362 230 357 234 c 1,14,15
 355 255 355 255 351 265 c 128,-1,16
 347 275 347 275 326.5 283.5 c 128,-1,17
 306 292 306 292 266 292 c 2,18,-1
 154 292 l 2,19,20
 94 292 94 292 79.5 281 c 128,-1,21
 65 270 65 270 63 234 c 1,22,23
 58 230 58 230 46 230 c 128,-1,24
 34 230 34 230 30 234 c 1,25,26
 32 294 32 294 32 318 c 0,27,28
 32 336 32 336 30 406 c 1,29,30
 34 410 34 410 46 410 c 128,-1,31
 58 410 58 410 63 406 c 1,32,33
 65 385 65 385 69 375 c 128,-1,34
 73 365 73 365 93.5 356.5 c 128,-1,35
 114 348 114 348 154 348 c 2,0,-1
EndSplineSet
Validated: 1
EndChar

StartChar: tengwa_section_double
Encoding: 57449 57449 106
Width: 434
GlyphClass: 2
Flags: W
LayerCount: 2
Fore
SplineSet
154 268 m 2,0,-1
 266 268 l 2,1,2
 326 268 326 268 340.5 279 c 128,-1,3
 355 290 355 290 357 326 c 1,4,5
 362 330 362 330 374 330 c 128,-1,6
 386 330 386 330 390 326 c 1,7,8
 388 266 388 266 388 242 c 0,9,10
 388 224 388 224 390 154 c 1,11,12
 386 150 386 150 374 150 c 128,-1,13
 362 150 362 150 357 154 c 1,14,15
 355 175 355 175 351 185 c 128,-1,16
 347 195 347 195 326.5 203.5 c 128,-1,17
 306 212 306 212 266 212 c 2,18,-1
 154 212 l 2,19,20
 94 212 94 212 79.5 201 c 128,-1,21
 65 190 65 190 63 154 c 1,22,23
 58 150 58 150 46 150 c 128,-1,24
 34 150 34 150 30 154 c 1,25,26
 32 214 32 214 32 238 c 0,27,28
 32 256 32 256 30 326 c 1,29,30
 34 330 34 330 46 330 c 128,-1,31
 58 330 58 330 63 326 c 1,32,33
 65 305 65 305 69 295 c 128,-1,34
 73 285 73 285 93.5 276.5 c 128,-1,35
 114 268 114 268 154 268 c 2,0,-1
154 418 m 2,36,-1
 266 418 l 2,37,38
 326 418 326 418 340.5 429 c 128,-1,39
 355 440 355 440 357 476 c 1,40,41
 362 480 362 480 374 480 c 128,-1,42
 386 480 386 480 390 476 c 1,43,44
 388 416 388 416 388 392 c 0,45,46
 388 374 388 374 390 304 c 1,47,48
 386 300 386 300 374 300 c 128,-1,49
 362 300 362 300 357 304 c 1,50,51
 355 325 355 325 351 335 c 128,-1,52
 347 345 347 345 326.5 353.5 c 128,-1,53
 306 362 306 362 266 362 c 2,54,-1
 154 362 l 2,55,56
 94 362 94 362 79.5 351 c 128,-1,57
 65 340 65 340 63 304 c 1,58,59
 58 300 58 300 46 300 c 128,-1,60
 34 300 34 300 30 304 c 1,61,62
 32 364 32 364 32 388 c 0,63,64
 32 406 32 406 30 476 c 1,65,66
 34 480 34 480 46 480 c 128,-1,67
 58 480 58 480 63 476 c 1,68,69
 65 455 65 455 69 445 c 128,-1,70
 73 435 73 435 93.5 426.5 c 128,-1,71
 114 418 114 418 154 418 c 2,36,-1
EndSplineSet
Validated: 5
EndChar

StartChar: tengwa_quotation_up
Encoding: 57450 57450 107
Width: 378
GlyphClass: 2
Flags: W
LayerCount: 2
Fore
SplineSet
114 508 m 0,0,1
 84 508 84 508 66 535 c 128,-1,2
 48 562 48 562 48 607 c 0,3,4
 48 657 48 657 83 692 c 128,-1,5
 118 727 118 727 166 736 c 1,6,7
 175 727 175 727 175 712 c 1,8,9
 139 703 139 703 113 676.5 c 128,-1,10
 87 650 87 650 87 632 c 0,11,12
 87 605 87 605 123 601 c 0,13,14
 167 594 167 594 167 557 c 0,15,16
 167 536 167 536 152 522 c 128,-1,17
 137 508 137 508 114 508 c 0,0,1
271 508 m 0,18,19
 241 508 241 508 223 535 c 128,-1,20
 205 562 205 562 205 607 c 0,21,22
 205 657 205 657 240 692 c 128,-1,23
 275 727 275 727 323 736 c 1,24,25
 332 727 332 727 332 712 c 1,26,27
 296 703 296 703 270 676.5 c 128,-1,28
 244 650 244 650 244 632 c 0,29,30
 244 605 244 605 280 601 c 0,31,32
 324 594 324 594 324 557 c 0,33,34
 324 536 324 536 309 522 c 128,-1,35
 294 508 294 508 271 508 c 0,18,19
EndSplineSet
Validated: 1
EndChar

StartChar: tengwa_quotation_down
Encoding: 57451 57451 108
Width: 384
GlyphClass: 2
Flags: W
LayerCount: 2
Fore
SplineSet
105 94 m 0,0,1
 135 94 135 94 153 67 c 128,-1,2
 171 40 171 40 171 -5 c 0,3,4
 171 -55 171 -55 136 -90 c 128,-1,5
 101 -125 101 -125 53 -134 c 1,6,7
 44 -125 44 -125 44 -110 c 1,8,9
 80 -101 80 -101 106 -74.5 c 128,-1,10
 132 -48 132 -48 132 -30 c 0,11,12
 132 -3 132 -3 96 1 c 0,13,14
 52 8 52 8 52 45 c 0,15,16
 52 66 52 66 67 80 c 128,-1,17
 82 94 82 94 105 94 c 0,0,1
262 94 m 0,18,19
 292 94 292 94 310 67 c 128,-1,20
 328 40 328 40 328 -5 c 0,21,22
 328 -55 328 -55 293 -90 c 128,-1,23
 258 -125 258 -125 210 -134 c 1,24,25
 201 -125 201 -125 201 -110 c 1,26,27
 237 -101 237 -101 263 -74.5 c 128,-1,28
 289 -48 289 -48 289 -30 c 0,29,30
 289 -3 289 -3 253 1 c 0,31,32
 209 8 209 8 209 45 c 0,33,34
 209 66 209 66 224 80 c 128,-1,35
 239 94 239 94 262 94 c 0,18,19
EndSplineSet
Validated: 1
EndChar

StartChar: digit_zero
Encoding: 57456 57456 109
Width: 548
GlyphClass: 2
Flags: W
AnchorPoint: "Anchor-1" 282 750 basechar 0
AnchorPoint: "Anchor-0" 222 -100 basechar 0
LayerCount: 2
Fore
SplineSet
239 610 m 0,0,1
 364 610 364 610 446 528 c 0,2,3
 530 442 530 442 530 316 c 0,4,5
 530 173 530 173 448.5 81.5 c 128,-1,6
 367 -10 367 -10 246 -10 c 0,7,8
 185 -10 185 -10 144 -2 c 128,-1,9
 103 6 103 6 78.5 16.5 c 128,-1,10
 54 27 54 27 49 28 c 1,11,12
 35 85 35 85 29 178 c 1,13,14
 40 185 40 185 58 182 c 1,15,16
 102 24 102 24 244 24 c 0,17,18
 276 24 276 24 308.5 38.5 c 128,-1,19
 341 53 341 53 371.5 83 c 128,-1,20
 402 113 402 113 421 170 c 128,-1,21
 440 227 440 227 440 302 c 0,22,23
 440 409 440 409 381.5 488 c 128,-1,24
 323 567 323 567 232 567 c 0,25,26
 168 567 168 567 129.5 545.5 c 128,-1,27
 91 524 91 524 41 462 c 1,28,29
 22 465 22 465 16 477 c 1,30,31
 62 545 62 545 115 577.5 c 128,-1,32
 168 610 168 610 239 610 c 0,0,1
EndSplineSet
Validated: 1
EndChar

StartChar: digit_one
Encoding: 57457 57457 110
Width: 306
GlyphClass: 2
Flags: W
AnchorPoint: "Anchor-1" 150 750 basechar 0
AnchorPoint: "Anchor-0" 150 -100 basechar 0
LayerCount: 2
Fore
SplineSet
186 78 m 2,0,1
 186 55 186 55 199 45.5 c 128,-1,2
 212 36 212 36 243 31 c 2,3,-1
 256 29 l 2,4,5
 264 27 264 27 264 20 c 2,6,-1
 264 0 l 1,7,-1
 263 -2 l 1,8,9
 189 0 189 0 148 0 c 0,10,11
 131 0 131 0 102.5 -0.5 c 128,-1,12
 74 -1 74 -1 54 -2 c 2,13,-1
 33 -2 l 1,14,-1
 31 0 l 1,15,-1
 31 20 l 2,16,17
 31 27 31 27 39 29 c 2,18,-1
 52 31 l 2,19,20
 85 36 85 36 97.5 46 c 128,-1,21
 110 56 110 56 110 78 c 2,22,-1
 110 523 l 2,23,24
 110 546 110 546 97.5 554.5 c 128,-1,25
 85 563 85 563 52 569 c 2,26,-1
 40 572 l 2,27,28
 31 574 31 574 31 580 c 2,29,-1
 31 600 l 1,30,-1
 33 602 l 1,31,32
 107 600 107 600 148 600 c 0,33,34
 164 600 164 600 193 600.5 c 128,-1,35
 222 601 222 601 242 602 c 2,36,-1
 263 602 l 1,37,-1
 264 600 l 1,38,-1
 264 580 l 2,39,40
 264 573 264 573 257 572 c 2,41,-1
 243 569 l 2,42,43
 210 564 210 564 198 554 c 128,-1,44
 186 544 186 544 186 523 c 2,45,-1
 186 78 l 2,0,1
EndSplineSet
Validated: 1
EndChar

StartChar: digit_two
Encoding: 57458 57458 111
Width: 520
GlyphClass: 2
Flags: W
AnchorPoint: "Anchor-1" 270 750 basechar 0
AnchorPoint: "Anchor-0" 270 -100 basechar 0
LayerCount: 2
Fore
SplineSet
410 78 m 2,0,1
 410 55 410 55 422.5 46 c 128,-1,2
 435 37 435 37 467 31 c 2,3,-1
 480 29 l 2,4,5
 488 27 488 27 488 20 c 2,6,-1
 488 0 l 1,7,-1
 486 -2 l 1,8,9
 413 0 413 0 372 0 c 2,10,-1
 146 0 l 2,11,12
 129 0 129 0 100.5 -0.5 c 128,-1,13
 72 -1 72 -1 52 -2 c 2,14,-1
 31 -2 l 1,15,-1
 29 0 l 1,16,-1
 29 20 l 2,17,18
 29 27 29 27 37 29 c 2,19,-1
 50 31 l 2,20,21
 83 36 83 36 95.5 46 c 128,-1,22
 108 56 108 56 108 78 c 2,23,-1
 108 523 l 2,24,25
 108 546 108 546 95 555 c 128,-1,26
 82 564 82 564 50 569 c 2,27,-1
 37 572 l 2,28,29
 29 574 29 574 29 580 c 2,30,-1
 29 600 l 1,31,-1
 31 602 l 1,32,33
 104 600 104 600 145 600 c 2,34,-1
 372 600 l 2,35,36
 388 600 388 600 416.5 600.5 c 128,-1,37
 445 601 445 601 466 602 c 2,38,-1
 486 602 l 1,39,-1
 488 600 l 1,40,-1
 488 580 l 2,41,42
 488 574 488 574 480 572 c 2,43,-1
 467 569 l 2,44,45
 434 564 434 564 422 554 c 128,-1,46
 410 544 410 544 410 523 c 2,47,-1
 410 78 l 2,0,1
184 78 m 2,48,49
 184 53 184 53 197 42 c 128,-1,50
 210 31 210 31 241 31 c 2,51,-1
 276 31 l 2,52,53
 334 31 334 31 334 78 c 2,54,-1
 334 523 l 2,55,56
 334 547 334 547 320.5 558 c 128,-1,57
 307 569 307 569 276 569 c 2,58,-1
 241 569 l 2,59,60
 184 569 184 569 184 523 c 2,61,-1
 184 78 l 2,48,49
EndSplineSet
Validated: 1
EndChar

StartChar: digit_three
Encoding: 57459 57459 112
Width: 760
GlyphClass: 2
Flags: W
AnchorPoint: "Anchor-1" 380 750 basechar 0
AnchorPoint: "Anchor-0" 380 -100 basechar 0
LayerCount: 2
Fore
SplineSet
639 78 m 2,0,1
 639 54 639 54 651 45.5 c 128,-1,2
 663 37 663 37 696 31 c 2,3,-1
 709 29 l 2,4,5
 717 27 717 27 717 20 c 2,6,-1
 717 0 l 1,7,-1
 715 -2 l 1,8,9
 642 0 642 0 601 0 c 2,10,-1
 148 0 l 2,11,12
 131 0 131 0 102.5 -0.5 c 128,-1,13
 74 -1 74 -1 54 -2 c 2,14,-1
 33 -2 l 1,15,-1
 31 0 l 1,16,-1
 31 20 l 2,17,18
 31 27 31 27 39 29 c 2,19,-1
 52 31 l 2,20,21
 84 36 84 36 97 46 c 128,-1,22
 110 56 110 56 110 78 c 2,23,-1
 110 523 l 2,24,25
 110 546 110 546 98 554.5 c 128,-1,26
 86 563 86 563 52 569 c 2,27,-1
 40 572 l 2,28,29
 31 574 31 574 31 580 c 2,30,-1
 31 600 l 1,31,-1
 33 602 l 1,32,33
 107 600 107 600 148 600 c 2,34,-1
 600 600 l 2,35,36
 617 600 617 600 645.5 600.5 c 128,-1,37
 674 601 674 601 694 602 c 2,38,-1
 715 602 l 1,39,-1
 717 600 l 1,40,-1
 717 580 l 2,41,42
 717 574 717 574 709 572 c 2,43,-1
 696 569 l 2,44,45
 664 564 664 564 651.5 554 c 128,-1,46
 639 544 639 544 639 523 c 2,47,-1
 639 78 l 2,0,1
412 78 m 2,48,49
 412 53 412 53 425.5 42 c 128,-1,50
 439 31 439 31 470 31 c 2,51,-1
 505 31 l 2,52,53
 563 31 563 31 563 78 c 2,54,-1
 563 523 l 2,55,56
 563 547 563 547 549.5 558 c 128,-1,57
 536 569 536 569 505 569 c 2,58,-1
 470 569 l 2,59,60
 412 569 412 569 412 523 c 2,61,-1
 412 78 l 2,48,49
186 78 m 2,62,63
 186 53 186 53 199 42 c 128,-1,64
 212 31 212 31 243 31 c 2,65,-1
 279 31 l 2,66,67
 336 31 336 31 336 78 c 2,68,-1
 336 523 l 2,69,70
 336 547 336 547 322.5 558 c 128,-1,71
 309 569 309 569 279 569 c 2,72,-1
 243 569 l 2,73,74
 186 569 186 569 186 523 c 2,75,-1
 186 78 l 2,62,63
EndSplineSet
Validated: 1
EndChar

StartChar: digit_four
Encoding: 57460 57460 113
Width: 314
GlyphClass: 2
Flags: W
AnchorPoint: "Anchor-1" 140 750 basechar 0
AnchorPoint: "Anchor-0" 140 -250 basechar 0
LayerCount: 2
Fore
SplineSet
100 473 m 2,0,1
 100 505 100 505 96.5 522 c 128,-1,2
 93 539 93 539 83 548.5 c 128,-1,3
 73 558 73 558 60.5 560.5 c 128,-1,4
 48 563 48 563 22 564 c 0,5,6
 18 568 18 568 18 580 c 128,-1,7
 18 592 18 592 22 597 c 1,8,9
 98 595 98 595 142 595 c 0,10,11
 182 595 182 595 282 597 c 1,12,13
 286 592 286 592 286 580 c 128,-1,14
 286 568 286 568 282 564 c 0,15,16
 247 563 247 563 231.5 560.5 c 128,-1,17
 216 558 216 558 203.5 548.5 c 128,-1,18
 191 539 191 539 187.5 522 c 128,-1,19
 184 505 184 505 184 473 c 2,20,-1
 184 31 l 2,21,22
 184 -33 184 -33 192.5 -77 c 128,-1,23
 201 -121 201 -121 215 -141 c 128,-1,24
 229 -161 229 -161 242 -169 c 128,-1,25
 255 -177 255 -177 270 -177 c 0,26,27
 297 -177 297 -177 310 -150 c 0,28,29
 322 -125 322 -125 350 -125 c 0,30,31
 361 -125 361 -125 377.5 -139 c 128,-1,32
 394 -153 394 -153 394 -168 c 0,33,34
 394 -192 394 -192 367 -207 c 128,-1,35
 340 -222 340 -222 318 -222 c 0,36,37
 283 -222 283 -222 257 -213 c 128,-1,38
 231 -204 231 -204 202 -179 c 0,39,40
 180 -161 180 -161 166.5 -146 c 128,-1,41
 153 -131 153 -131 135 -104 c 128,-1,42
 117 -77 117 -77 108.5 -37.5 c 128,-1,43
 100 2 100 2 100 53 c 2,44,-1
 100 473 l 2,0,1
EndSplineSet
Validated: 1
EndChar

StartChar: digit_five
Encoding: 57461 57461 114
Width: 512
GlyphClass: 2
Flags: W
AnchorPoint: "Anchor-1" 270 750 basechar 0
AnchorPoint: "Anchor-0" 140 -250 basechar 0
LayerCount: 2
Fore
SplineSet
98 473 m 2,0,1
 98 505 98 505 94.5 522 c 128,-1,2
 91 539 91 539 81 548.5 c 128,-1,3
 71 558 71 558 58.5 560.5 c 128,-1,4
 46 563 46 563 20 564 c 0,5,6
 16 568 16 568 16 580 c 128,-1,7
 16 592 16 592 20 597 c 1,8,9
 96 595 96 595 140 595 c 0,10,11
 180 595 180 595 280 597 c 1,12,13
 284 592 284 592 284 580 c 128,-1,14
 284 568 284 568 280 564 c 0,15,16
 245 563 245 563 229.5 560.5 c 128,-1,17
 214 558 214 558 201.5 548.5 c 128,-1,18
 189 539 189 539 185.5 522 c 128,-1,19
 182 505 182 505 182 473 c 2,20,-1
 182 31 l 2,21,22
 182 -33 182 -33 190.5 -77 c 128,-1,23
 199 -121 199 -121 213 -141 c 128,-1,24
 227 -161 227 -161 240 -169 c 128,-1,25
 253 -177 253 -177 268 -177 c 0,26,27
 295 -177 295 -177 308 -150 c 0,28,29
 320 -125 320 -125 348 -125 c 0,30,31
 359 -125 359 -125 375.5 -139 c 128,-1,32
 392 -153 392 -153 392 -168 c 0,33,34
 392 -192 392 -192 365 -207 c 128,-1,35
 338 -222 338 -222 316 -222 c 0,36,37
 281 -222 281 -222 255 -213 c 128,-1,38
 229 -204 229 -204 200 -179 c 0,39,40
 178 -161 178 -161 164.5 -146 c 128,-1,41
 151 -131 151 -131 133 -104 c 128,-1,42
 115 -77 115 -77 106.5 -37.5 c 128,-1,43
 98 2 98 2 98 53 c 2,44,-1
 98 473 l 2,0,1
409 473 m 2,45,-1
 409 257 l 2,46,47
 409 225 409 225 411.5 208.5 c 128,-1,48
 414 192 414 192 423 182 c 128,-1,49
 432 172 432 172 443.5 170 c 128,-1,50
 455 168 455 168 481 166 c 1,51,52
 486 161 486 161 486 149 c 128,-1,53
 486 137 486 137 481 133 c 1,54,55
 411 135 411 135 370 135 c 0,56,57
 332 135 332 135 258 133 c 1,58,59
 254 137 254 137 254 149 c 128,-1,60
 254 161 254 161 258 166 c 1,61,62
 285 168 285 168 296 170.5 c 128,-1,63
 307 173 307 173 316.5 182.5 c 128,-1,64
 326 192 326 192 328 208.5 c 128,-1,65
 330 225 330 225 330 257 c 2,66,-1
 330 473 l 2,67,68
 330 505 330 505 328 521.5 c 128,-1,69
 326 538 326 538 316.5 548 c 128,-1,70
 307 558 307 558 295.5 560 c 128,-1,71
 284 562 284 562 258 564 c 0,72,73
 254 568 254 568 254 580 c 128,-1,74
 254 592 254 592 258 597 c 1,75,76
 336 595 336 595 369 595 c 0,77,78
 405 595 405 595 481 597 c 1,79,80
 486 592 486 592 486 580 c 128,-1,81
 486 568 486 568 481 564 c 0,82,83
 455 562 455 562 444 559.5 c 128,-1,84
 433 557 433 557 423 547.5 c 128,-1,85
 413 538 413 538 411 521.5 c 128,-1,86
 409 505 409 505 409 473 c 2,45,-1
EndSplineSet
Validated: 5
EndChar

StartChar: digit_six
Encoding: 57462 57462 115
Width: 696
GlyphClass: 2
Flags: W
AnchorPoint: "Anchor-1" 380 750 basechar 0
AnchorPoint: "Anchor-0" 140 -250 basechar 0
LayerCount: 2
Fore
SplineSet
100 473 m 2,0,1
 100 505 100 505 96.5 522 c 128,-1,2
 93 539 93 539 83 548.5 c 128,-1,3
 73 558 73 558 60.5 560.5 c 128,-1,4
 48 563 48 563 22 564 c 0,5,6
 18 568 18 568 18 580 c 128,-1,7
 18 592 18 592 22 597 c 1,8,9
 98 595 98 595 142 595 c 0,10,11
 182 595 182 595 282 597 c 1,12,13
 286 592 286 592 286 580 c 128,-1,14
 286 568 286 568 282 564 c 0,15,16
 247 563 247 563 231.5 560.5 c 128,-1,17
 216 558 216 558 203.5 548.5 c 128,-1,18
 191 539 191 539 187.5 522 c 128,-1,19
 184 505 184 505 184 473 c 2,20,-1
 184 31 l 2,21,22
 184 -33 184 -33 192.5 -77 c 128,-1,23
 201 -121 201 -121 215 -141 c 128,-1,24
 229 -161 229 -161 242 -169 c 128,-1,25
 255 -177 255 -177 270 -177 c 0,26,27
 297 -177 297 -177 310 -150 c 0,28,29
 322 -125 322 -125 350 -125 c 0,30,31
 361 -125 361 -125 377.5 -139 c 128,-1,32
 394 -153 394 -153 394 -168 c 0,33,34
 394 -192 394 -192 367 -207 c 128,-1,35
 340 -222 340 -222 318 -222 c 0,36,37
 283 -222 283 -222 257 -213 c 128,-1,38
 231 -204 231 -204 202 -179 c 0,39,40
 180 -161 180 -161 166.5 -146 c 128,-1,41
 153 -131 153 -131 135 -104 c 128,-1,42
 117 -77 117 -77 108.5 -37.5 c 128,-1,43
 100 2 100 2 100 53 c 2,44,-1
 100 473 l 2,0,1
411 473 m 2,45,-1
 411 257 l 2,46,47
 411 225 411 225 413.5 208.5 c 128,-1,48
 416 192 416 192 425 182 c 128,-1,49
 434 172 434 172 445.5 170 c 128,-1,50
 457 168 457 168 483 166 c 1,51,52
 488 161 488 161 488 149 c 128,-1,53
 488 137 488 137 483 133 c 1,54,55
 413 135 413 135 372 135 c 0,56,57
 334 135 334 135 260 133 c 1,58,59
 256 137 256 137 256 149 c 128,-1,60
 256 161 256 161 260 166 c 1,61,62
 287 168 287 168 298 170.5 c 128,-1,63
 309 173 309 173 318.5 182.5 c 128,-1,64
 328 192 328 192 330 208.5 c 128,-1,65
 332 225 332 225 332 257 c 2,66,-1
 332 473 l 2,67,68
 332 505 332 505 330 521.5 c 128,-1,69
 328 538 328 538 318.5 548 c 128,-1,70
 309 558 309 558 297.5 560 c 128,-1,71
 286 562 286 562 260 564 c 0,72,73
 256 568 256 568 256 580 c 128,-1,74
 256 592 256 592 260 597 c 1,75,76
 338 595 338 595 371 595 c 0,77,78
 407 595 407 595 483 597 c 1,79,80
 488 592 488 592 488 580 c 128,-1,81
 488 568 488 568 483 564 c 0,82,83
 457 562 457 562 446 559.5 c 128,-1,84
 435 557 435 557 425 547.5 c 128,-1,85
 415 538 415 538 413 521.5 c 128,-1,86
 411 505 411 505 411 473 c 2,45,-1
594 474 m 2,87,-1
 594 258 l 2,88,89
 594 225 594 225 596 208.5 c 128,-1,90
 598 192 598 192 607.5 182.5 c 128,-1,91
 617 173 617 173 628.5 170.5 c 128,-1,92
 640 168 640 168 666 167 c 1,93,94
 670 162 670 162 670 150 c 128,-1,95
 670 138 670 138 666 134 c 1,96,97
 596 136 596 136 555 136 c 0,98,99
 517 136 517 136 443 134 c 1,100,101
 438 138 438 138 438 150 c 128,-1,102
 438 162 438 162 443 167 c 1,103,104
 469 169 469 169 480 171 c 128,-1,105
 491 173 491 173 501 183 c 128,-1,106
 511 193 511 193 513 209 c 128,-1,107
 515 225 515 225 515 258 c 2,108,-1
 515 474 l 2,109,110
 515 506 515 506 513 522.5 c 128,-1,111
 511 539 511 539 501.5 548.5 c 128,-1,112
 492 558 492 558 480.5 560.5 c 128,-1,113
 469 563 469 563 443 565 c 0,114,115
 438 569 438 569 438 581 c 128,-1,116
 438 593 438 593 443 598 c 1,117,118
 521 596 521 596 554 596 c 0,119,120
 590 596 590 596 666 598 c 1,121,122
 670 593 670 593 670 581 c 128,-1,123
 670 569 670 569 666 565 c 0,124,125
 639 562 639 562 628 560 c 128,-1,126
 617 558 617 558 607.5 548.5 c 128,-1,127
 598 539 598 539 596 522.5 c 128,-1,128
 594 506 594 506 594 474 c 2,87,-1
EndSplineSet
Validated: 5
EndChar

StartChar: digit_seven
Encoding: 57463 57463 116
Width: 298
GlyphClass: 2
Flags: W
AnchorPoint: "Anchor-1" 170 750 basechar 0
AnchorPoint: "Anchor-0" 170 -250 basechar 0
LayerCount: 2
Fore
SplineSet
202 473 m 2,0,-1
 202 53 l 2,1,2
 202 2 202 2 193 -37.5 c 128,-1,3
 184 -77 184 -77 166.5 -104 c 128,-1,4
 149 -131 149 -131 135.5 -146 c 128,-1,5
 122 -161 122 -161 100 -179 c 0,6,7
 50 -222 50 -222 -17 -222 c 0,8,9
 -39 -222 -39 -222 -65.5 -207 c 128,-1,10
 -92 -192 -92 -192 -92 -168 c 0,11,12
 -92 -153 -92 -153 -76 -139 c 128,-1,13
 -60 -125 -60 -125 -48 -125 c 0,14,15
 -20 -125 -20 -125 -8 -150 c 0,16,17
 5 -177 5 -177 32 -177 c 0,18,19
 52 -177 52 -177 69 -164 c 128,-1,20
 86 -151 86 -151 101.5 -101.5 c 128,-1,21
 117 -52 117 -52 117 31 c 2,22,-1
 117 473 l 2,23,24
 117 533 117 533 100 547.5 c 128,-1,25
 83 562 83 562 20 564 c 0,26,27
 16 568 16 568 16 580 c 128,-1,28
 16 592 16 592 20 597 c 1,29,30
 120 595 120 595 159 595 c 0,31,32
 203 595 203 595 279 597 c 1,33,34
 284 592 284 592 284 580 c 128,-1,35
 284 568 284 568 279 564 c 0,36,37
 231 562 231 562 216.5 547 c 128,-1,38
 202 532 202 532 202 473 c 2,0,-1
EndSplineSet
Validated: 1
EndChar

StartChar: digit_eight
Encoding: 57464 57464 117
Width: 534
GlyphClass: 2
Flags: W
AnchorPoint: "Anchor-1" 280 750 basechar 0
AnchorPoint: "Anchor-0" 300 -100 basechar 0
LayerCount: 2
Fore
SplineSet
206 473 m 2,0,-1
 206 53 l 2,1,2
 206 2 206 2 197 -37.5 c 128,-1,3
 188 -77 188 -77 170.5 -104 c 128,-1,4
 153 -131 153 -131 139.5 -146 c 128,-1,5
 126 -161 126 -161 104 -179 c 0,6,7
 54 -222 54 -222 -13 -222 c 0,8,9
 -35 -222 -35 -222 -61.5 -207 c 128,-1,10
 -88 -192 -88 -192 -88 -168 c 0,11,12
 -88 -153 -88 -153 -72 -139 c 128,-1,13
 -56 -125 -56 -125 -44 -125 c 0,14,15
 -16 -125 -16 -125 -4 -150 c 0,16,17
 9 -177 9 -177 36 -177 c 0,18,19
 56 -177 56 -177 73 -164 c 128,-1,20
 90 -151 90 -151 105.5 -101.5 c 128,-1,21
 121 -52 121 -52 121 31 c 2,22,-1
 121 473 l 2,23,24
 121 533 121 533 104 547.5 c 128,-1,25
 87 562 87 562 24 564 c 0,26,27
 20 568 20 568 20 580 c 128,-1,28
 20 592 20 592 24 597 c 1,29,30
 124 595 124 595 163 595 c 0,31,32
 207 595 207 595 283 597 c 1,33,34
 288 592 288 592 288 580 c 128,-1,35
 288 568 288 568 283 564 c 0,36,37
 235 562 235 562 220.5 547 c 128,-1,38
 206 532 206 532 206 473 c 2,0,-1
425 473 m 2,39,-1
 425 257 l 2,40,41
 425 225 425 225 427.5 208.5 c 128,-1,42
 430 192 430 192 439 182 c 128,-1,43
 448 172 448 172 459.5 170 c 128,-1,44
 471 168 471 168 497 166 c 1,45,46
 502 161 502 161 502 149 c 128,-1,47
 502 137 502 137 497 133 c 1,48,49
 427 135 427 135 386 135 c 0,50,51
 348 135 348 135 274 133 c 1,52,53
 270 137 270 137 270 149 c 128,-1,54
 270 161 270 161 274 166 c 1,55,56
 301 168 301 168 312 170.5 c 128,-1,57
 323 173 323 173 332.5 182.5 c 128,-1,58
 342 192 342 192 344 208.5 c 128,-1,59
 346 225 346 225 346 257 c 2,60,-1
 346 473 l 2,61,62
 346 505 346 505 344 521.5 c 128,-1,63
 342 538 342 538 332.5 548 c 128,-1,64
 323 558 323 558 311.5 560 c 128,-1,65
 300 562 300 562 274 564 c 0,66,67
 270 568 270 568 270 580 c 128,-1,68
 270 592 270 592 274 597 c 1,69,70
 352 595 352 595 385 595 c 0,71,72
 421 595 421 595 497 597 c 1,73,74
 502 592 502 592 502 580 c 128,-1,75
 502 568 502 568 497 564 c 0,76,77
 471 562 471 562 460 559.5 c 128,-1,78
 449 557 449 557 439 547.5 c 128,-1,79
 429 538 429 538 427 521.5 c 128,-1,80
 425 505 425 505 425 473 c 2,39,-1
EndSplineSet
Validated: 5
EndChar

StartChar: digit_nine
Encoding: 57465 57465 118
Width: 716
GlyphClass: 2
Flags: W
AnchorPoint: "Anchor-1" 380 750 basechar 0
AnchorPoint: "Anchor-0" 380 -100 basechar 0
LayerCount: 2
Fore
SplineSet
204 473 m 2,0,-1
 204 53 l 2,1,2
 204 2 204 2 195 -37.5 c 128,-1,3
 186 -77 186 -77 168.5 -104 c 128,-1,4
 151 -131 151 -131 137.5 -146 c 128,-1,5
 124 -161 124 -161 102 -179 c 0,6,7
 52 -222 52 -222 -15 -222 c 0,8,9
 -37 -222 -37 -222 -63.5 -207 c 128,-1,10
 -90 -192 -90 -192 -90 -168 c 0,11,12
 -90 -153 -90 -153 -74 -139 c 128,-1,13
 -58 -125 -58 -125 -46 -125 c 0,14,15
 -18 -125 -18 -125 -6 -150 c 0,16,17
 7 -177 7 -177 34 -177 c 0,18,19
 54 -177 54 -177 71 -164 c 128,-1,20
 88 -151 88 -151 103.5 -101.5 c 128,-1,21
 119 -52 119 -52 119 31 c 2,22,-1
 119 473 l 2,23,24
 119 533 119 533 102 547.5 c 128,-1,25
 85 562 85 562 22 564 c 0,26,27
 18 568 18 568 18 580 c 128,-1,28
 18 592 18 592 22 597 c 1,29,30
 122 595 122 595 161 595 c 0,31,32
 205 595 205 595 281 597 c 1,33,34
 286 592 286 592 286 580 c 128,-1,35
 286 568 286 568 281 564 c 0,36,37
 233 562 233 562 218.5 547 c 128,-1,38
 204 532 204 532 204 473 c 2,0,-1
423 473 m 2,39,-1
 423 257 l 2,40,41
 423 225 423 225 425.5 208.5 c 128,-1,42
 428 192 428 192 437 182 c 128,-1,43
 446 172 446 172 457.5 170 c 128,-1,44
 469 168 469 168 495 166 c 1,45,46
 500 161 500 161 500 149 c 128,-1,47
 500 137 500 137 495 133 c 1,48,49
 425 135 425 135 384 135 c 0,50,51
 346 135 346 135 272 133 c 1,52,53
 268 137 268 137 268 149 c 128,-1,54
 268 161 268 161 272 166 c 1,55,56
 299 168 299 168 310 170.5 c 128,-1,57
 321 173 321 173 330.5 182.5 c 128,-1,58
 340 192 340 192 342 208.5 c 128,-1,59
 344 225 344 225 344 257 c 2,60,-1
 344 473 l 2,61,62
 344 505 344 505 342 521.5 c 128,-1,63
 340 538 340 538 330.5 548 c 128,-1,64
 321 558 321 558 309.5 560 c 128,-1,65
 298 562 298 562 272 564 c 0,66,67
 268 568 268 568 268 580 c 128,-1,68
 268 592 268 592 272 597 c 1,69,70
 350 595 350 595 383 595 c 0,71,72
 419 595 419 595 495 597 c 1,73,74
 500 592 500 592 500 580 c 128,-1,75
 500 568 500 568 495 564 c 0,76,77
 469 562 469 562 458 559.5 c 128,-1,78
 447 557 447 557 437 547.5 c 128,-1,79
 427 538 427 538 425 521.5 c 128,-1,80
 423 505 423 505 423 473 c 2,39,-1
606 474 m 2,81,-1
 606 258 l 2,82,83
 606 225 606 225 608 208.5 c 128,-1,84
 610 192 610 192 619.5 182.5 c 128,-1,85
 629 173 629 173 640.5 170.5 c 128,-1,86
 652 168 652 168 678 167 c 1,87,88
 682 162 682 162 682 150 c 128,-1,89
 682 138 682 138 678 134 c 1,90,91
 608 136 608 136 567 136 c 0,92,93
 529 136 529 136 455 134 c 1,94,95
 450 138 450 138 450 150 c 128,-1,96
 450 162 450 162 455 167 c 1,97,98
 481 169 481 169 492 171 c 128,-1,99
 503 173 503 173 513 183 c 128,-1,100
 523 193 523 193 525 209 c 128,-1,101
 527 225 527 225 527 258 c 2,102,-1
 527 474 l 2,103,104
 527 506 527 506 525 522.5 c 128,-1,105
 523 539 523 539 513.5 548.5 c 128,-1,106
 504 558 504 558 492.5 560.5 c 128,-1,107
 481 563 481 563 455 565 c 0,108,109
 450 569 450 569 450 581 c 128,-1,110
 450 593 450 593 455 598 c 1,111,112
 533 596 533 596 566 596 c 0,113,114
 602 596 602 596 678 598 c 1,115,116
 682 593 682 593 682 581 c 128,-1,117
 682 569 682 569 678 565 c 0,118,119
 651 562 651 562 640 560 c 128,-1,120
 629 558 629 558 619.5 548.5 c 128,-1,121
 610 539 610 539 608 522.5 c 128,-1,122
 606 506 606 506 606 474 c 2,81,-1
EndSplineSet
Validated: 5
EndChar

StartChar: digit_ten
Encoding: 57466 57466 119
Width: 444
GlyphClass: 2
Flags: W
AnchorPoint: "Anchor-1" 236 750 basechar 0
AnchorPoint: "Anchor-0" 236 -100 basechar 0
LayerCount: 2
Fore
SplineSet
381 631 m 1,0,1
 394 562 394 562 399 502 c 1,2,3
 386 492 386 492 366 496 c 1,4,5
 348 556 348 556 316 590 c 128,-1,6
 284 624 284 624 218 624 c 0,7,8
 174 624 174 624 141 589.5 c 128,-1,9
 108 555 108 555 108 512 c 0,10,11
 108 488 108 488 119.5 466.5 c 128,-1,12
 131 445 131 445 146 431.5 c 128,-1,13
 161 418 161 418 186.5 404 c 128,-1,14
 212 390 212 390 227.5 383.5 c 128,-1,15
 243 377 243 377 268 368 c 0,16,17
 342 340 342 340 386 298 c 128,-1,18
 430 256 430 256 430 184 c 0,19,20
 430 136 430 136 405 93 c 128,-1,21
 380 50 380 50 336 23 c 0,22,23
 284 -10 284 -10 213 -10 c 0,24,25
 165 -10 165 -10 113 1.5 c 128,-1,26
 61 13 61 13 33 13 c 1,27,28
 18 76 18 76 13 165 c 1,29,30
 29 173 29 173 46 168 c 1,31,32
 78 26 78 26 221 26 c 0,33,34
 281 26 281 26 313.5 57.5 c 128,-1,35
 346 89 346 89 346 149 c 0,36,37
 346 184 346 184 335 209.5 c 128,-1,38
 324 235 324 235 300 252.5 c 128,-1,39
 276 270 276 270 259.5 278 c 128,-1,40
 243 286 243 286 212 298 c 0,41,42
 131 329 131 329 84 371.5 c 128,-1,43
 37 414 37 414 37 485 c 0,44,45
 37 562 37 562 92.5 610 c 128,-1,46
 148 658 148 658 227 658 c 0,47,48
 284 658 284 658 325.5 645.5 c 128,-1,49
 367 633 367 633 381 631 c 1,0,1
EndSplineSet
Validated: 33
EndChar

StartChar: digit_eleven
Encoding: 57467 57467 120
Width: 544
GlyphClass: 2
Flags: W
AnchorPoint: "Anchor-1" 256 750 basechar 0
AnchorPoint: "Anchor-0" 256 -100 basechar 0
LayerCount: 2
Fore
SplineSet
168 41 m 2,0,-1
 394 41 l 1,1,-1
 176 316 l 1,2,-1
 177 321 l 1,3,-1
 437 601 l 1,4,-1
 160 601 l 2,5,6
 107 601 107 601 81 569 c 128,-1,7
 55 537 55 537 37 474 c 1,8,9
 19 471 19 471 4 479 c 1,10,11
 14 584 14 584 30 644 c 1,12,-1
 448 644 l 1,13,-1
 519 646 l 1,14,15
 522 640 522 640 522 629.5 c 128,-1,16
 522 619 522 619 519 613 c 1,17,18
 504 609 504 609 490 592 c 2,19,-1
 269 335 l 1,20,-1
 267 334 l 1,21,-1
 462 68 l 2,22,23
 487 35 487 35 518 30 c 1,24,25
 521 25 521 25 521 14 c 128,-1,26
 521 3 521 3 518 -2 c 1,27,-1
 417 -1 l 1,28,-1
 44 -1 l 1,29,30
 31 58 31 58 23 154 c 1,31,32
 39 162 39 162 56 159 c 1,33,34
 65 132 65 132 69.5 119.5 c 128,-1,35
 74 107 74 107 83.5 88.5 c 128,-1,36
 93 70 93 70 103 62 c 128,-1,37
 113 54 113 54 129.5 47.5 c 128,-1,38
 146 41 146 41 168 41 c 2,0,-1
EndSplineSet
Validated: 33
EndChar

StartChar: digit_twelve
Encoding: 57468 57468 121
Width: 534
GlyphClass: 2
Flags: W
AnchorPoint: "Anchor-1" 256 750 basechar 0
AnchorPoint: "Anchor-0" 256 -100 basechar 0
LayerCount: 2
Fore
SplineSet
267 49 m 2,0,1
 330 49 330 49 342 54.5 c 128,-1,2
 354 60 354 60 354 86 c 2,3,-1
 354 275 l 1,4,-1
 292 275 l 2,5,6
 149 275 149 275 78.5 321.5 c 128,-1,7
 8 368 8 368 8 480 c 0,8,9
 8 567 8 567 71.5 612.5 c 128,-1,10
 135 658 135 658 225 658 c 0,11,12
 258 658 258 658 310 657 c 128,-1,13
 362 656 362 656 395 656 c 0,14,15
 421 656 421 656 509 658 c 1,16,-1
 509 634 l 2,17,18
 509 629 509 629 505 629 c 2,19,-1
 475 626 l 2,20,21
 454 624 454 624 444.5 613.5 c 128,-1,22
 435 603 435 603 435 579 c 2,23,-1
 435 83 l 2,24,25
 435 57 435 57 442.5 50 c 128,-1,26
 450 43 450 43 475 41 c 2,27,-1
 505 38 l 2,28,29
 509 38 509 38 509 34 c 2,30,-1
 509 9 l 1,31,-1
 394 11 l 1,32,-1
 176 11 l 2,33,34
 113 11 113 11 63 -2 c 1,35,-1
 49 151 l 1,36,-1
 75 154 l 1,37,38
 93 92 93 92 119.5 70.5 c 128,-1,39
 146 49 146 49 186 49 c 2,40,-1
 267 49 l 2,0,1
354 578 m 2,41,42
 354 604 354 604 337.5 614 c 128,-1,43
 321 624 321 624 271 624 c 0,44,45
 189 624 189 624 143 583 c 128,-1,46
 97 542 97 542 97 458 c 0,47,48
 97 309 97 309 265 309 c 2,49,-1
 354 309 l 1,50,-1
 354 578 l 2,41,42
EndSplineSet
Validated: 1
EndChar

StartChar: lsd_marker
Encoding: 57469 57469 122
Width: 210
GlyphClass: 4
Flags: W
AnchorPoint: "Anchor-2" 108 -300 basemark 0
AnchorPoint: "Anchor-2" 108 -100 mark 0
AnchorPoint: "Anchor-0" 108 -100 mark 0
LayerCount: 2
Fore
SplineSet
20 -167 m 128,-1,1
 20 -133 20 -133 46.5 -107.5 c 128,-1,2
 73 -82 73 -82 108 -82 c 128,-1,3
 143 -82 143 -82 169.5 -107 c 128,-1,4
 196 -132 196 -132 196 -167 c 0,5,6
 196 -201 196 -201 170 -226.5 c 128,-1,7
 144 -252 144 -252 108 -252 c 0,8,9
 73 -252 73 -252 46.5 -226.5 c 128,-1,0
 20 -201 20 -201 20 -167 c 128,-1,1
108 -114 m 0,10,11
 85 -114 85 -114 72.5 -129 c 128,-1,12
 60 -144 60 -144 60 -167 c 0,13,14
 60 -189 60 -189 73 -204.5 c 128,-1,15
 86 -220 86 -220 108 -220 c 128,-1,16
 130 -220 130 -220 143 -204.5 c 128,-1,17
 156 -189 156 -189 156 -167 c 0,18,19
 156 -143 156 -143 143 -128.5 c 128,-1,20
 130 -114 130 -114 108 -114 c 0,10,11
EndSplineSet
Validated: 1048577
EndChar

StartChar: rightcurl_above_double
Encoding: 65538 -1 123
Width: 0
GlyphClass: 4
Flags: W
AnchorPoint: "Anchor-3" 141 1000 basemark 0
AnchorPoint: "Anchor-3" 141 700 mark 0
AnchorPoint: "Anchor-1" 141 700 mark 0
LayerCount: 2
Fore
SplineSet
300 892 m 0,0,1
 341 892 341 892 375 865.5 c 128,-1,2
 409 839 409 839 409 807 c 0,3,4
 409 797 409 797 401.5 789 c 128,-1,5
 394 781 394 781 383 781 c 128,-1,6
 372 781 372 781 362 790 c 128,-1,7
 352 799 352 799 352 812 c 0,8,9
 352 828 352 828 339 842 c 128,-1,10
 326 856 326 856 308 856 c 0,11,12
 261 856 261 856 261 748 c 2,13,-1
 261 643 l 1,14,-1
 222 643 l 1,15,-1
 222 773 l 2,16,17
 222 892 222 892 300 892 c 0,0,1
100 892 m 0,18,19
 141 892 141 892 175 865.5 c 128,-1,20
 209 839 209 839 209 807 c 0,21,22
 209 797 209 797 201.5 789 c 128,-1,23
 194 781 194 781 183 781 c 128,-1,24
 172 781 172 781 162 790 c 128,-1,25
 152 799 152 799 152 812 c 0,26,27
 152 828 152 828 139 842 c 128,-1,28
 126 856 126 856 108 856 c 0,29,30
 61 856 61 856 61 748 c 2,31,-1
 61 643 l 1,32,-1
 22 643 l 1,33,-1
 22 773 l 2,34,35
 22 892 22 892 100 892 c 0,18,19
EndSplineSet
Validated: 1048577
LCarets2: 1 0
Ligature2: "'liga' Standard Ligatures lookup 0 subtable" rightcurl_above rightcurl_above
EndChar

StartChar: leftcurl_above_double
Encoding: 65539 -1 124
Width: 0
GlyphClass: 4
Flags: W
AnchorPoint: "Anchor-3" 261 1000 basemark 0
AnchorPoint: "Anchor-3" 261 700 mark 0
AnchorPoint: "Anchor-1" 261 700 mark 0
LayerCount: 2
Fore
SplineSet
308 868 m 0,0,1
 290 868 290 868 277 854 c 128,-1,2
 264 840 264 840 264 824 c 0,3,4
 264 811 264 811 254 802 c 128,-1,5
 244 793 244 793 233 793 c 128,-1,6
 222 793 222 793 214.5 801 c 128,-1,7
 207 809 207 809 207 819 c 0,8,9
 207 850 207 850 240.5 877 c 128,-1,10
 274 904 274 904 316 904 c 0,11,12
 394 904 394 904 394 785 c 2,13,-1
 394 653 l 1,14,-1
 355 653 l 1,15,-1
 355 760 l 2,16,17
 355 868 355 868 308 868 c 0,0,1
108 868 m 0,18,19
 90 868 90 868 77 854 c 128,-1,20
 64 840 64 840 64 824 c 0,21,22
 64 811 64 811 54 802 c 128,-1,23
 44 793 44 793 33 793 c 128,-1,24
 22 793 22 793 14.5 801 c 128,-1,25
 7 809 7 809 7 819 c 0,26,27
 7 850 7 850 40.5 877 c 128,-1,28
 74 904 74 904 116 904 c 0,29,30
 194 904 194 904 194 785 c 2,31,-1
 194 653 l 1,32,-1
 155 653 l 1,33,-1
 155 760 l 2,34,35
 155 868 155 868 108 868 c 0,18,19
EndSplineSet
Validated: 1048577
LCarets2: 1 0
Ligature2: "'liga' Standard Ligatures lookup 0 subtable" leftcurl_above leftcurl_above
EndChar

StartChar: exclam
Encoding: 33 33 125
Width: 288
GlyphClass: 2
Flags: W
LayerCount: 2
Fore
SplineSet
144 658 m 128,-1,1
 165 658 165 658 181 640 c 128,-1,2
 197 622 197 622 197 585 c 0,3,4
 197 556 197 556 193.5 528.5 c 128,-1,5
 190 501 190 501 183.5 462.5 c 128,-1,6
 177 424 177 424 173 392 c 0,7,8
 167 345 167 345 164 302.5 c 128,-1,9
 161 260 161 260 160 237 c 128,-1,10
 159 214 159 214 158 210 c 0,11,12
 156 190 156 190 144 190 c 128,-1,13
 132 190 132 190 130 203 c 0,14,15
 129 209 129 209 127 241 c 128,-1,16
 125 273 125 273 121.5 315.5 c 128,-1,17
 118 358 118 358 114 392 c 0,18,19
 111 423 111 423 101 484 c 128,-1,20
 91 545 91 545 91 585 c 0,21,22
 91 622 91 622 107 640 c 128,-1,0
 123 658 123 658 144 658 c 128,-1,1
91 43 m 128,-1,24
 91 65 91 65 106.5 80.5 c 128,-1,25
 122 96 122 96 144 96 c 128,-1,26
 166 96 166 96 181.5 80.5 c 128,-1,27
 197 65 197 65 197 43 c 128,-1,28
 197 21 197 21 181.5 5.5 c 128,-1,29
 166 -10 166 -10 144 -10 c 128,-1,30
 122 -10 122 -10 106.5 5.5 c 128,-1,23
 91 21 91 21 91 43 c 128,-1,24
EndSplineSet
Validated: 1
EndChar

StartChar: quotedbl
Encoding: 34 34 126
Width: 336
GlyphClass: 2
Flags: W
LayerCount: 2
Fore
SplineSet
89 426 m 1,0,1
 63 585 63 585 63 594 c 0,2,3
 63 612 63 612 78 628 c 128,-1,4
 93 644 93 644 114 644 c 0,5,6
 149 644 149 644 149 611 c 1,7,-1
 116 430 l 1,8,-1
 89 426 l 1,0,1
215 427 m 1,9,10
 189 586 189 586 189 595 c 0,11,12
 189 613 189 613 204 629 c 128,-1,13
 219 645 219 645 240 645 c 0,14,15
 275 645 275 645 275 612 c 1,16,-1
 242 431 l 1,17,-1
 215 427 l 1,9,10
EndSplineSet
Validated: 1
EndChar

StartChar: numbersign
Encoding: 35 35 127
Width: 465
GlyphClass: 2
Flags: W
LayerCount: 2
Fore
SplineSet
335 360 m 1,0,-1
 316 245 l 1,1,-1
 411 245 l 1,2,-1
 404 192 l 1,3,-1
 310 192 l 1,4,-1
 280 14 l 1,5,-1
 242 14 l 1,6,-1
 269 192 l 1,7,-1
 157 192 l 1,8,-1
 128 14 l 1,9,-1
 91 14 l 1,10,-1
 119 192 l 1,11,-1
 26 192 l 1,12,-1
 34 245 l 1,13,-1
 128 245 l 1,14,-1
 146 360 l 1,15,-1
 53 360 l 1,16,-1
 61 413 l 1,17,-1
 154 413 l 1,18,-1
 183 592 l 1,19,-1
 221 592 l 1,20,-1
 191 413 l 1,21,-1
 305 413 l 1,22,-1
 333 592 l 1,23,-1
 371 592 l 1,24,-1
 342 413 l 1,25,-1
 438 413 l 1,26,-1
 430 360 l 1,27,-1
 335 360 l 1,0,-1
279 245 m 1,28,-1
 297 360 l 1,29,-1
 184 360 l 1,30,-1
 165 245 l 1,31,-1
 279 245 l 1,28,-1
EndSplineSet
Validated: 1
EndChar

StartChar: dollar
Encoding: 36 36 128
Width: 465
GlyphClass: 2
Flags: W
LayerCount: 2
Fore
SplineSet
371 585 m 1,0,1
 384 520 384 520 388 465 c 1,2,3
 381 459 381 459 361 459 c 2,4,-1
 357 459 l 1,5,6
 342 506 342 506 320 535.5 c 128,-1,7
 298 565 298 565 255 575 c 1,8,-1
 243 351 l 1,9,10
 287 334 287 334 289 333 c 0,11,12
 417 278 417 278 417 171 c 0,13,14
 417 127 417 127 393.5 86.5 c 128,-1,15
 370 46 370 46 330 21 c 0,16,17
 285 -7 285 -7 223 -9 c 1,18,-1
 219 -93 l 1,19,20
 209 -98 209 -98 182 -98 c 1,21,-1
 187 -8 l 1,22,23
 157 -6 157 -6 116 3 c 128,-1,24
 75 12 75 12 48 12 c 1,25,26
 33 73 33 73 29 153 c 1,27,28
 44 161 44 161 59 156 c 1,29,30
 85 41 85 41 188 26 c 1,31,-1
 202 281 l 2,32,33
 199 283 199 283 186 288 c 0,34,35
 51 346 51 346 51 451 c 0,36,37
 51 521 51 521 100.5 564.5 c 128,-1,38
 150 608 150 608 220 610 c 1,39,-1
 225 690 l 1,40,41
 240 695 240 695 262 695 c 1,42,-1
 257 609 l 1,43,44
 292 607 292 607 322 597 c 128,-1,45
 352 587 352 587 371 585 c 1,0,1
238 268 m 1,46,-1
 225 24 l 1,47,48
 280 25 280 25 309.5 54.5 c 128,-1,49
 339 84 339 84 339 139 c 0,50,51
 339 192 339 192 312 220.5 c 128,-1,52
 285 249 285 249 238 268 c 1,46,-1
207 367 m 1,53,-1
 219 578 l 1,54,55
 178 577 178 577 148 546 c 128,-1,56
 118 515 118 515 118 476 c 0,57,58
 118 411 118 411 207 367 c 1,53,-1
EndSplineSet
Validated: 1
EndChar

StartChar: percent
Encoding: 37 37 129
Width: 637
GlyphClass: 2
Flags: W
LayerCount: 2
Fore
SplineSet
364 521 m 0,0,1
 404 521 404 521 448.5 534 c 128,-1,2
 493 547 493 547 514 575 c 1,3,-1
 546 559 l 1,4,-1
 136 -12 l 1,5,-1
 102 3 l 1,6,-1
 461 503 l 1,7,8
 413 484 413 484 354 484 c 0,9,10
 310 484 310 484 274 505 c 1,11,12
 277 494 277 494 277 480 c 0,13,14
 277 422 277 422 241.5 362.5 c 128,-1,15
 206 303 206 303 149 303 c 0,16,17
 106 303 106 303 81.5 336.5 c 128,-1,18
 57 370 57 370 57 412 c 0,19,20
 57 478 57 478 96.5 524.5 c 128,-1,21
 136 571 136 571 190 571 c 0,22,23
 210 571 210 571 229.5 563.5 c 128,-1,24
 249 556 249 556 257 546 c 1,25,26
 311 521 311 521 364 521 c 0,0,1
378 98 m 0,27,28
 378 160 378 160 417.5 208 c 128,-1,29
 457 256 457 256 512 256 c 0,30,31
 548 256 548 256 573 235.5 c 128,-1,32
 598 215 598 215 598 165 c 0,33,34
 598 106 598 106 563 47 c 128,-1,35
 528 -12 528 -12 471 -12 c 0,36,37
 428 -12 428 -12 403 21.5 c 128,-1,38
 378 55 378 55 378 98 c 0,27,28
111 398 m 0,39,40
 111 363 111 363 124.5 348.5 c 128,-1,41
 138 334 138 334 155 334 c 0,42,43
 193 334 193 334 218.5 382 c 128,-1,44
 244 430 244 430 244 479 c 0,45,46
 244 540 244 540 201 540 c 0,47,48
 166 540 166 540 138.5 492.5 c 128,-1,49
 111 445 111 445 111 398 c 0,39,40
433 83 m 0,50,51
 433 19 433 19 477 19 c 0,52,53
 515 19 515 19 540 67.5 c 128,-1,54
 565 116 565 116 565 164 c 0,55,56
 565 198 565 198 551.5 211.5 c 128,-1,57
 538 225 538 225 523 225 c 0,58,59
 488 225 488 225 460.5 177.5 c 128,-1,60
 433 130 433 130 433 83 c 0,50,51
EndSplineSet
Validated: 1
EndChar

StartChar: ampersand
Encoding: 38 38 130
Width: 705
GlyphClass: 2
Flags: W
LayerCount: 2
Fore
SplineSet
421 94 m 1,0,1
 345 -10 345 -10 235 -10 c 0,2,3
 148 -10 148 -10 95.5 30 c 128,-1,4
 43 70 43 70 43 156 c 0,5,6
 43 216 43 216 86.5 268.5 c 128,-1,7
 130 321 130 321 228 376 c 1,8,9
 177 464 177 464 177 517 c 0,10,11
 177 566 177 566 219 606.5 c 128,-1,12
 261 647 261 647 331 647 c 0,13,14
 384 647 384 647 421.5 616.5 c 128,-1,15
 459 586 459 586 459 539 c 0,16,17
 459 499 459 499 417 454 c 128,-1,18
 375 409 375 409 310 371 c 1,19,-1
 314 363 l 1,20,21
 345 310 345 310 436 187 c 1,22,23
 477 248 477 248 513 315 c 0,24,25
 532 350 532 350 533 366 c 128,-1,26
 534 382 534 382 523 386.5 c 128,-1,27
 512 391 512 391 482 393 c 1,28,29
 478 398 478 398 478 410 c 128,-1,30
 478 422 478 422 482 426 c 1,31,32
 522 424 522 424 577 424 c 0,33,34
 621 424 621 424 661 426 c 1,35,36
 666 422 666 422 666 410 c 128,-1,37
 666 398 666 398 661 393 c 1,38,39
 615 390 615 390 598 376.5 c 128,-1,40
 581 363 581 363 547 302 c 0,41,42
 495 210 495 210 458 157 c 1,43,-1
 494 107 l 2,44,45
 516 77 516 77 537 60.5 c 128,-1,46
 558 44 558 44 571 44 c 0,47,48
 619 44 619 44 647 98 c 1,49,50
 658 98 658 98 668 88 c 1,51,52
 652 39 652 39 623 14.5 c 128,-1,53
 594 -10 594 -10 565 -10 c 0,54,55
 545 -10 545 -10 531 -7.5 c 128,-1,56
 517 -5 517 -5 494.5 11 c 128,-1,57
 472 27 472 27 450 57 c 2,58,-1
 421 94 l 1,0,1
250 338 m 1,59,60
 177 298 177 298 151 256 c 128,-1,61
 125 214 125 214 125 156 c 0,62,63
 125 87 125 87 157.5 55 c 128,-1,64
 190 23 190 23 242 23 c 0,65,66
 292 23 292 23 324.5 46.5 c 128,-1,67
 357 70 357 70 398 126 c 1,68,69
 357 180 357 180 308 250.5 c 128,-1,70
 259 321 259 321 250 338 c 1,59,60
289 409 m 1,71,72
 336 440 336 440 363 475.5 c 128,-1,73
 390 511 390 511 390 539 c 0,74,75
 390 573 390 573 373 593.5 c 128,-1,76
 356 614 356 614 326 614 c 0,77,78
 302 614 302 614 276.5 589 c 128,-1,79
 251 564 251 564 251 519 c 0,80,81
 251 481 251 481 289 409 c 1,71,72
EndSplineSet
Validated: 1
EndChar

StartChar: quotesingle
Encoding: 39 39 131
Width: 190
GlyphClass: 2
Flags: W
LayerCount: 2
Fore
SplineSet
79 426 m 1,0,1
 53 585 53 585 53 594 c 0,2,3
 53 612 53 612 68 628 c 128,-1,4
 83 644 83 644 104 644 c 0,5,6
 139 644 139 644 139 611 c 1,7,-1
 106 430 l 1,8,-1
 79 426 l 1,0,1
EndSplineSet
Validated: 1
EndChar

StartChar: parenleft
Encoding: 40 40 132
Width: 298
GlyphClass: 2
Flags: W
LayerCount: 2
Fore
SplineSet
44 252 m 0,0,1
 44 386 44 386 103 506 c 128,-1,2
 162 626 162 626 256 707 c 1,3,4
 272 706 272 706 277 689 c 1,5,6
 127 520 127 520 127 252 c 0,7,8
 127 -14 127 -14 277 -187 c 1,9,10
 272 -201 272 -201 256 -204 c 1,11,12
 197 -153 197 -153 154.5 -91 c 128,-1,13
 112 -29 112 -29 91.5 20.5 c 128,-1,14
 71 70 71 70 59 124.5 c 128,-1,15
 47 179 47 179 45.5 203.5 c 128,-1,16
 44 228 44 228 44 252 c 0,0,1
EndSplineSet
Validated: 1
EndChar

StartChar: parenright
Encoding: 41 41 133
Width: 298
GlyphClass: 2
Flags: W
LayerCount: 2
Fore
SplineSet
254 252 m 0,0,1
 254 118 254 118 195 -2 c 128,-1,2
 136 -122 136 -122 42 -203 c 1,3,4
 26 -202 26 -202 21 -185 c 1,5,6
 171 -16 171 -16 171 252 c 0,7,8
 171 518 171 518 21 691 c 1,9,10
 26 705 26 705 42 708 c 1,11,12
 101 657 101 657 143.5 595 c 128,-1,13
 186 533 186 533 206.5 483.5 c 128,-1,14
 227 434 227 434 239 379.5 c 128,-1,15
 251 325 251 325 252.5 300.5 c 128,-1,16
 254 276 254 276 254 252 c 0,0,1
EndSplineSet
Validated: 1
EndChar

StartChar: asterisk
Encoding: 42 42 134
Width: 369
GlyphClass: 2
Flags: W
LayerCount: 2
Fore
SplineSet
168 547 m 1,0,1
 151 551 151 551 126 551 c 0,2,3
 45 551 45 551 45 588 c 0,4,5
 45 600 45 600 53 609 c 128,-1,6
 61 618 61 618 78 618 c 0,7,8
 97 618 97 618 126.5 596 c 128,-1,9
 156 574 156 574 174 567 c 1,10,11
 172 587 172 587 161.5 616.5 c 128,-1,12
 151 646 151 646 151 659 c 0,13,14
 151 675 151 675 159.5 686.5 c 128,-1,15
 168 698 168 698 181 698 c 0,16,17
 214 698 214 698 214 663 c 0,18,19
 214 649 214 649 205 614.5 c 128,-1,20
 196 580 196 580 195 566 c 1,21,22
 214 574 214 574 243 596 c 128,-1,23
 272 618 272 618 290 618 c 128,-1,24
 308 618 308 618 316 608 c 128,-1,25
 324 598 324 598 324 588 c 0,26,27
 324 551 324 551 255 551 c 0,28,29
 224 551 224 551 200 547 c 1,30,31
 212 534 212 534 235 518.5 c 128,-1,32
 258 503 258 503 270.5 490.5 c 128,-1,33
 283 478 283 478 283 460 c 0,34,35
 283 447 283 447 274 439 c 128,-1,36
 265 431 265 431 254 431 c 0,37,38
 237 431 237 431 225.5 447 c 128,-1,39
 214 463 214 463 202.5 492.5 c 128,-1,40
 191 522 191 522 183 535 c 1,41,42
 176 522 176 522 164 491 c 128,-1,43
 152 460 152 460 141 445.5 c 128,-1,44
 130 431 130 431 113 431 c 0,45,46
 100 431 100 431 92 439.5 c 128,-1,47
 84 448 84 448 84 459 c 0,48,49
 84 478 84 478 97 491 c 128,-1,50
 110 504 110 504 133 518.5 c 128,-1,51
 156 533 156 533 168 547 c 1,0,1
EndSplineSet
Validated: 1
EndChar

StartChar: plus
Encoding: 43 43 135
Width: 550
GlyphClass: 2
Flags: W
LayerCount: 2
Fore
SplineSet
250 435 m 2,0,1
 250 444 250 444 262.5 453 c 128,-1,2
 275 462 275 462 283 462 c 0,3,4
 300 462 300 462 300 448 c 2,5,-1
 300 276 l 1,6,-1
 476 276 l 2,7,8
 490 276 490 276 490 259 c 0,9,10
 490 251 490 251 481 238.5 c 128,-1,11
 472 226 472 226 463 226 c 2,12,-1
 300 226 l 1,13,-1
 300 66 l 2,14,15
 300 57 300 57 288.5 49 c 128,-1,16
 277 41 277 41 266 41 c 0,17,18
 250 41 250 41 250 56 c 2,19,-1
 250 226 l 1,20,-1
 75 226 l 2,21,22
 60 226 60 226 60 242 c 0,23,24
 60 253 60 253 68 264.5 c 128,-1,25
 76 276 76 276 85 276 c 2,26,-1
 250 276 l 1,27,-1
 250 435 l 2,0,1
EndSplineSet
Validated: 1
EndChar

StartChar: comma
Encoding: 44 44 136
Width: 220
GlyphClass: 2
Flags: W
LayerCount: 2
Fore
SplineSet
104 95 m 0,0,1
 134 95 134 95 152 68 c 128,-1,2
 170 41 170 41 170 -4 c 0,3,4
 170 -54 170 -54 135 -89 c 128,-1,5
 100 -124 100 -124 52 -133 c 1,6,7
 43 -124 43 -124 43 -109 c 1,8,9
 79 -100 79 -100 105 -73.5 c 128,-1,10
 131 -47 131 -47 131 -29 c 0,11,12
 131 -2 131 -2 95 2 c 0,13,14
 51 9 51 9 51 46 c 0,15,16
 51 67 51 67 66 81 c 128,-1,17
 81 95 81 95 104 95 c 0,0,1
EndSplineSet
Validated: 1
EndChar

StartChar: hyphen
Encoding: 45 45 137
Width: 338
GlyphClass: 2
Flags: W
LayerCount: 2
Fore
SplineSet
271 223 m 2,0,-1
 55 223 l 2,1,2
 40 223 40 223 40 242 c 0,3,4
 40 256 40 256 48 269.5 c 128,-1,5
 56 283 56 283 65 283 c 2,6,-1
 284 283 l 2,7,8
 298 283 298 283 298 263 c 0,9,10
 298 253 298 253 289 238 c 128,-1,11
 280 223 280 223 271 223 c 2,0,-1
EndSplineSet
Validated: 1
EndChar

StartChar: period
Encoding: 46 46 138
Width: 220
GlyphClass: 2
Flags: W
LayerCount: 2
Fore
SplineSet
57 43 m 128,-1,1
 57 65 57 65 72.5 80.5 c 128,-1,2
 88 96 88 96 110 96 c 128,-1,3
 132 96 132 96 147.5 80.5 c 128,-1,4
 163 65 163 65 163 43 c 128,-1,5
 163 21 163 21 147.5 5.5 c 128,-1,6
 132 -10 132 -10 110 -10 c 128,-1,7
 88 -10 88 -10 72.5 5.5 c 128,-1,0
 57 21 57 21 57 43 c 128,-1,1
EndSplineSet
Validated: 1
EndChar

StartChar: slash
Encoding: 47 47 139
Width: 323
GlyphClass: 2
Flags: W
LayerCount: 2
Fore
SplineSet
293 646 m 1,0,-1
 56 -59 l 1,1,-1
 15 -59 l 1,2,-1
 252 646 l 1,3,-1
 293 646 l 1,0,-1
EndSplineSet
Validated: 1
EndChar

StartChar: semicolon
Encoding: 59 59 140
Width: 236
GlyphClass: 2
Flags: W
LayerCount: 2
Fore
SplineSet
123 95 m 0,0,1
 153 95 153 95 171 68 c 128,-1,2
 189 41 189 41 189 -4 c 0,3,4
 189 -54 189 -54 154 -89 c 128,-1,5
 119 -124 119 -124 71 -133 c 1,6,7
 62 -124 62 -124 62 -109 c 1,8,9
 98 -100 98 -100 124 -73.5 c 128,-1,10
 150 -47 150 -47 150 -29 c 0,11,12
 150 -2 150 -2 114 2 c 0,13,14
 70 9 70 9 70 46 c 0,15,16
 70 67 70 67 85 81 c 128,-1,17
 100 95 100 95 123 95 c 0,0,1
70 355 m 128,-1,19
 70 377 70 377 85.5 392.5 c 128,-1,20
 101 408 101 408 123 408 c 128,-1,21
 145 408 145 408 160.5 392.5 c 128,-1,22
 176 377 176 377 176 355 c 128,-1,23
 176 333 176 333 160.5 317.5 c 128,-1,24
 145 302 145 302 123 302 c 128,-1,25
 101 302 101 302 85.5 317.5 c 128,-1,18
 70 333 70 333 70 355 c 128,-1,19
EndSplineSet
Validated: 1
EndChar

StartChar: less
Encoding: 60 60 141
Width: 550
GlyphClass: 2
Flags: W
LayerCount: 2
Fore
SplineSet
138 239 m 1,0,-1
 455 123 l 1,1,2
 465 112 465 112 465 95 c 128,-1,3
 465 78 465 78 455 73 c 1,4,-1
 65 215 l 1,5,6
 52 238 52 238 65 263 c 1,7,-1
 455 404 l 1,8,9
 465 399 465 399 465 382 c 128,-1,10
 465 365 465 365 455 354 c 1,11,-1
 138 239 l 1,0,-1
EndSplineSet
Validated: 33
EndChar

StartChar: equal
Encoding: 61 61 142
Width: 550
GlyphClass: 2
Flags: W
LayerCount: 2
Fore
SplineSet
464 309 m 2,0,-1
 75 309 l 2,1,2
 60 309 60 309 60 325 c 0,3,4
 60 336 60 336 68 347.5 c 128,-1,5
 76 359 76 359 85 359 c 2,6,-1
 477 359 l 2,7,8
 491 359 491 359 491 342 c 0,9,10
 491 334 491 334 482 321.5 c 128,-1,11
 473 309 473 309 464 309 c 2,0,-1
464 143 m 2,12,-1
 75 143 l 2,13,14
 60 143 60 143 60 159 c 0,15,16
 60 170 60 170 68 181.5 c 128,-1,17
 76 193 76 193 85 193 c 2,18,-1
 477 193 l 2,19,20
 491 193 491 193 491 176 c 0,21,22
 491 168 491 168 482 155.5 c 128,-1,23
 473 143 473 143 464 143 c 2,12,-1
EndSplineSet
Validated: 1
EndChar

StartChar: greater
Encoding: 62 62 143
Width: 550
GlyphClass: 2
Flags: W
LayerCount: 2
Fore
SplineSet
412 236 m 1,0,-1
 95 352 l 1,1,2
 85 363 85 363 85 380 c 128,-1,3
 85 397 85 397 95 402 c 1,4,-1
 485 260 l 1,5,6
 498 238 498 238 485 212 c 1,7,-1
 95 71 l 1,8,9
 85 76 85 76 85 93 c 128,-1,10
 85 110 85 110 95 121 c 1,11,-1
 412 236 l 1,0,-1
EndSplineSet
Validated: 33
EndChar

StartChar: question
Encoding: 63 63 144
Width: 435
GlyphClass: 2
Flags: W
LayerCount: 2
Fore
SplineSet
114 572 m 0,0,1
 114 554 114 554 120 546 c 128,-1,2
 126 538 126 538 126 522 c 128,-1,3
 126 506 126 506 114 496.5 c 128,-1,4
 102 487 102 487 87 487 c 0,5,6
 71 487 71 487 58.5 497 c 128,-1,7
 46 507 46 507 46 530 c 0,8,9
 46 579 46 579 97 620 c 0,10,11
 142 659 142 659 221 659 c 0,12,13
 297 659 297 659 343 617.5 c 128,-1,14
 389 576 389 576 389 508 c 0,15,16
 389 480 389 480 380 456 c 128,-1,17
 371 432 371 432 351 411.5 c 128,-1,18
 331 391 331 391 318 380 c 128,-1,19
 305 369 305 369 280 351 c 0,20,21
 238 320 238 320 228 301 c 0,22,23
 214 274 214 274 214 228 c 2,24,-1
 214 184 l 2,25,26
 214 174 214 174 197 174 c 0,27,28
 181 174 181 174 181 184 c 2,29,-1
 181 230 l 2,30,31
 181 327 181 327 251 391 c 0,32,33
 281 419 281 419 293.5 444 c 128,-1,34
 306 469 306 469 306 504 c 0,35,36
 306 554 306 554 279.5 590 c 128,-1,37
 253 626 253 626 211 626 c 128,-1,38
 169 626 169 626 141.5 610.5 c 128,-1,39
 114 595 114 595 114 572 c 0,0,1
144 43 m 128,-1,41
 144 65 144 65 159.5 80.5 c 128,-1,42
 175 96 175 96 197 96 c 128,-1,43
 219 96 219 96 234.5 80.5 c 128,-1,44
 250 65 250 65 250 43 c 128,-1,45
 250 21 250 21 234.5 5.5 c 128,-1,46
 219 -10 219 -10 197 -10 c 128,-1,47
 175 -10 175 -10 159.5 5.5 c 128,-1,40
 144 21 144 21 144 43 c 128,-1,41
EndSplineSet
Validated: 1
EndChar

StartChar: bracketleft
Encoding: 91 91 145
Width: 356
GlyphClass: 2
Flags: W
LayerCount: 2
Fore
SplineSet
108 -193 m 1,0,-1
 108 703 l 1,1,-1
 320 703 l 1,2,3
 324 698 324 698 324 688 c 128,-1,4
 324 678 324 678 320 673 c 1,5,6
 249 668 249 668 220 657.5 c 128,-1,7
 191 647 191 647 183 628 c 128,-1,8
 175 609 175 609 175 561 c 2,9,-1
 175 -50 l 2,10,11
 175 -87 175 -87 178 -103.5 c 128,-1,12
 181 -120 181 -120 196.5 -134.5 c 128,-1,13
 212 -149 212 -149 239 -154 c 128,-1,14
 266 -159 266 -159 320 -163 c 1,15,16
 324 -168 324 -168 324 -178 c 128,-1,17
 324 -188 324 -188 320 -193 c 1,18,-1
 108 -193 l 1,0,-1
EndSplineSet
Validated: 1
EndChar

StartChar: backslash
Encoding: 92 92 146
Width: 287
GlyphClass: 2
Flags: W
LayerCount: 2
Fore
SplineSet
55 698 m 1,0,-1
 285 -48 l 1,1,-1
 241 -48 l 1,2,-1
 11 698 l 1,3,-1
 55 698 l 1,0,-1
EndSplineSet
Validated: 1
EndChar

StartChar: bracketright
Encoding: 93 93 147
Width: 356
GlyphClass: 2
Flags: W
LayerCount: 2
Fore
SplineSet
248 704 m 1,0,-1
 248 -192 l 1,1,-1
 36 -192 l 1,2,3
 32 -188 32 -188 32 -177 c 128,-1,4
 32 -166 32 -166 36 -162 c 0,5,6
 107 -157 107 -157 136 -146.5 c 128,-1,7
 165 -136 165 -136 173 -117 c 128,-1,8
 181 -98 181 -98 181 -50 c 2,9,-1
 181 561 l 2,10,11
 181 598 181 598 178 614.5 c 128,-1,12
 175 631 175 631 159.5 645.5 c 128,-1,13
 144 660 144 660 117 665 c 128,-1,14
 90 670 90 670 36 674 c 0,15,16
 32 678 32 678 32 689 c 128,-1,17
 32 700 32 700 36 704 c 1,18,-1
 248 704 l 1,0,-1
EndSplineSet
Validated: 1
EndChar

StartChar: asciicircum
Encoding: 94 94 148
Width: 518
GlyphClass: 2
Flags: W
LayerCount: 2
Fore
SplineSet
259 593 m 1,0,-1
 157 346 l 1,1,-1
 112 346 l 1,2,-1
 239 650 l 1,3,-1
 281 650 l 1,4,-1
 407 346 l 1,5,-1
 362 346 l 1,6,-1
 259 593 l 1,0,-1
EndSplineSet
Validated: 1
EndChar

StartChar: underscore
Encoding: 95 95 149
Width: 486
GlyphClass: 2
Flags: W
LayerCount: 2
Fore
SplineSet
476 -110 m 1,0,1
 482 -116 482 -116 482 -132 c 128,-1,2
 482 -148 482 -148 476 -154 c 1,3,-1
 10 -154 l 1,4,5
 4 -148 4 -148 4 -132 c 128,-1,6
 4 -116 4 -116 10 -110 c 1,7,-1
 476 -110 l 1,0,1
EndSplineSet
Validated: 1
EndChar

StartChar: grave
Encoding: 96 96 150
Width: 392
GlyphClass: 2
Flags: W
LayerCount: 2
Fore
SplineSet
178 699 m 1,0,-1
 248 573 l 2,1,2
 254 561 254 561 254 549 c 0,3,4
 254 545 254 545 249.5 541.5 c 128,-1,5
 245 538 245 538 239 538 c 0,6,7
 231 538 231 538 210 558 c 2,8,-1
 96 667 l 1,9,-1
 98 678 l 1,10,11
 129 701 129 701 163 701 c 0,12,13
 170 701 170 701 178 699 c 1,0,-1
EndSplineSet
Validated: 1
EndChar

StartChar: braceleft
Encoding: 123 123 151
Width: 277
GlyphClass: 2
Flags: W
LayerCount: 2
Fore
SplineSet
178 552 m 2,0,-1
 186 386 l 2,1,2
 189 324 189 324 163 294.5 c 128,-1,3
 137 265 137 265 81 249 c 1,4,-1
 81 245 l 1,5,6
 136 222 136 222 162.5 187.5 c 128,-1,7
 189 153 189 153 186 95 c 2,8,-1
 178 -54 l 2,9,10
 175 -114 175 -114 199 -151 c 128,-1,11
 223 -188 223 -188 258 -188 c 1,12,13
 262 -192 262 -192 262 -200 c 128,-1,14
 262 -208 262 -208 258 -212 c 1,15,16
 177 -212 177 -212 139.5 -177 c 128,-1,17
 102 -142 102 -142 106 -49 c 2,18,-1
 112 121 l 2,19,20
 115 223 115 223 14 235 c 1,21,22
 2 247 2 247 14 259 c 1,23,24
 65 264 65 264 88.5 295.5 c 128,-1,25
 112 327 112 327 112 370 c 2,26,-1
 106 554 l 2,27,28
 101 707 101 707 258 707 c 1,29,30
 262 702 262 702 262 695 c 128,-1,31
 262 688 262 688 258 683 c 0,32,33
 239 678 239 678 228 672 c 128,-1,34
 217 666 217 666 202.5 652.5 c 128,-1,35
 188 639 188 639 182 614 c 128,-1,36
 176 589 176 589 178 552 c 2,0,-1
EndSplineSet
Validated: 33
EndChar

StartChar: bar
Encoding: 124 124 152
Width: 205
GlyphClass: 2
Flags: W
LayerCount: 2
Fore
SplineSet
125 -232 m 1,0,-1
 81 -232 l 1,1,-1
 81 698 l 1,2,-1
 125 698 l 1,3,-1
 125 -232 l 1,0,-1
EndSplineSet
Validated: 1
EndChar

StartChar: braceright
Encoding: 125 125 153
Width: 277
GlyphClass: 2
Flags: W
LayerCount: 2
Fore
SplineSet
95 -58 m 2,0,-1
 87 108 l 2,1,2
 84 170 84 170 110 199.5 c 128,-1,3
 136 229 136 229 192 245 c 1,4,-1
 192 249 l 1,5,6
 137 272 137 272 110.5 306.5 c 128,-1,7
 84 341 84 341 87 399 c 2,8,-1
 95 548 l 2,9,10
 99 608 99 608 74.5 645 c 128,-1,11
 50 682 50 682 15 682 c 1,12,13
 10 686 10 686 10 694 c 128,-1,14
 10 702 10 702 15 706 c 1,15,16
 96 706 96 706 133.5 671 c 128,-1,17
 171 636 171 636 167 543 c 2,18,-1
 161 373 l 2,19,20
 158 271 158 271 259 259 c 1,21,22
 271 247 271 247 259 235 c 1,23,24
 208 230 208 230 184.5 198.5 c 128,-1,25
 161 167 161 167 161 124 c 2,26,-1
 167 -60 l 2,27,28
 172 -213 172 -213 15 -213 c 1,29,30
 10 -208 10 -208 10 -201 c 128,-1,31
 10 -194 10 -194 15 -189 c 0,32,33
 34 -184 34 -184 45 -178 c 128,-1,34
 56 -172 56 -172 70.5 -158.5 c 128,-1,35
 85 -145 85 -145 91 -120 c 128,-1,36
 97 -95 97 -95 95 -58 c 2,0,-1
EndSplineSet
Validated: 33
EndChar

StartChar: asciitilde
Encoding: 126 126 154
Width: 449
GlyphClass: 2
Flags: W
LayerCount: 2
Fore
SplineSet
26 209 m 1,0,1
 36 260 36 260 73 298.5 c 128,-1,2
 110 337 110 337 154 337 c 0,3,4
 186 337 186 337 229 305 c 0,5,6
 274 272 274 272 301 272 c 0,7,8
 327 272 327 272 356 288.5 c 128,-1,9
 385 305 385 305 400 339 c 1,10,11
 412 339 412 339 417 333 c 1,12,13
 403 284 403 284 377 255 c 128,-1,14
 351 226 351 226 332.5 219.5 c 128,-1,15
 314 213 314 213 297 213 c 0,16,17
 265 213 265 213 221 246 c 0,18,19
 178 278 178 278 148 278 c 0,20,21
 121 278 121 278 90.5 257.5 c 128,-1,22
 60 237 60 237 43 205 c 1,23,24
 34 205 34 205 26 209 c 1,0,1
EndSplineSet
Validated: 1
EndChar

StartChar: exclamdown
Encoding: 161 161 156
Width: 288
GlyphClass: 2
Flags: W
LayerCount: 2
Fore
SplineSet
144 -229 m 128,-1,1
 123 -229 123 -229 107 -211 c 128,-1,2
 91 -193 91 -193 91 -156 c 0,3,4
 91 -127 91 -127 94.5 -99.5 c 128,-1,5
 98 -72 98 -72 104.5 -33.5 c 128,-1,6
 111 5 111 5 115 37 c 0,7,8
 121 84 121 84 124 126.5 c 128,-1,9
 127 169 127 169 128 192 c 128,-1,10
 129 215 129 215 130 219 c 0,11,12
 132 239 132 239 144 239 c 128,-1,13
 156 239 156 239 158 226 c 0,14,15
 159 220 159 220 161 188 c 128,-1,16
 163 156 163 156 166.5 113.5 c 128,-1,17
 170 71 170 71 174 37 c 0,18,19
 177 6 177 6 187 -55 c 128,-1,20
 197 -116 197 -116 197 -156 c 0,21,22
 197 -193 197 -193 181 -211 c 128,-1,0
 165 -229 165 -229 144 -229 c 128,-1,1
91 386 m 128,-1,24
 91 408 91 408 106.5 423.5 c 128,-1,25
 122 439 122 439 144 439 c 128,-1,26
 166 439 166 439 181.5 423.5 c 128,-1,27
 197 408 197 408 197 386 c 128,-1,28
 197 364 197 364 181.5 348.5 c 128,-1,29
 166 333 166 333 144 333 c 128,-1,30
 122 333 122 333 106.5 348.5 c 128,-1,23
 91 364 91 364 91 386 c 128,-1,24
EndSplineSet
Validated: 1
EndChar

StartChar: brokenbar
Encoding: 166 166 157
Width: 211
GlyphClass: 2
Flags: W
LayerCount: 2
Fore
SplineSet
130 161 m 1,0,-1
 130 -201 l 1,1,-1
 81 -201 l 1,2,-1
 81 161 l 1,3,-1
 130 161 l 1,0,-1
130 674 m 1,4,-1
 130 312 l 1,5,-1
 81 312 l 1,6,-1
 81 674 l 1,7,-1
 130 674 l 1,4,-1
EndSplineSet
Validated: 1
EndChar

StartChar: section
Encoding: 167 167 158
Width: 473
GlyphClass: 2
Flags: W
LayerCount: 2
Fore
SplineSet
125 415 m 1,0,1
 80 460 80 460 80 526 c 0,2,3
 80 579 80 579 121.5 618.5 c 128,-1,4
 163 658 163 658 236 658 c 0,5,6
 302 658 302 658 338.5 625 c 128,-1,7
 375 592 375 592 375 557 c 0,8,9
 375 519 375 519 339 519 c 0,10,11
 309 519 309 519 298 560 c 0,12,13
 289 593 289 593 274.5 610 c 128,-1,14
 260 627 260 627 230 627 c 0,15,16
 195 627 195 627 172 604 c 128,-1,17
 149 581 149 581 149 546 c 0,18,19
 149 476 149 476 240 427 c 0,20,21
 244 425 244 425 266 413.5 c 128,-1,22
 288 402 288 402 294.5 398 c 128,-1,23
 301 394 301 394 321 382.5 c 128,-1,24
 341 371 341 371 348.5 363.5 c 128,-1,25
 356 356 356 356 371.5 343 c 128,-1,26
 387 330 387 330 393.5 318 c 128,-1,27
 400 306 400 306 408.5 290.5 c 128,-1,28
 417 275 417 275 420 257 c 128,-1,29
 423 239 423 239 423 219 c 0,30,31
 423 131 423 131 348 71 c 1,32,33
 393 26 393 26 393 -40 c 0,34,35
 393 -93 393 -93 351.5 -132.5 c 128,-1,36
 310 -172 310 -172 237 -172 c 0,37,38
 171 -172 171 -172 134.5 -139 c 128,-1,39
 98 -106 98 -106 98 -71 c 0,40,41
 98 -33 98 -33 134 -33 c 0,42,43
 164 -33 164 -33 175 -74 c 0,44,45
 184 -107 184 -107 198.5 -124 c 128,-1,46
 213 -141 213 -141 243 -141 c 0,47,48
 278 -141 278 -141 301 -118 c 128,-1,49
 324 -95 324 -95 324 -60 c 0,50,51
 324 10 324 10 233 59 c 0,52,53
 229 61 229 61 207 72.5 c 128,-1,54
 185 84 185 84 178.5 88 c 128,-1,55
 172 92 172 92 152 103.5 c 128,-1,56
 132 115 132 115 124.5 122.5 c 128,-1,57
 117 130 117 130 101.5 143 c 128,-1,58
 86 156 86 156 79.5 168 c 128,-1,59
 73 180 73 180 64.5 195.5 c 128,-1,60
 56 211 56 211 53 229 c 128,-1,61
 50 247 50 247 50 267 c 0,62,63
 50 355 50 355 125 415 c 1,0,1
327 90 m 1,64,65
 369 128 369 128 369 171 c 0,66,67
 369 198 369 198 359 221.5 c 128,-1,68
 349 245 349 245 339 259.5 c 128,-1,69
 329 274 329 274 303.5 293 c 128,-1,70
 278 312 278 312 266.5 319 c 128,-1,71
 255 326 255 326 222 345 c 0,72,73
 177 371 177 371 146 396 c 1,74,75
 104 359 104 359 104 315 c 0,76,77
 104 288 104 288 114 264.5 c 128,-1,78
 124 241 124 241 134 226.5 c 128,-1,79
 144 212 144 212 169.5 193 c 128,-1,80
 195 174 195 174 206.5 167 c 128,-1,81
 218 160 218 160 251 141 c 0,82,83
 297 115 297 115 327 90 c 1,64,65
EndSplineSet
Validated: 1
EndChar

StartChar: dieresis
Encoding: 168 168 159
Width: 379
GlyphClass: 2
Flags: W
LayerCount: 2
Fore
SplineSet
50 575 m 0,0,1
 50 595 50 595 64 609 c 128,-1,2
 78 623 78 623 97 623 c 128,-1,3
 116 623 116 623 130 609 c 128,-1,4
 144 595 144 595 144 575 c 0,5,6
 144 556 144 556 130 542 c 128,-1,7
 116 528 116 528 97 528 c 128,-1,8
 78 528 78 528 64 542 c 128,-1,9
 50 556 50 556 50 575 c 0,0,1
219 575 m 0,10,11
 219 595 219 595 233 609 c 128,-1,12
 247 623 247 623 266 623 c 128,-1,13
 285 623 285 623 299 609 c 128,-1,14
 313 595 313 595 313 575 c 0,15,16
 313 556 313 556 299.5 542 c 128,-1,17
 286 528 286 528 266 528 c 128,-1,18
 246 528 246 528 232.5 542 c 128,-1,19
 219 556 219 556 219 575 c 0,10,11
EndSplineSet
Validated: 1
EndChar

StartChar: guillemotleft
Encoding: 171 171 160
Width: 543
GlyphClass: 2
Flags: W
LayerCount: 2
Fore
SplineSet
156 215 m 1,0,1
 211 154 211 154 283 45 c 1,2,3
 280 28 280 28 259 26 c 1,4,5
 160 134 160 134 74 209 c 1,6,-1
 74 221 l 1,7,8
 154 291 154 291 259 404 c 1,9,10
 280 402 280 402 283 385 c 1,11,12
 215 282 215 282 156 215 c 1,0,1
336 215 m 1,13,14
 391 154 391 154 463 45 c 1,15,16
 460 28 460 28 439 26 c 1,17,18
 340 134 340 134 254 209 c 1,19,-1
 254 221 l 1,20,21
 334 291 334 291 439 404 c 1,22,23
 460 402 460 402 463 385 c 1,24,25
 395 282 395 282 336 215 c 1,13,14
EndSplineSet
Validated: 1
EndChar

StartChar: logicalnot
Encoding: 172 172 161
Width: 599
GlyphClass: 2
Flags: W
LayerCount: 2
Fore
SplineSet
499 99 m 1,0,-1
 499 323 l 1,1,-1
 40 323 l 1,2,3
 32 348 32 348 40 367 c 1,4,-1
 553 367 l 1,5,-1
 553 99 l 1,6,7
 522 88 522 88 499 99 c 1,0,-1
EndSplineSet
Validated: 33
EndChar

StartChar: uni00AD
Encoding: 173 173 162
Width: 338
GlyphClass: 2
Flags: W
LayerCount: 2
Fore
SplineSet
271 223 m 2,0,-1
 55 223 l 2,1,2
 40 223 40 223 40 242 c 0,3,4
 40 256 40 256 48 269.5 c 128,-1,5
 56 283 56 283 65 283 c 2,6,-1
 284 283 l 2,7,8
 298 283 298 283 298 263 c 0,9,10
 298 253 298 253 289 238 c 128,-1,11
 280 223 280 223 271 223 c 2,0,-1
EndSplineSet
Validated: 1
EndChar

StartChar: macron
Encoding: 175 175 163
Width: 397
GlyphClass: 2
Flags: W
LayerCount: 2
Fore
SplineSet
315 529 m 2,0,-1
 71 529 l 2,1,2
 59 529 59 529 59 544 c 0,3,4
 59 554 59 554 65.5 563.5 c 128,-1,5
 72 573 72 573 81 573 c 2,6,-1
 325 573 l 2,7,8
 339 573 339 573 339 559 c 0,9,10
 339 549 339 549 331.5 539 c 128,-1,11
 324 529 324 529 315 529 c 2,0,-1
EndSplineSet
Validated: 1
EndChar

StartChar: degree
Encoding: 176 176 164
Width: 267
GlyphClass: 2
Flags: W
LayerCount: 2
Fore
SplineSet
34 509 m 0,0,1
 34 551 34 551 63.5 580.5 c 128,-1,2
 93 610 93 610 134 610 c 128,-1,3
 175 610 175 610 204 580.5 c 128,-1,4
 233 551 233 551 233 509 c 0,5,6
 233 468 233 468 204 438.5 c 128,-1,7
 175 409 175 409 134 409 c 128,-1,8
 93 409 93 409 63.5 438.5 c 128,-1,9
 34 468 34 468 34 509 c 0,0,1
199 508 m 0,10,11
 199 536 199 536 182 558 c 128,-1,12
 165 580 165 580 134 580 c 128,-1,13
 103 580 103 580 85.5 558.5 c 128,-1,14
 68 537 68 537 68 508 c 0,15,16
 68 480 68 480 86 459.5 c 128,-1,17
 104 439 104 439 134 439 c 0,18,19
 163 439 163 439 181 460 c 128,-1,20
 199 481 199 481 199 508 c 0,10,11
EndSplineSet
Validated: 1
EndChar

StartChar: plusminus
Encoding: 177 177 165
Width: 550
GlyphClass: 2
Flags: W
LayerCount: 2
Fore
SplineSet
250 520 m 2,0,1
 250 529 250 529 262.5 538 c 128,-1,2
 275 547 275 547 283 547 c 0,3,4
 300 547 300 547 300 533 c 2,5,-1
 300 361 l 1,6,-1
 476 361 l 2,7,8
 490 361 490 361 490 344 c 0,9,10
 490 336 490 336 481 323.5 c 128,-1,11
 472 311 472 311 463 311 c 2,12,-1
 300 311 l 1,13,-1
 300 151 l 2,14,15
 300 142 300 142 288.5 134 c 128,-1,16
 277 126 277 126 266 126 c 0,17,18
 250 126 250 126 250 141 c 2,19,-1
 250 311 l 1,20,-1
 75 311 l 2,21,22
 60 311 60 311 60 327 c 0,23,24
 60 338 60 338 68 349.5 c 128,-1,25
 76 361 76 361 85 361 c 2,26,-1
 250 361 l 1,27,-1
 250 520 l 2,0,1
463 37 m 2,28,-1
 75 37 l 2,29,30
 60 37 60 37 60 53 c 0,31,32
 60 64 60 64 68 75.5 c 128,-1,33
 76 87 76 87 85 87 c 2,34,-1
 476 87 l 2,35,36
 490 87 490 87 490 70 c 0,37,38
 490 62 490 62 481 49.5 c 128,-1,39
 472 37 472 37 463 37 c 2,28,-1
EndSplineSet
Validated: 1
EndChar

StartChar: acute
Encoding: 180 180 166
Width: 341
GlyphClass: 2
Flags: W
LayerCount: 2
Fore
SplineSet
175 703 m 2,0,1
 181 705 181 705 189 705 c 0,2,3
 220 705 220 705 244 682 c 1,4,-1
 247 671 l 1,5,-1
 132 562 l 2,6,7
 113 543 113 543 102 543 c 0,8,9
 97 543 97 543 92.5 547 c 128,-1,10
 88 551 88 551 88 556 c 0,11,12
 88 566 88 566 99 584 c 2,13,-1
 175 703 l 2,0,1
EndSplineSet
Validated: 1
EndChar

StartChar: periodcentered
Encoding: 183 183 167
Width: 250
GlyphClass: 2
Flags: W
LayerCount: 2
Fore
SplineSet
125 199 m 128,-1,1
 104 199 104 199 87.5 215.5 c 128,-1,2
 71 232 71 232 71 253 c 128,-1,3
 71 274 71 274 87.5 290.5 c 128,-1,4
 104 307 104 307 125 307 c 128,-1,5
 146 307 146 307 162.5 290.5 c 128,-1,6
 179 274 179 274 179 253 c 128,-1,7
 179 232 179 232 162.5 215.5 c 128,-1,0
 146 199 146 199 125 199 c 128,-1,1
EndSplineSet
Validated: 1
EndChar

StartChar: guillemotright
Encoding: 187 187 168
Width: 543
GlyphClass: 2
Flags: W
LayerCount: 2
Fore
SplineSet
207 215 m 1,0,1
 143 290 143 290 80 385 c 1,2,3
 85 402 85 402 104 404 c 1,4,5
 210 291 210 291 289 221 c 1,6,-1
 289 209 l 1,7,8
 203 132 203 132 104 26 c 1,9,10
 85 28 85 28 80 45 c 1,11,12
 147 147 147 147 207 215 c 1,0,1
387 215 m 1,13,14
 323 290 323 290 260 385 c 1,15,16
 265 402 265 402 284 404 c 1,17,18
 390 291 390 291 469 221 c 1,19,-1
 469 209 l 1,20,21
 383 132 383 132 284 26 c 1,22,23
 265 28 265 28 260 45 c 1,24,25
 327 147 327 147 387 215 c 1,13,14
EndSplineSet
Validated: 1
EndChar

StartChar: questiondown
Encoding: 191 191 169
Width: 435
GlyphClass: 2
Flags: W
LayerCount: 2
Fore
SplineSet
321 -143 m 0,0,1
 321 -124 321 -124 315 -117 c 128,-1,2
 309 -110 309 -110 309 -93 c 0,3,4
 309 -77 309 -77 321 -67.5 c 128,-1,5
 333 -58 333 -58 348 -58 c 0,6,7
 364 -58 364 -58 376.5 -68 c 128,-1,8
 389 -78 389 -78 389 -101 c 0,9,10
 389 -150 389 -150 338 -191 c 0,11,12
 293 -230 293 -230 214 -230 c 0,13,14
 138 -230 138 -230 92 -188.5 c 128,-1,15
 46 -147 46 -147 46 -79 c 0,16,17
 46 -51 46 -51 55 -27 c 128,-1,18
 64 -3 64 -3 84 17.5 c 128,-1,19
 104 38 104 38 117 49 c 128,-1,20
 130 60 130 60 155 78 c 0,21,22
 197 109 197 109 207 128 c 0,23,24
 221 155 221 155 221 201 c 2,25,-1
 221 245 l 2,26,27
 221 255 221 255 238 255 c 0,28,29
 254 255 254 255 254 245 c 2,30,-1
 254 199 l 2,31,32
 254 102 254 102 184 38 c 0,33,34
 154 10 154 10 141.5 -15 c 128,-1,35
 129 -40 129 -40 129 -75 c 0,36,37
 129 -125 129 -125 155.5 -161 c 128,-1,38
 182 -197 182 -197 224 -197 c 128,-1,39
 266 -197 266 -197 293.5 -181.5 c 128,-1,40
 321 -166 321 -166 321 -143 c 0,0,1
185 386 m 128,-1,42
 185 408 185 408 200.5 423.5 c 128,-1,43
 216 439 216 439 238 439 c 128,-1,44
 260 439 260 439 275.5 423.5 c 128,-1,45
 291 408 291 408 291 386 c 128,-1,46
 291 364 291 364 275.5 348.5 c 128,-1,47
 260 333 260 333 238 333 c 128,-1,48
 216 333 216 333 200.5 348.5 c 128,-1,41
 185 364 185 364 185 386 c 128,-1,42
EndSplineSet
Validated: 1
EndChar

StartChar: multiply
Encoding: 215 215 170
Width: 550
GlyphClass: 2
Flags: W
LayerCount: 2
Fore
SplineSet
308 252 m 1,0,-1
 431 130 l 1,1,-1
 396 95 l 1,2,-1
 274 217 l 1,3,-1
 152 95 l 1,4,-1
 116 130 l 1,5,-1
 239 252 l 1,6,-1
 116 375 l 1,7,-1
 152 410 l 1,8,-1
 274 287 l 1,9,-1
 396 410 l 1,10,-1
 431 375 l 1,11,-1
 308 252 l 1,0,-1
EndSplineSet
Validated: 1
EndChar

StartChar: divide
Encoding: 247 247 171
Width: 550
GlyphClass: 2
Flags: W
LayerCount: 2
Fore
SplineSet
463 226 m 2,0,-1
 75 226 l 2,1,2
 60 226 60 226 60 242 c 0,3,4
 60 253 60 253 68 264.5 c 128,-1,5
 76 276 76 276 85 276 c 2,6,-1
 476 276 l 2,7,8
 490 276 490 276 490 259 c 0,9,10
 490 251 490 251 481 238.5 c 128,-1,11
 472 226 472 226 463 226 c 2,0,-1
226 387 m 128,-1,13
 226 405 226 405 239 418 c 128,-1,14
 252 431 252 431 270 431 c 0,15,16
 289 431 289 431 302 418 c 128,-1,17
 315 405 315 405 315 387 c 128,-1,18
 315 369 315 369 302 356 c 128,-1,19
 289 343 289 343 270 343 c 0,20,21
 252 343 252 343 239 356 c 128,-1,12
 226 369 226 369 226 387 c 128,-1,13
226 119 m 128,-1,23
 226 137 226 137 239 150 c 128,-1,24
 252 163 252 163 270 163 c 0,25,26
 289 163 289 163 302 150 c 128,-1,27
 315 137 315 137 315 119 c 128,-1,28
 315 101 315 101 302 88 c 128,-1,29
 289 75 289 75 270 75 c 0,30,31
 252 75 252 75 239 88 c 128,-1,22
 226 101 226 101 226 119 c 128,-1,23
EndSplineSet
Validated: 1
EndChar
